<?xml version="1.0" encoding="iso-8859-1"?>
<!-- Generator: Adobe Illustrator 19.0.0, SVG Export Plug-In . SVG Version: 6.00 Build 0)  -->
<svg version="1.1" id="Layer_1" xmlns="http://www.w3.org/2000/svg" xmlns:xlink="http://www.w3.org/1999/xlink" x="0px" y="0px"
	 viewBox="0 0 512 512" style="enable-background:new 0 0 512 512;" xml:space="preserve">
<path style="fill:#A5A5A5;" d="M322.783,44.522v44.522H0V44.522c0-12.295,9.966-22.261,22.261-22.261h278.261
	C312.816,22.261,322.783,32.227,322.783,44.522z"/>
<path style="fill:#777777;" d="M230.957,49.53v1.113c0,4.61-3.738,8.348-8.348,8.348c-4.61,0-8.348-3.738-8.348-8.348V49.53
	c0-4.61,3.738-8.348,8.348-8.348C227.219,41.183,230.957,44.92,230.957,49.53z M256,41.183c-4.61,0-8.348,3.738-8.348,8.348v1.113
	c0,4.61,3.738,8.348,8.348,8.348s8.348-3.738,8.348-8.348V49.53C264.348,44.92,260.61,41.183,256,41.183z M289.391,41.183
	c-4.61,0-8.348,3.738-8.348,8.348v1.113c0,4.61,3.738,8.348,8.348,8.348s8.348-3.738,8.348-8.348V49.53
	C297.739,44.92,294.002,41.183,289.391,41.183z"/>
<path style="fill:#FFE6AE;" d="M322.783,77.913v200.348c0,12.295-9.966,22.261-22.261,22.261H22.261
	C9.966,300.522,0,290.556,0,278.261V77.913h44.522V11.13C44.522,4.983,49.505,0,55.652,0h66.783c6.147,0,11.13,4.983,11.13,11.13
	v66.783H322.783z"/>
<path style="fill:#FFD880;" d="M133.565,11.13v66.783H44.522V11.13C44.522,4.983,49.505,0,55.652,0h66.783
	C128.582,0,133.565,4.983,133.565,11.13z"/>
<path style="fill:#FCC159;" d="M105.739,44.522H72.348c-3.073,0-5.565-2.492-5.565-5.565v-11.13c0-3.073,2.492-5.565,5.565-5.565
	h33.391c3.073,0,5.565,2.492,5.565,5.565v11.13C111.304,42.03,108.812,44.522,105.739,44.522z"/>
<path style="fill:#FFD880;" d="M289.391,139.13v11.13c0,3.073-2.492,5.565-5.565,5.565H183.652c-3.073,0-5.565-2.492-5.565-5.565
	v-11.13c0-3.073,2.492-5.565,5.565-5.565h100.174C286.899,133.565,289.391,136.057,289.391,139.13z M283.826,178.087H183.652
	c-3.073,0-5.565,2.492-5.565,5.565v11.13c0,3.073,2.492,5.565,5.565,5.565h100.174c3.073,0,5.565-2.492,5.565-5.565v-11.13
	C289.391,180.579,286.899,178.087,283.826,178.087z M283.826,222.609H183.652c-3.073,0-5.565,2.492-5.565,5.565v11.13
	c0,3.073,2.492,5.565,5.565,5.565h100.174c3.073,0,5.565-2.492,5.565-5.565v-11.13C289.391,225.101,286.899,222.609,283.826,222.609
	z"/>
<path style="fill:#FF9D00;" d="M147.365,254.626l-17.686-106.118c-3.325-19.946-20.413-34.423-40.635-34.423
	s-37.31,14.476-40.635,34.423L30.722,254.626c-0.758,4.547,2.314,8.849,6.862,9.607c4.55,0.761,8.849-2.314,9.607-6.862
	l6.258-37.546h71.19l6.258,37.546c0.68,4.083,4.217,6.978,8.224,6.977c0.455,0,0.918-0.038,1.382-0.115
	C145.051,263.475,148.123,259.174,147.365,254.626z M56.231,203.129l8.646-51.876c1.977-11.862,12.14-20.472,24.166-20.472
	s22.19,8.609,24.166,20.472l8.646,51.876H56.231z"/>
<path style="fill:#A5A5A5;" d="M512,256v44.522H189.217V256c0-12.295,9.966-22.261,22.261-22.261h278.261
	C502.034,233.739,512,243.705,512,256z"/>
<path style="fill:#777777;" d="M420.174,261.009v1.113c0,4.61-3.738,8.348-8.348,8.348c-4.61,0-8.348-3.738-8.348-8.348v-1.113
	c0-4.61,3.738-8.348,8.348-8.348C416.436,252.661,420.174,256.398,420.174,261.009z M445.217,252.661
	c-4.61,0-8.348,3.738-8.348,8.348v1.113c0,4.61,3.738,8.348,8.348,8.348s8.348-3.738,8.348-8.348v-1.113
	C453.565,256.398,449.828,252.661,445.217,252.661z M478.609,252.661c-4.61,0-8.348,3.738-8.348,8.348v1.113
	c0,4.61,3.738,8.348,8.348,8.348s8.348-3.738,8.348-8.348v-1.113C486.957,256.398,483.219,252.661,478.609,252.661z"/>
<path style="fill:#E9F2F4;" d="M512,289.391v200.348c0,12.295-9.966,22.261-22.261,22.261H211.478
	c-12.295,0-22.261-9.966-22.261-22.261V289.391h44.522v-66.783c0-6.147,4.983-11.13,11.13-11.13h66.783
	c6.147,0,11.13,4.983,11.13,11.13v66.783H512z"/>
<path style="fill:#C3E4ED;" d="M322.783,222.609v66.783h-89.043v-66.783c0-6.147,4.983-11.13,11.13-11.13h66.783
	C317.799,211.478,322.783,216.461,322.783,222.609z"/>
<path style="fill:#B2D1D8;" d="M294.957,256h-33.391c-3.073,0-5.565-2.492-5.565-5.565v-11.13c0-3.073,2.492-5.565,5.565-5.565
	h33.391c3.073,0,5.565,2.492,5.565,5.565v11.13C300.522,253.508,298.03,256,294.957,256z"/>
<path style="fill:#84A7B7;" d="M313.445,396.68c7.486-7.548,12.12-17.93,12.12-29.375c0-23.016-18.724-41.739-41.739-41.739h-55.652
	c-4.61,0-8.348,3.738-8.348,8.348v66.783v66.783c0,4.61,3.738,8.348,8.348,8.348h66.783c23.016,0,41.739-18.724,41.739-41.739
	C336.696,417.708,327.209,403.51,313.445,396.68z M236.522,342.261h47.304c13.81,0,25.043,11.234,25.043,25.043
	s-11.234,25.043-25.043,25.043h-47.304V342.261z M294.957,459.13h-58.435v-50.087h47.304h11.13c13.81,0,25.043,11.234,25.043,25.043
	S308.766,459.13,294.957,459.13z"/>
<path style="fill:#CFDFE2;" d="M478.609,350.609v11.13c0,3.073-2.492,5.565-5.565,5.565H372.87c-3.073,0-5.565-2.492-5.565-5.565
	v-11.13c0-3.073,2.492-5.565,5.565-5.565h100.174C476.117,345.043,478.609,347.536,478.609,350.609z M473.043,389.565H372.87
	c-3.073,0-5.565,2.492-5.565,5.565v11.13c0,3.073,2.492,5.565,5.565,5.565h100.174c3.073,0,5.565-2.492,5.565-5.565v-11.13
	C478.609,392.057,476.117,389.565,473.043,389.565z M473.043,434.087H372.87c-3.073,0-5.565,2.492-5.565,5.565v11.13
	c0,3.073,2.492,5.565,5.565,5.565h100.174c3.073,0,5.565-2.492,5.565-5.565v-11.13C478.609,436.579,476.117,434.087,473.043,434.087
	z"/>
<g>
</g>
<g>
</g>
<g>
</g>
<g>
</g>
<g>
</g>
<g>
</g>
<g>
</g>
<g>
</g>
<g>
</g>
<g>
</g>
<g>
</g>
<g>
</g>
<g>
</g>
<g>
</g>
<g>
</g>
</svg>
