<?xml version="1.0" encoding="utf-8"?><svg xmlns="http://www.w3.org/2000/svg" xmlns:xlink="http://www.w3.org/1999/xlink" version="1.1" class="page" pageAlignment="none" x="0px" y="0px" width="18px" height="18px" viewBox="0 0 18 18" enable-background="new 0 0 18 18" xml:space="preserve"><defs/><style type="text/css"/><style type="text/css"/><g type="LAYER" name="workspace" id="workspace" locked="true"/><g transform="matrix(1 0 0 1 -58.636363636364194 -58.65340909090904)"><path width="18" height="4.909090909090935" stroke-width="0.06818181818181819" stroke-miterlimit="3" stroke="none" fill="#000" d="M75.81818181818198,60.28977272727275 L71.18181818181824,60.28977272727275 L71.18181818181824,59.47159090909096 C71.18181818181824,59.01961363636369 70.81561363636365,58.65340909090912 70.36363636363649,58.65340909090912 C69.9116590909091,58.65340909090912 69.54545454545473,59.01961363636369 69.54545454545473,59.47159090909096 L69.54545454545473,60.28977272727275 L65.72727272727275,60.28977272727275 L65.72727272727275,59.47159090909096 C65.72727272727275,59.01961363636369 65.36106818181815,58.65340909090912 64.90909090909099,58.65340909090912 C64.4571136363636,58.65340909090912 64.09090909090924,59.01961363636369 64.09090909090924,59.47159090909096 L64.09090909090924,60.28977272727275 L59.454545454545496,60.28977272727275 C59.002568181818106,60.28977272727275 58.63636363636374,60.65597727272731 58.63636363636374,61.10795454545459 L58.63636363636374,63.56250000000006 L76.63636363636374,63.56250000000006 L76.63636363636374,61.10795454545459 C76.63636363636374,60.65597727272731 76.27015909090915,60.28977272727275 75.81818181818198,60.28977272727275 L75.81818181818198,60.28977272727275 Z M75.81818181818198,60.28977272727275 "/><path width="18" height="11.454545454545467" stroke-width="0.06818181818181819" stroke-miterlimit="3" stroke="none" fill="#000" d="M58.63636363636374,75.83522727272731 C58.63636363636374,76.28720454545459 59.002568181818106,76.65340909090915 59.454545454545496,76.65340909090915 L75.81818181818198,76.65340909090915 C76.27015909090915,76.65340909090915 76.63636363636374,76.28720454545459 76.63636363636374,75.83522727272731 L76.63636363636374,65.19886363636368 L58.63636363636374,65.19886363636368 L58.63636363636374,75.83522727272731 Z M64.60336363636407,69.52950000000004 C64.92265909090952,69.2098636363637 65.44097727272765,69.2098636363637 65.76027272727265,69.52950000000004 L66.81818181818198,70.58734090909095 L69.5124545454546,67.89306818181822 C69.83181818181856,67.57343181818186 70.35006818181864,67.57343181818186 70.66943181818192,67.89306818181822 C70.98906818181831,68.21270454545461 70.98906818181831,68.73040909090915 70.66943181818192,69.05004545454551 L67.3967045454549,72.32277272727276 C67.23695454545509,72.48259090909096 67.02756818181865,72.56250000000006 66.81825000000026,72.56250000000006 C66.60893181818187,72.56250000000006 66.39954545454543,72.48259090909096 66.23979545454563,72.32277272727276 L64.60343181818212,70.68640909090911 C64.28372727272745,70.36684090909094 64.28372727272745,69.84906818181824 64.60336363636407,69.52950000000004 L64.60336363636407,69.52950000000004 Z M64.60336363636407,69.52950000000004 "/></g></svg>