<?xml version="1.0" encoding="utf-8"?><svg xmlns="http://www.w3.org/2000/svg" xmlns:xlink="http://www.w3.org/1999/xlink" version="1.1" class="page" pageAlignment="none" x="0px" y="0px" width="30px" height="30px" viewBox="0 0 30 30" enable-background="new 0 0 30 30" xml:space="preserve"><defs/><style type="text/css"/><style type="text/css"/><g type="LAYER" name="workspace" id="workspace" locked="true"/><g transform="matrix(1 0 0 1 -66.758241758242 -66.77884615384599)"><path transform="matrix(1 0 0 1 0 2.1316282072803006e-14)" width="30.000000000000014" height="30" stroke-width="0.08241758241758242" stroke-miterlimit="3" stroke="none" fill="#3D5A98" d="M66.75824175824177,66.77884615384613 L66.75824175824177,96.77884615384613 L96.75824175824178,96.77884615384613 L96.75824175824178,66.77884615384613 L66.75824175824177,66.77884615384613 Z M86.6048076923077,75.03478021978022 L84.25978021978025,75.03478021978022 C83.79552197802208,75.03478021978022 83.32681318681342,75.5147802197802 83.32681318681342,75.87214285714286 L83.32681318681342,78.2629120879121 L86.60002747252742,78.2629120879121 C86.46832417582414,80.0963736263736 86.19758241758262,81.77307692307691 86.19758241758262,81.77307692307691 L83.31008241758249,81.77307692307691 L83.31008241758249,92.1634615384615 L79.00664835164844,92.1634615384615 L79.00664835164844,81.77175824175823 L76.91175824175824,81.77175824175823 L76.91175824175824,78.27543956043955 L79.00664835164844,78.27543956043955 L79.00664835164844,75.41695054945053 C79.00664835164844,74.8940934065934 78.90074175824174,71.39423076923076 83.41574175824181,71.39423076923076 L86.60489010989014,71.39423076923076 L86.60489010989014,75.03478021978022 Z M86.6048076923077,75.03478021978022 "/></g></svg>