<?xml version="1.0" encoding="utf-8"?><svg xmlns="http://www.w3.org/2000/svg" xmlns:xlink="http://www.w3.org/1999/xlink" version="1.1" class="page" pageAlignment="none" x="0px" y="0px" width="15px" height="20px" viewBox="0 0 15 20" enable-background="new 0 0 15 20" xml:space="preserve"><defs/><style type="text/css"/><style type="text/css"/><g type="LAYER" name="workspace" id="workspace" locked="true"/><g transform="matrix(1 0 0 1 -45.57610119929632 -41.81387411740752)"><path width="13.770369107508316" height="13.417856937841492" stroke-width="0.05286643045524779" stroke-miterlimit="3" stroke="none" fill="#000" d="M59.6552604425151,45.16174989432375 L57.140220150599816,42.71084368786629 C56.54671327223241,42.13231188322905 55.7574058932953,41.813874117407636 54.91807727050423,41.813874117407636 C54.07853442397027,41.813874117407636 53.289227045033385,42.13231188322905 52.695720166666206,42.71084368786629 L47.724176220450545,47.554521116984944 C46.49951264098604,48.74848008850714 46.49951264098604,50.69156625248536 47.72460466793541,51.88552522400755 L50.23964495985092,54.336222687255685 C50.85221775129344,54.933123894313354 51.657002795619974,55.23173105524913 52.46157361620385,55.23173105524913 C53.26662644020848,55.23173105524913 54.07162570827745,54.933123894313354 54.6847876150116,54.336222687255685 L55.99942516629153,53.055009054236734 L56.00735144476107,53.04728555549178 L55.9977113763523,53.03789211107227 L54.58078198806788,51.658047311648374 L54.5722130383715,51.6496975832755 L54.564875875193366,51.656794852392466 L53.25045254765587,52.9382172286208 C52.8150963471287,53.36160064292906 52.10864000057177,53.361444085522095 51.67408713907798,52.93863471503943 L49.15926107090468,50.48772850858194 C48.72476176534701,50.06434509427365 48.72476176534701,49.37554468931182 49.15904684716247,48.9521090892012 L54.13016234589327,44.10864040329187 C54.34042294907567,43.90355020013257 54.62052049228623,43.790620123889084 54.918023714568335,43.790620123889084 C55.21552693685089,43.790620123889084 55.49541025631879,43.90355020013257 55.70588508324386,44.10864040329187 L58.22092537515937,46.559337866540005 C58.42824040188384,46.76176659378049 58.547509470475006,47.041639051679596 58.547509470475006,47.327460691044394 C58.547509470475006,47.61302140139753 58.42845462562627,47.89273730188967 58.22092537515937,48.095113843327795 L56.93054866270836,49.35247856468172 L58.365258621613066,50.75006653689795 L59.65477843909457,49.49317148776504 C60.2489279886895,48.915004983744126 60.57610119929609,48.14568188578616 60.57610119929609,47.327460691044394 C60.57615475523153,46.50939605370962 60.24935643617391,45.74022951315865 59.6552604425151,45.16174989432375 L59.6552604425151,45.16174989432375 Z M59.6552604425151,45.16174989432375 "/><path width="13.770261995637213" height="13.419265954504425" stroke-width="0.05286643045524779" stroke-miterlimit="3" stroke="none" fill="#000" d="M55.91218254719206,49.29152554755956 C55.31846144508245,48.71320248613165 54.52936828988777,48.39460816290321 53.689611219611606,48.39460816290321 C52.8498541493359,48.39460816290321 52.06076099414145,48.71320248613165 51.46703989203138,49.29152554755956 L50.17730585080767,50.548681525704126 L51.61180158596994,51.94647824112971 L52.90132140345122,50.689322262985144 C53.11201045411872,50.484284245628146 53.391733105780304,50.371354169384716 53.689611219611606,50.371354169384716 C53.987489333443364,50.371354169384716 54.26699776136229,50.484492988837474 54.47768681202979,50.689322262985144 L56.99251288020264,53.13981098302395 C57.42701218576099,53.5632465831346 57.42701218576099,54.25246447451508 56.99251288020264,54.67584788882337 L52.02204005269914,59.519212203128035 C51.60071550729981,59.9290794946327 50.867052745455794,59.9290794946327 50.445728200056465,59.519212203128035 L47.93111635562582,57.0687234830892 C47.72064152870075,56.86337235091821 47.604746484053294,56.59085809114771 47.604746484053294,56.30080940179417 C47.604746484053294,56.01049978342894 47.72064152870075,55.73798552365844 47.93111635562582,55.53263439148745 L49.221064620592415,54.27589589976151 L47.786729553236455,52.878360113347554 L46.49662062046332,54.13509860507352 C45.90306018616093,54.71363040971073 45.57610119929609,55.48248383544774 45.57610119929609,56.30080940179417 C45.57610119929609,57.119030596535936 45.90306018616093,57.88798839387758 46.49662062046332,58.466520198514786 L49.01144668863685,60.91674798954196 C49.6051142348108,61.49533197998153 50.39426094594114,61.813874117407636 51.23401801621685,61.813874117407636 C52.073721530557805,61.813874117407636 52.86286824168769,61.49533197998153 53.45658934379753,60.91674798954196 L58.427062171300804,56.073435861039655 C59.65279686947747,54.879476889517434 59.65279686947747,52.93618198232991 58.427062171300804,51.742014267598364 L55.91218254719206,49.29152554755956 Z M55.91218254719206,49.29152554755956 "/></g></svg>