<?xml version="1.0" encoding="utf-8"?><svg xmlns="http://www.w3.org/2000/svg" xmlns:xlink="http://www.w3.org/1999/xlink" version="1.1" class="page" pageAlignment="none" x="0px" y="0px" width="150px" height="32px" viewBox="0 0 150 32" enable-background="new 0 0 150 32" xml:space="preserve"><defs/><style type="text/css"/><style type="text/css"/><g type="LAYER" name="workspace" id="workspace" locked="true"/><g transform="matrix(1 0 0 1 -19.897053603123936 -74.27666983222537)"><path width="51.163852122318644" height="19.80626780626784" stroke-width="0.31675446993478024" stroke-miterlimit="3" stroke="none" fill="#2A4875" d="M101.68619098331561,106.07154162709716 L101.68619098331561,102.06014561570115 C103.58030326081456,102.06014561570115 104.90389979207873,100.98892054447606 104.90389979207873,99.16555872111425 L104.90389979207873,93.19404874960429 C104.90389979207873,91.34789490345042 103.58030326081456,90.27666983222537 101.68619098331561,90.27666983222537 L101.68619098331561,86.26527382082935 C105.10928546072319,86.26527382082935 109.42238450225682,88.22538778094332 109.42238450225682,92.78379233934785 L109.42238450225682,99.55302310857863 C109.42238450225682,104.11142766698322 105.10928546072319,106.07154162709716 101.68619098331561,106.07154162709716 Z M68.57345707185965,94.62994618550172 C67.40960494954118,94.17410572966125 63.16496779755573,93.55872111427664 63.16496779755573,91.8037353592909 C63.16496779755573,90.5045900601456 64.76241188701255,90.13991769547323 65.72087834068662,90.13991769547323 C66.58806227496325,90.13991769547323 67.61499061818552,90.39062994618547 68.16268573457086,90.91484647040198 C68.50499518231152,91.25672681228232 68.66473959125716,91.48464704020256 68.77884274050416,91.78094333649886 C68.91576651960048,92.14561570117121 69.00704903899805,92.55587211142762 69.55474415538316,92.55587211142762 L72.38450225670681,92.55587211142762 C73.04630052233887,92.55587211142762 73.20604493128457,92.44191199746751 73.20604493128457,91.7353592909148 C73.20604493128457,87.95188350743902 69.21243470764239,86.26527382082935 65.53831330189172,86.26527382082935 C61.932653785688956,86.42481798037352 58.532379938130816,88.24817980373533 58.532379938130816,92.0088635644191 C58.532379938130816,95.63279518835071 61.20239363050871,96.79518835074387 64.12343425122981,97.70686926242479 C66.58806227496325,98.50459006014557 69.14397281809431,98.5273820829376 69.14397281809431,100.14561570117121 C69.14397281809431,101.74105729661281 67.86601754652872,102.10572966128515 66.31421471677066,102.10572966128515 C65.24164511384964,102.10572966128515 64.07779299153106,101.83222538778094 63.48445661544713,101.14846470402023 C63.11932653785698,100.71541627097179 62.95958212891122,100.32795188350738 62.936761499061845,99.96327951883504 C62.89112023936309,99.23393478949032 62.57163142147169,99.16555872111425 61.90983315583958,99.16555872111425 L59.102895684365365,99.16555872111425 C58.44109741873331,99.16555872111425 58.258532379938174,99.30231085786639 58.258532379938174,99.96327951883504 C58.258532379938174,103.99746755302306 62.41188701252611,106.07154162709716 66.01754652872876,106.07154162709716 C70.46756934935854,106.07154162709716 73.70809878797104,104.11142766698316 73.70809878797104,100.0316555872111 C73.70809878797104,96.11142766698319 70.65013438815362,95.26812282367837 68.57345707185965,94.62994618550172 L68.57345707185965,94.62994618550172 Z M101.68619098331561,86.26527382082935 L101.68619098331561,90.27666983222537 L101.66337035346623,90.27666983222537 C99.79207870581683,90.27666983222537 98.4684821745526,91.34789490345045 98.4684821745526,93.19404874960429 L98.4684821745526,99.16555872111428 C98.4684821745526,101.01171256726812 99.79207870581683,102.06014561570117 101.66337035346623,102.06014561570117 L101.68619098331561,102.06014561570117 L101.68619098331561,106.07154162709719 L101.66337035346623,106.07154162709719 C98.2402758760586,106.07154162709719 93.99563872407327,104.11142766698322 93.99563872407327,99.55302310857866 L93.99563872407327,92.78379233934788 C93.99563872407327,88.22538778094335 98.2402758760586,86.26527382082938 101.66337035346623,86.26527382082938 L101.68619098331561,86.26527382082938 L101.68619098331561,86.26527382082935 Z M90.526902986967,101.6043051598607 L81.33018915766525,101.6043051598607 L81.33018915766525,97.79803735359292 L89.06638267660634,97.79803735359292 C89.72818094223857,97.79803735359292 89.88792535118421,97.47894903450458 89.88792535118421,96.9775245330801 L89.88792535118421,94.72111427666985 C89.88792535118421,94.19689775245331 89.72818094223857,93.90060145615703 89.06638267660634,93.90060145615703 L81.33018915766525,93.90060145615703 L81.33018915766525,90.75530231085787 L90.02484913028047,90.75530231085787 C90.70946802576208,90.75530231085787 90.86921243470766,90.4590060145616 90.86921243470766,89.93478949034505 L90.86921243470766,87.54162709718267 C90.86921243470766,87.01741057296613 90.70946802576208,86.69832225387782 90.02484913028047,86.69832225387782 L77.61042649221577,86.69832225387782 C76.92580759673416,86.69832225387782 76.76606318778857,87.01741057296613 76.76606318778857,87.54162709718267 L76.76606318778857,104.79518835074393 C76.76606318778857,105.31940487496044 76.92580759673416,105.63849319404878 77.61042649221577,105.63849319404878 L90.526902986967,105.63849319404878 C91.18870125259912,105.63849319404878 91.37126629139414,105.31940487496044 91.37126629139414,104.79518835074393 L91.37126629139414,102.44761000316558 C91.37126629139414,101.92339347894904 91.18870125259912,101.6043051598607 90.526902986967,101.6043051598607 Z "/><path width="57.667731629392904" height="19.80626780626781" stroke-width="0.31675446993478024" stroke-miterlimit="3" stroke="none" fill="#9D9D9C" d="M126.92580759673422,95.06299461855014 L120.60449312845486,95.06299461855014 C119.9426948628228,95.06299461855014 119.76012982402773,95.38208293763847 119.76012982402773,95.90629946185499 L119.76012982402773,98.13991769547323 C119.76012982402773,98.66413421968974 119.9426948628228,98.98322253877805 120.60449312845486,98.98322253877805 L123.20604493128457,98.98322253877805 C123.20604493128457,101.19404874960426 121.8596277701709,102.06014561570115 119.98833612252145,102.06014561570115 C118.09422384502261,102.06014561570115 116.81626857345714,101.01171256726809 116.81626857345714,99.16555872111425 L116.81626857345714,93.39917695473247 C116.81626857345714,91.55302310857863 118.09422384502261,90.27666983222537 119.98833612252145,90.27666983222537 C121.92808965971909,90.27666983222537 122.95501800294136,91.14276669832222 123.27450682083281,92.0316555872111 C123.43425122977845,92.44191199746751 123.32014808053151,93.01171256726809 124.11887012525995,93.01171256726809 L126.92580759673422,93.01171256726809 C127.58760586236633,93.01171256726809 127.74735027131197,92.89775245330799 127.74735027131197,92.2139917695473 C127.74735027131197,88.33934789490343 123.59399563872421,86.26527382082935 119.98833612252145,86.26527382082935 C116.5880622749633,86.26527382082935 112.22932197373103,88.20259575815129 112.22932197373103,92.76100031655582 L112.22932197373103,99.8265273820829 C112.22932197373103,104.3393478949034 116.5880622749633,106.07154162709716 119.98833612252145,106.07154162709716 C123.27450682083281,106.07154162709716 127.49632334296876,104.2253877809433 127.74735027131197,100.07723963279514 L127.74735027131197,95.90629946185499 C127.74735027131197,95.38208293763847 127.58760586236633,95.06299461855014 126.92580759673422,95.06299461855014 L126.92580759673422,95.06299461855014 Z M131.9463461635986,86.69832225387779 L135.07277245296416,86.69832225387779 C135.4607231604037,86.69832225387779 135.75739134844576,86.9946185501741 135.75739134844576,87.38208293763847 L135.75739134844576,104.97752453308007 C135.75739134844576,105.34219689775242 135.4607231604037,105.63849319404878 135.07277245296416,105.63849319404878 L131.9463461635986,105.63849319404878 C131.55839545615908,105.63849319404878 131.26172726811706,105.34219689775244 131.26172726811706,104.97752453308007 L131.26172726811706,87.38208293763847 C131.26172726811706,86.9946185501741 131.55839545615908,86.69832225387779 131.9463461635986,86.69832225387779 L131.9463461635986,86.69832225387779 Z M152.41645113849586,86.69832225387779 L140.0020285004311,86.69832225387779 C139.34023023479898,86.69832225387779 139.18048582585334,87.0174105729661 139.18048582585334,87.54162709718264 L139.18048582585334,104.7951883507439 C139.18048582585334,105.31940487496044 139.34023023479898,105.63849319404872 140.0020285004311,105.63849319404872 L142.87742786145338,105.63849319404872 C143.5392261270856,105.63849319404872 143.6989705360313,105.52453308008862 143.6989705360313,104.77239632795187 L143.6989705360313,98.02595758151313 L151.20695775647857,98.02595758151313 C151.8687560221108,98.02595758151313 152.0513210609057,97.70686926242479 152.0513210609057,97.20544476100031 L152.0513210609057,94.92624248179803 C152.0513210609057,94.40202595758149 151.8687560221108,94.10572966128521 151.20695775647857,94.10572966128521 L143.6989705360313,94.10572966128521 L143.6989705360313,90.73251028806584 L152.41645113849586,90.73251028806584 C153.07824940412797,90.73251028806584 153.2608144429231,90.41342196897753 153.2608144429231,89.91199746755302 L153.2608144429231,87.54162709718264 C153.2608144429231,87.0174105729661 153.07824940412797,86.69832225387779 152.41645113849586,86.69832225387779 L152.41645113849586,86.69832225387779 Z M169.07551092854612,86.69832225387779 L155.6798012069578,86.69832225387779 C155.01800294132568,86.69832225387779 154.83543790253066,87.0174105729661 154.83543790253066,87.54162709718264 L154.83543790253066,89.93478949034503 C154.83543790253066,90.45900601456154 155.01800294132568,90.75530231085784 155.6798012069578,90.75530231085784 L160.1298240275877,90.75530231085784 L160.1298240275877,104.7951883507439 C160.1298240275877,105.47894903450458 160.44931284547897,105.63849319404869 160.9513667021655,105.63849319404869 L163.82676606318785,105.63849319404869 C164.32881991987426,105.63849319404869 164.64830873776566,105.47894903450452 164.64830873776566,104.7951883507439 L164.64830873776566,90.75530231085784 L169.07551092854612,90.75530231085784 C169.73730919417835,90.75530231085784 169.89705360312394,90.45900601456154 169.89705360312394,89.93478949034503 L169.89705360312394,87.54162709718264 C169.89705360312394,87.0174105729661 169.73730919417835,86.69832225387779 169.07551092854612,86.69832225387779 Z "/><path width="32.06298493838426" height="32" stroke-width="0.31675446993478024" stroke-miterlimit="3" stroke="none" fill="#2A4875" d="M42.078705816725005,74.27666983222537 L51.9600385415082,74.27666983222537 L51.9600385415082,91.37068692624246 L51.9600385415082,92.66983222538775 L45.50180029413258,92.66983222538775 C45.798468482174655,89.25102880658434 44.58897510015731,87.88350743906298 41.48536944064102,89.13706869262421 L41.48536944064102,87.76954732510285 C41.69075510928553,87.70117125672678 41.87332014808061,87.63279518835071 42.078705816725005,87.58721114276668 L42.078705816725005,74.27666983222537 L42.078705816725005,74.27666983222537 Z M41.48536944064102,94.47040202595755 C42.62640093311029,94.78949034504589 43.74461179573012,95.4048749604305 44.817181398651144,96.36213991769546 C44.976925807596785,95.72396327951881 45.11384958669311,95.1085786641342 45.22795273593994,94.53877809433365 L51.9600385415082,94.53877809433365 L51.9600385415082,95.81513137068691 L51.9600385415082,106.27666983222537 L42.078705816725005,106.27666983222537 L42.078705816725005,103.3137068692624 L41.48536944064102,103.45045900601454 L41.48536944064102,102.12852168407724 L41.827678888381854,102.06014561570117 C41.71357573913485,101.96897752453307 41.59947258988802,101.900601456157 41.48536944064102,101.80943336498893 L41.48536944064102,100.14561570117124 C41.6679344794361,100.32795188350744 41.87332014808061,100.48749604305158 42.078705816725005,100.64704020259572 L42.078705816725005,98.45900601456157 C41.87332014808061,98.41342196897753 41.6679344794361,98.3906299461855 41.48536944064102,98.34504590060146 L41.48536944064102,97.02310857866411 C42.28409148536946,97.20544476100034 43.26537856889291,97.31940487496044 44.49769258075975,97.38778094333651 C43.447943607688046,95.92909148464702 42.44383589431516,95.24533080088636 41.48536944064102,94.92624248179803 L41.48536944064102,94.47040202595755 Z M41.48536944064102,89.13706869262424 C40.91485369440642,89.34219689775244 40.321517318322435,89.63849319404875 39.636898422841,90.02595758151313 L39.636898422841,77.78664134219689 L40.86921243470766,77.78664134219689 L40.86921243470766,87.99746755302311 C41.07459810335223,87.90629946185501 41.27998377199657,87.83792339347895 41.48536944064102,87.76954732510288 L41.48536944064102,89.13706869262424 L41.48536944064102,89.13706869262424 Z M39.636898422841,94.17410572966125 C40.2530554287743,94.19689775245328 40.86921243470766,94.28806584362138 41.48536944064102,94.47040202595755 L41.48536944064102,94.926242481798 C40.84639180485834,94.7211142766698 40.23023479892504,94.65273820829373 39.636898422841,94.65273820829373 L39.636898422841,94.17410572966125 L39.636898422841,94.17410572966125 Z M41.48536944064102,103.45045900601454 L40.86921243470766,103.5872111427667 L40.86921243470766,106.27666983222537 L39.636898422841,106.27666983222537 L39.636898422841,102.51598607154162 L41.48536944064102,102.12852168407724 L41.48536944064102,103.45045900601454 L41.48536944064102,103.45045900601454 Z M41.48536944064102,97.02310857866411 L41.48536944064102,98.3450459006014 C41.257163142147306,98.29946185501737 41.07459810335223,98.25387780943333 40.86921243470766,98.20829376384933 L40.86921243470766,99.55302310857863 C41.05177747350274,99.75815131370683 41.257163142147306,99.96327951883504 41.48536944064102,100.14561570117121 L41.48536944064102,101.8094333649889 C40.7779299153101,101.30800886356437 40.16177290937679,100.73820829376382 39.636898422841,100.1000316555872 L39.636898422841,96.31655587211142 C40.16177290937679,96.61285216840773 40.755109285460776,96.8407723963279 41.48536944064102,97.02310857866411 Z M39.636898422841,90.02595758151313 C38.997920787058206,90.39062994618547 38.31330189157677,90.84647040202594 37.58304173639641,91.34789490345042 L37.58304173639641,94.33364988920542 C38.267660631878016,94.19689775245328 38.952279527359394,94.15131370686925 39.636898422841,94.17410572966125 L39.636898422841,94.65273820829373 C38.975100157208885,94.65273820829373 38.33612252142609,94.72111427666982 37.6971448856433,94.69832225387779 C38.33612252142609,95.38208293763847 38.929458897510074,95.90629946185499 39.636898422841,96.31655587211142 L39.636898422841,100.1000316555872 C38.60997007961873,98.84647040202597 37.90253055428781,97.36498892054445 37.44611795730009,95.67837923393478 C37.423297327450655,98.4362139917695 37.6971448856433,100.94333649889205 38.724073228865564,102.69832225387779 L39.636898422841,102.51598607154159 L39.636898422841,106.27666983222537 L35.734570718596274,106.27666983222537 L35.734570718596274,95.24533080088634 C36.25944520513218,95.24533080088634 36.784319691667974,95.04020259575813 37.286373548354504,94.60715416270969 L37.286373548354504,91.14276669832225 C36.76149906181854,90.75530231085787 36.23662457528275,90.57296612852167 35.734570718596274,90.57296612852167 L35.734570718596274,77.78664134219689 L39.636898422841,77.78664134219689 L39.636898422841,90.02595758151313 Z M35.734570718596274,106.27666983222537 L31.83224301435166,106.27666983222537 L31.83224301435166,102.51598607154162 L32.745068208326984,102.69832225387779 C33.77199655154925,100.94333649889205 34.04584410974189,98.43621399176956 34.02302347989257,95.6783792339348 C33.566610882904854,97.36498892054445 32.85917135757393,98.84647040202597 31.83224301435166,100.10003165558723 L31.83224301435166,96.31655587211145 C32.53968253968253,95.90629946185504 33.13301891576663,95.3820829376385 33.77199655154925,94.69832225387779 C33.13301891576663,94.72111427666985 32.494041279983776,94.65273820829375 31.83224301435166,94.65273820829375 L31.83224301435166,94.17410572966128 C32.51686190983327,94.15131370686925 33.2014808053147,94.19689775245331 33.90892033064557,94.33364988920545 L33.90892033064557,91.34789490345045 C33.15583954561589,90.84647040202594 32.47122065013451,90.3906299461855 31.83224301435166,90.02595758151313 L31.83224301435166,77.7866413421969 L35.734570718596274,77.7866413421969 L35.734570718596274,90.57296612852167 C35.20969623206048,90.57296612852167 34.68482174552463,90.75530231085787 34.182767888838214,91.14276669832225 L34.182767888838214,94.60715416270975 C34.70764237537401,95.04020259575816 35.20969623206048,95.24533080088639 35.734570718596274,95.24533080088639 L35.734570718596274,106.27666983222537 Z M31.83224301435166,106.27666983222537 L30.98787970992447,106.27666983222537 L30.98787970992447,103.65558721114277 L30.39454333384049,103.54162709718264 L30.39454333384049,102.21968977524534 L31.83224301435166,102.51598607154162 L31.83224301435166,106.27666983222537 L31.83224301435166,106.27666983222537 Z M30.39454333384049,94.35644191199745 C30.87377656067764,94.26527382082935 31.35300978751468,94.19689775245328 31.83224301435166,94.17410572966125 L31.83224301435166,94.65273820829373 C31.35300978751468,94.65273820829373 30.87377656067764,94.69832225387779 30.39454333384049,94.8122823678379 L30.39454333384049,94.35644191199745 L30.39454333384049,94.35644191199745 Z M31.83224301435166,90.02595758151313 C31.307368527815925,89.72966128521682 30.828135300978886,89.50174105729658 30.39454333384049,89.29661285216841 L30.39454333384049,87.90629946185501 C30.577108372635564,87.99746755302311 30.78249404127996,88.06584362139918 30.98787970992447,88.15701171256725 L30.98787970992447,77.78664134219689 L31.83224301435166,77.78664134219689 L31.83224301435166,90.02595758151313 L31.83224301435166,90.02595758151313 Z M31.83224301435166,96.31655587211142 L31.83224301435166,100.1000316555872 C31.398651047213434,100.62424817980374 30.91941782037628,101.08008863564419 30.39454333384049,101.51313706869257 L30.39454333384049,99.7809433364989 C30.599929002485,99.55302310857863 30.805314671129395,99.32510288065845 30.98787970992447,99.07439062994615 L30.98787970992447,98.0943336498892 C30.805314671129395,98.13991769547323 30.599929002485,98.20829376384933 30.39454333384049,98.25387780943333 L30.39454333384049,96.90914846470403 C30.942238450225716,96.77239632795184 31.398651047213434,96.56726812282363 31.83224301435166,96.31655587211142 Z M30.39454333384049,103.54162709718264 L29.77838632790713,103.40487496043053 L29.77838632790713,106.27666983222537 L19.897053603123936,106.27666983222537 L19.897053603123936,95.81513137068691 L19.897053603123936,94.53877809433365 L26.24118870125261,94.53877809433365 C26.355291850499555,95.1085786641342 26.492215629595876,95.72396327951884 26.651960038541517,96.36213991769546 C27.65606775191452,95.45045900601454 28.70581672498605,94.85786641342196 29.77838632790713,94.53877809433365 L29.77838632790713,94.53877809433365 L29.77838632790713,94.51598607154162 C29.983771996551525,94.47040202595755 30.189157665196035,94.40202595758149 30.39454333384049,94.35644191199745 L30.39454333384049,94.8122823678379 C29.29915310107009,95.06299461855014 28.158121608600823,95.74675530231085 26.971448856432914,97.38778094333651 C28.409148536944144,97.31940487496044 29.504538769714486,97.15986071541624 30.39454333384049,96.90914846470403 L30.39454333384049,98.25387780943333 C30.189157665196035,98.2994618550174 29.983771996551525,98.34504590060146 29.77838632790713,98.3906299461855 L29.77838632790713,100.35074390629947 C30.00659262640096,100.16840772396327 30.189157665196035,99.9632795188351 30.39454333384049,99.7809433364989 L30.39454333384049,101.51313706869257 C30.14351640549728,101.6954732510288 29.89248947715413,101.87780943336497 29.641462548810807,102.06014561570117 L30.39454333384049,102.21968977524534 L30.39454333384049,103.54162709718264 L30.39454333384049,103.54162709718264 Z M30.39454333384049,89.29661285216841 C26.971448856432914,87.76954732510288 25.647852325168685,89.09148464704018 25.967341143060082,92.66983222538778 L19.897053603123936,92.66983222538778 L19.897053603123936,91.37068692624248 L19.897053603123936,81.29661285216841 L29.77838632790713,81.29661285216841 L29.77838632790713,87.70117125672681 C29.983771996551525,87.76954732510288 30.189157665196035,87.83792339347895 30.39454333384049,87.90629946185501 L30.39454333384049,89.29661285216841 Z "/><path width="32.06298493838426" height="14.004695156695163" stroke-width="0.31675446993478024" stroke-miterlimit="3" stroke="none" fill="#FFFFFF" d="M39.77382220193732,102.49319404874956 L39.77382220193732,100.25957581513137 C40.34433794817181,100.92054447610002 41.02895684365342,101.53592909148463 41.827678888381854,102.06014561570117 L39.77382220193732,102.49319404874956 L39.77382220193732,102.49319404874956 Z M39.77382220193732,96.38493194048749 L39.77382220193732,94.65273820829375 C41.257163142147306,94.67553023108579 42.831786601754686,95.06299461855016 44.49769258075975,97.38778094333651 C42.23845022567082,97.27382082937638 40.84639180485834,96.97752453308007 39.77382220193732,96.38493194048749 L39.77382220193732,96.38493194048749 Z M39.77382220193732,94.17410572966125 C41.5081900704904,94.28806584362138 43.21973730919433,94.926242481798 44.817181398651144,96.36213991769546 C44.976925807596785,95.72396327951878 45.11384958669311,95.1085786641342 45.22795273593994,94.53877809433362 L51.9600385415082,94.53877809433362 L51.9600385415082,92.66983222538775 L45.50180029413258,92.66983222538775 C45.84410974187347,88.68122823678377 44.155383133018915,87.49604305159858 39.77382220193732,89.95758151313706 L39.77382220193732,94.17410572966125 Z M33.90892033064557,91.34789490345042 L33.90892033064557,94.33364988920542 C33.17866017546538,94.19689775245328 32.47122065013451,94.15131370686925 31.763781124803472,94.17410572966125 L31.763781124803472,90.0031655587211 C32.4255793904357,90.36783792339347 33.13301891576663,90.82367837923391 33.90892033064557,91.34789490345042 L33.90892033064557,91.34789490345042 Z M39.77382220193732,89.95758151313706 L39.77382220193732,94.17410572966125 C39.04356204675696,94.15131370686925 38.31330189157677,94.19689775245328 37.58304173639641,94.33364988920542 L37.58304173639641,91.34789490345042 C38.35894315127541,90.80088635644188 39.089203306455715,90.34504590060143 39.77382220193732,89.95758151313706 L39.77382220193732,89.95758151313706 Z M39.77382220193732,94.65273820829373 L39.77382220193732,96.38493194048746 C38.997920787058206,95.97467553023105 38.35894315127541,95.40487496043048 37.6971448856433,94.69832225387779 C38.35894315127541,94.72111427666982 39.06638267660645,94.65273820829373 39.77382220193732,94.65273820829373 L39.77382220193732,94.65273820829373 Z M39.77382220193732,100.25957581513137 C38.65561133931743,98.96043051598608 37.92535118413713,97.43336498892054 37.44611795730009,95.6783792339348 C37.423297327450655,98.43621399176956 37.6971448856433,100.94333649889205 38.724073228865564,102.69832225387779 L39.77382220193732,102.49319404874956 L39.77382220193732,100.25957581513137 L39.77382220193732,100.25957581513137 Z M31.763781124803472,102.49319404874956 L31.763781124803472,100.16840772396327 C32.83635072772455,98.91484647040204 33.566610882904854,97.38778094333651 34.02302347989257,95.67837923393478 C34.04584410974189,98.4362139917695 33.77199655154925,100.94333649889205 32.745068208326984,102.69832225387779 L31.763781124803472,102.49319404874956 L31.763781124803472,102.49319404874956 Z M31.763781124803472,96.36213991769546 C32.51686190983327,95.95188350743908 33.13301891576663,95.38208293763847 33.77199655154925,94.69832225387779 C33.110198285917136,94.72111427666985 32.44840002028502,94.65273820829375 31.763781124803472,94.65273820829375 L31.763781124803472,96.36213991769546 L31.763781124803472,96.36213991769546 Z M34.182767888838214,91.14276669832225 C35.18687560221116,90.36783792339347 36.213803945433426,90.3906299461855 37.286373548354504,91.14276669832225 L37.286373548354504,94.60715416270972 C36.2822658349815,95.45045900601454 35.232516861909914,95.45045900601454 34.182767888838214,94.60715416270972 L34.182767888838214,91.14276669832225 Z M31.763781124803472,94.17410572966125 C31.101982859171358,94.21968977524531 30.440184593539243,94.31085786641341 29.77838632790713,94.51598607154159 L29.77838632790713,94.53877809433362 L29.77838632790713,94.53877809433362 C28.70581672498605,94.85786641342193 27.65606775191452,95.45045900601454 26.651960038541517,96.36213991769546 C26.492215629595876,95.72396327951878 26.355291850499555,95.1085786641342 26.24118870125261,94.53877809433362 L19.897053603123936,94.53877809433362 L19.897053603123936,92.66983222538775 L25.967341143060082,92.66983222538775 C25.62503169531925,88.65843621399173 27.336578934023066,87.47325102880657 31.763781124803472,90.0031655587211 L31.763781124803472,94.17410572966125 L31.763781124803472,94.17410572966125 Z M31.763781124803472,94.65273820829373 C30.257619554744167,94.67553023108576 28.660175465287296,95.04020259575813 26.971448856432914,97.38778094333648 C29.276332471220655,97.27382082937635 30.668390892033074,96.95473251028804 31.763781124803472,96.36213991769546 L31.763781124803472,94.65273820829373 L31.763781124803472,94.65273820829373 Z M31.763781124803472,100.16840772396327 L31.763781124803472,102.49319404874956 L29.641462548810807,102.06014561570117 C30.463005223388677,101.51313706869257 31.170444748719547,100.89775245330799 31.763781124803472,100.16840772396327 Z "/></g></svg>