<?xml version="1.0" encoding="utf-8"?><svg xmlns="http://www.w3.org/2000/svg" xmlns:xlink="http://www.w3.org/1999/xlink" version="1.1" class="page" pageAlignment="none" x="0px" y="0px" width="46px" height="30px" viewBox="0 0 46 30" enable-background="new 0 0 46 30" xml:space="preserve"><defs/><style type="text/css"/><style type="text/css"/><g type="LAYER" name="workspace" id="workspace" locked="true"/><g transform="matrix(1 0 0 1 -986.5224973994648 -1002.271097298588)"><path transform="matrix(1 0 0 1 2.8421709430404007e-13 2.2737367544323206e-13)" width="45.99999999999966" height="30" stroke-width="1.0213134687553607" stroke-miterlimit="3" stroke="none" fill="#FFFFFF" d="M998.7781687802941,1015.2819234315749 C997.9189075537262,1015.2819234315749 997.2591904034708,1015.5616269936118 997.2591904034708,1015.5616269936118 L997.0759356395109,1016.6507291417624 C997.0759356395109,1016.6507291417624 997.6206095212809,1016.4263515590295 998.4442378770785,1016.4263515590295 C998.9135736892198,1016.4263515590295 999.2556492486118,1016.4786038728166 999.2556492486118,1016.8628120624277 C999.2556492486118,1017.0953860865388 999.2159440497541,1017.1834978313564 999.2159440497541,1017.1834978313564 C999.2159440497541,1017.1834978313564 998.8453621937462,1017.1517366210153 998.6753424960724,1017.1517366210153 C997.5849766505111,1017.1517366210153 996.4437067038497,1017.6158601140653 996.4437067038497,1019.0246234759722 C996.4437067038497,1020.137290393086 997.1909789079972,1020.3893309654707 997.657260474073,1020.3893309654707 C998.5440099152341,1020.3893309654707 998.9298630015722,1019.8094327379512 998.9492065599903,1019.8094327379512 L998.9054290330442,1020.2930227792747 L1000.0151384370237,1020.2930227792747 L1000.5078901356709,1016.812608858985 C1000.503817807583,1015.3300775246729 999.2240887059298,1015.2819234315749 998.7781687802941,1015.2819234315749 L998.7781687802941,1015.2819234315749 Z M998.1581568288963,1019.3278918069718 C997.7682314144705,1019.3278918069718 997.6684593763147,1019.0276971414892 997.6684593763147,1018.8514736518545 C997.6684593763147,1018.5021003381014 997.8557864683625,1018.0871554933215 998.7740964522058,1018.0871554933215 C998.9889117588478,1018.0871554933215 999.0133457273758,1018.1107202622845 999.0489785981457,1018.1178921484902 C999.0723944846517,1018.3309996243279 998.9176460173079,1019.3278918069718 998.1581568288963,1019.3278918069718 L998.1581568288963,1019.3278918069718 Z M1002.086935351792,1016.8628120624277 C1002.086935351792,1017.4949626037343 1003.5824978421089,1017.1834978313564 1003.5824978421089,1018.7551654656585 C1003.5824978421089,1020.4374850585687 1001.9637474271298,1020.3647416413355 1001.6817387070365,1020.3647416413355 C1000.6270057322453,1020.3647416413355 1000.3012194852053,1020.2161811413525 1000.2737312706112,1020.2079846999742 L1000.4406967222191,1019.0994160035499 C1000.4406967222191,1019.0922441173437 1000.9690812916364,1019.2961305966307 1001.5585507823743,1019.2961305966307 C1001.8965540136779,1019.2961305966307 1002.3333112011156,1019.2602711656003 1002.3333112011156,1018.8555718725436 C1002.3333112011156,1018.241863324338 1000.7624106411707,1018.3914483794935 1000.7624106411707,1016.9427273658669 C1000.7624106411707,1015.6620334004967 1001.7051545935423,1015.2901198729533 1002.6356815616499,1015.2901198729533 C1003.3513932231152,1015.2901198729533 1003.7932408206633,1015.3895017246659 1003.7932408206633,1015.3895017246659 L1003.6344200252314,1016.5062668624687 C1003.6344200252314,1016.5062668624687 1002.9543412345355,1016.4468426624754 1002.7792311267518,1016.4468426624754 C1002.329238873028,1016.4499163279924 1002.086935351792,1016.5462245141883 1002.086935351792,1016.8628120624277 L1002.086935351792,1016.8628120624277 Z M1005.0699156762504,1018.787951231172 C1005.0414093796347,1018.9600765001178 1005.0902773166905,1019.1957241897458 1005.5270345041284,1019.1957241897458 C1005.6380054445261,1019.1957241897458 1005.7652656972758,1019.1557665380262 1005.852820751168,1019.1557665380262 L1005.6939999557361,1020.2325740241093 C1005.5667397029862,1020.2684334551398 1005.2083748312424,1020.3965028516768 1004.7512560033648,1020.4006010723659 C1004.1668769227371,1020.4046992930552 1003.7494632937174,1020.0727434172313 1003.7494632937174,1019.3278918069718 C1003.7494632937174,1018.8238106622024 1004.4651749551828,1014.693828762677 1004.4926631697766,1014.6651412178528 L1005.7499944669463,1014.6651412178528 L1005.6227342141964,1015.4017963867336 L1006.2468184936821,1015.4017963867336 L1006.0879976982502,1016.5943786072863 L1005.4231901378845,1016.5943786072863 L1005.0699156762504,1018.787951231172 Z M1009.9170041829897,1018.2633789829563 C1009.9170041829897,1018.2633789829563 1010.0849877166196,1017.4427102899473 1010.0849877166196,1017.1107544141234 C1010.0849877166196,1016.2777910590466 1009.6706283336656,1015.261432328129 1008.2911271938568,1015.261432328129 C1007.0266693225334,1015.261432328129 1006.0920700263376,1016.6343362590057 1006.0920700263376,1018.1834636795172 C1006.0920700263376,1019.968238789657 1007.2649005156815,1020.3924046309876 1008.2626208972405,1020.3924046309876 C1009.1860212911942,1020.3924046309876 1009.5912179359499,1020.1885181517007 1009.5912179359499,1020.1885181517007 L1009.8141778987682,1018.967248386324 C1009.8141778987682,1018.967248386324 1009.1106832215661,1019.2766640483571 1008.4774362038826,1019.2766640483571 C1007.1294956067551,1019.2766640483571 1007.3646725538377,1018.2644035381287 1007.3646725538377,1018.2644035381287 L1009.9170041829897,1018.2644035381287 Z M1008.2951995219447,1016.3945903486884 C1009.0068388553221,1016.3945903486884 1008.8755062744841,1017.1988661589409 1008.8755062744841,1017.2634131347954 L1007.4797158223233,1017.2634131347954 C1007.4797158223233,1017.1793996106674 1007.6110484031609,1016.3945903486884 1008.2951995219447,1016.3945903486884 L1008.2951995219447,1016.3945903486884 Z M996.8967532036392,1014.2727365868633 L995.9031051501676,1020.2991701103085 L994.6182856384045,1020.2991701103085 L995.33399729987,1015.7573170315204 L993.719319212979,1020.2991701103085 L992.8529314122574,1020.2991701103085 L992.7409423898372,1015.7573170315204 L991.97330854525,1020.2991701103085 L990.7607728570484,1020.2991701103085 L991.7666378947839,1014.2727365868633 L993.6002036164051,1014.2727365868633 L993.668415111879,1017.9713807588521 L994.9043666865863,1014.2727365868633 L996.8967532036392,1014.2727365868633 Z M1012.7971582232266,1013.4807554386787 L1006.2702343801876,1013.4807554386787 C1006.3343735475738,1013.3567842628308 1006.5614058384796,1012.8608995594394 1006.9065356439372,1012.208257914687 L1012.2881172122269,1012.208257914687 C1012.4784985503403,1012.6201290939499 1012.6495363300361,1013.0442949352803 1012.7971582232266,1013.4807554386787 L1012.7971582232266,1013.4807554386787 Z M1011.6080384215308,1010.9593251596582 L1007.6029037469849,1010.9593251596582 C1007.8614965805729,1010.5310610976384 1008.1435053006666,1010.0946005942402 1008.4458756612006,1009.6868276356665 L1010.688710355665,1009.6868276356665 C1011.022641258881,1010.0905023735509 1011.3290839475031,1010.5146682148816 1011.6080384215308,1010.9593251596582 L1011.6080384215308,1010.9593251596582 Z M1009.5199521944102,1026.0838086130918 C1009.0821769249502,1025.6832075407242 1008.6851249363705,1025.2426488166368 1008.3104707522751,1024.7815989891037 L1010.748777194963,1024.7815989891037 C1010.3792134209772,1025.2385505959478 1009.9811433503756,1025.6627164372783 1009.5515127370921,1026.0540965130954 L1009.547440409004,1026.0540965130954 C1009.547440409004,1026.0581947337846 1009.547440409004,1026.0581947337846 1009.547440409004,1026.0581947337846 C1009.5392957528278,1026.0684402855074 1009.5280968505862,1026.0756121717136 1009.5199521944102,1026.0838086130918 L1009.5199521944102,1026.0838086130918 Z M1011.6192373237728,1023.5582801133825 L1007.4318659672891,1023.5582801133825 C1007.1773454617893,1023.1505071548086 1006.9391142686414,1022.7283904238227 1006.7354978642414,1022.2898808100798 L1012.3074607706441,1022.2898808100798 C1012.1048624482665,1022.7253167583056 1011.8737578292727,1023.1505071548086 1011.6192373237728,1023.5582801133825 L1011.6192373237728,1023.5582801133825 Z M1013.1147998140899,1015.3577405143247 C1012.9478343624822,1015.6978928315272 1012.800212469292,1016.0144803797665 1012.6454640019484,1016.822854410708 C1011.7750038731384,1016.5144633038469 1011.7067923776648,1018.2152248898583 1011.341300931767,1020.3083911068594 L1010.0483367638275,1020.3083911068594 L1010.8322599207673,1015.4058946074227 L1012.0050904101105,1015.4058946074227 L1011.8941194697128,1016.1138622314794 C1011.8941194697128,1016.1138622314794 1012.3074607706441,1015.3413476315682 1012.872496292854,1015.3413476315682 C1013.0353894163737,1015.3413476315682 1013.1147998140899,1015.3577405143247 1013.1147998140899,1015.3577405143247 L1013.1147998140899,1015.3577405143247 Z M1015.4411172343588,1019.1639629794048 C1015.8626031914665,1019.1639629794048 1016.479560896798,1018.8514736518545 1016.479560896798,1018.8514736518545 L1016.2566009339802,1020.2325740241093 C1016.2566009339802,1020.2325740241093 1015.5805944713726,1020.4046992930552 1015.1550361861767,1020.4046992930552 C1013.6554013677716,1020.4046992930552 1012.891839851272,1019.3637512380025 1012.891839851272,1017.7869608278387 C1012.891839851272,1015.405894607423 1014.3079919438729,1014.1405689696373 1015.7557045791565,1014.1405689696373 C1016.4123674833457,1014.1405689696373 1017.1718566717574,1014.447935521326 1017.1718566717574,1014.447935521326 L1016.9692583493796,1015.7890782418615 C1016.9692583493796,1015.7890782418615 1016.4520726822042,1015.4243366005242 1015.8116990903665,1015.4243366005242 C1014.960582519975,1015.4243366005242 1014.1929486753874,1016.2491035142225 1014.1929486753874,1017.7418804002576 C1014.1929486753874,1018.4795601243109 1014.5502954651089,1019.1639629794048 1015.4411172343588,1019.1639629794048 L1015.4411172343588,1019.1639629794048 Z M1027.7140960095612,1019.6004234828027 C1027.649956842176,1019.6321846931439 1027.603125069164,1019.6803387862417 1027.57054644446,1019.7438612069241 C1027.5349135736901,1019.8053345172618 1027.5186242613381,1019.867832382772 1027.5186242613381,1019.9364775793159 C1027.5186242613381,1019.9999999999982 1027.5349135736897,1020.0645469758527 1027.57054644446,1020.123971175846 C1027.6021069871422,1020.1885181517007 1027.649956842176,1020.2325740241093 1027.710023681474,1020.2694580103121 C1027.7741628488593,1020.3001946654808 1027.833211606136,1020.3217103240992 1027.9014231016095,1020.3217103240992 C1027.9655622689957,1020.3217103240992 1028.0286833543591,1020.3001946654808 1028.0928225217453,1020.2694580103121 C1028.1528893610434,1020.2335985792818 1028.199721134055,1020.189542706873 1028.2322997587598,1020.123971175846 C1028.2679326295297,1020.0645469758527 1028.2842219418808,1019.9999999999982 1028.2842219418808,1019.9364775793159 C1028.2842219418808,1019.867832382772 1028.2679326295297,1019.8043099620895 1028.2322997587598,1019.7438612069241 C1028.1966668879895,1019.6803387862417 1028.1488170329558,1019.6332092483162 1028.0887501936577,1019.6004234828027 C1028.0286833543591,1019.5676377172892 1027.9655622689957,1019.5522693897047 1027.9014231016095,1019.5522693897047 C1027.8372839342237,1019.5522693897047 1027.7741628488593,1019.5676377172892 1027.7140960095612,1019.6004234828027 L1027.7140960095612,1019.6004234828027 Z M1028.1752871655272,1019.7766469724377 C1028.2027753801217,1019.8237765103635 1028.2190646924737,1019.8811516000117 1028.2190646924737,1019.9323793586266 C1028.2190646924737,1019.9887298931029 1028.2027753801217,1020.0440558724068 1028.1752871655272,1020.0922099655048 C1028.147798950934,1020.1444622792922 1028.108093752075,1020.1844199310113 1028.0602438970413,1020.211058365491 C1028.0083217139195,1020.2397459103153 1027.9563995307972,1020.2551142378998 1027.9014231016095,1020.2551142378998 C1027.8464466724213,1020.2551142378998 1027.7945244892999,1020.2397459103153 1027.742602306178,1020.211058365491 C1027.6906801230552,1020.1844199310113 1027.6550472522858,1020.1444622792919 1027.6234867096036,1020.0922099655048 C1027.59599849501,1020.0389330965454 1027.5837815107461,1019.9877053379305 1027.5837815107461,1019.9323793586266 C1027.5837815107461,1019.8801270448396 1027.59599849501,1019.8237765103635 1027.6275590376922,1019.7766469724377 C1027.6550472522858,1019.7243946586503 1027.6947524511438,1019.6844370069309 1027.7466746342661,1019.6557494621067 C1027.798596817387,1019.629111027627 1027.8505190005098,1019.615791810387 1027.9014231016095,1019.615791810387 C1027.957417612819,1019.615791810387 1028.0052674678532,1019.629111027627 1028.0561715689537,1019.6557494621067 C1028.108093752075,1019.6844370069309 1028.147798950934,1019.7202964379613 1028.1752871655272,1019.7766469724377 L1028.1752871655272,1019.7766469724377 Z M1023.0726600712663,1018.3197295174327 C1023.0726600712663,1019.3555547966239 1023.581701082266,1020.3688398620247 1024.6313436469477,1020.3688398620247 C1025.3826881791833,1020.3688398620247 1025.8001018082027,1019.8442676138092 1025.8001018082027,1019.8442676138092 L1025.7441072969928,1020.2919982241026 L1026.96478764137,1020.2919982241026 L1027.9268751521595,1014.2768348075529 L1026.6664896089246,1014.2809330282419 L1026.3956797910728,1015.9745227280471 C1026.3956797910728,1015.9745227280471 1025.922271650843,1015.3136846419162 1025.1831441028712,1015.3136846419162 C1024.03169333599,1015.3136846419162 1023.0726600712663,1016.715276117617 1023.0726600712663,1018.3197295174327 L1023.0726600712663,1018.3197295174327 Z M1026.0831286103185,1017.5789761278627 C1026.0831286103185,1018.2459615450273 1025.7532700351912,1019.1383491000972 1025.0731912444953,1019.1383491000972 C1024.6242170727937,1019.1383491000972 1024.4094017661514,1018.7582391311756 1024.4094017661514,1018.1578498002099 C1024.4094017661514,1017.1783750554949 1024.847177035611,1016.5298316314314 1025.3999955735571,1016.5298316314314 C1025.8530420733464,1016.5339298521208 1026.0831286103185,1016.8474437348432 1026.0831286103185,1017.5789761278627 L1026.0831286103185,1017.5789761278627 Z M1028.127437310493,1023.9189235340303 C1028.1192926543172,1023.906628871963 1028.1070756700533,1023.8984324305844 1028.0958767678112,1023.8953587650676 C1028.127437310493,1023.8912605443785 1028.1600159351979,1023.8779413271385 1028.1793594936157,1023.8594993340373 C1028.199721134055,1023.8349100099022 1028.210920036297,1023.8113452409393 1028.210920036297,1023.7795840305982 C1028.210920036297,1023.75806837198 1028.2027753801217,1023.7396263788786 1028.1905583958574,1023.7191352754329 C1028.1783414115935,1023.698644171987 1028.1630701812628,1023.6873740650917 1028.138636212735,1023.6791776237133 C1028.1182745722954,1023.6699566271625 1028.0826417015255,1023.6658584064735 1028.0347918464913,1023.6658584064735 L1027.89124228139,1023.6658584064735 L1027.89124228139,1024.0787541409086 L1027.9584356948417,1024.0787541409086 L1027.9584356948417,1023.9025306512738 L1027.9981408936992,1023.9025306512738 C1028.0215567802056,1023.9025306512738 1028.0378460925576,1023.910727092652 1028.050063076822,1023.9189235340303 C1028.0704247172616,1023.9312181960979 1028.0938406037676,1023.9619548512669 1028.1213288183612,1024.014207165054 L1028.156961689131,1024.0787541409086 L1028.236372086847,1024.0787541409086 L1028.1885222318137,1023.9988388374695 C1028.1630701812633,1023.95888118575 1028.147798950934,1023.9353164167873 1028.127437310493,1023.9189235340303 L1028.127437310493,1023.9189235340303 Z M1028.0398822566017,1023.8472046719696 L1027.9604718588857,1023.8472046719696 L1027.9604718588857,1023.7232334961219 L1028.0358099285131,1023.7232334961219 C1028.0673704711953,1023.7232334961219 1028.0918044397235,1023.727331716811 1028.1030033419652,1023.7314299375003 C1028.1142022442073,1023.7355281581895 1028.1233649824057,1023.7437245995678 1028.1304915565597,1023.7508964857739 C1028.1345638846478,1023.7642157030137 1028.138636212735,1023.7724121443921 1028.138636212735,1023.7836822512875 C1028.138636212735,1023.8041733547332 1028.1304915565597,1023.8195416823177 1028.1182745722958,1023.8318363443855 C1028.1040214239874,1023.8420818961081 1028.0795874554597,1023.8472046719696 1028.0398822566017,1023.8472046719696 L1028.0398822566017,1023.8472046719696 Z M1031.337449925858,1002.2710972985876 L987.7075448730722,1002.2710972985876 C987.0519000509047,1002.2710972985876 986.5224973994649,1002.8028414330095 986.5224973994649,1003.4636795191402 L986.5224973994649,1031.0826132987243 C986.5224973994649,1031.7383286089937 987.0519000509047,1032.2710972985876 987.7075448730722,1032.2710972985876 L1031.337449925858,1032.2710972985876 C1031.9941128300466,1032.2710972985876 1032.5224973994646,1031.7373040538214 1032.5224973994646,1031.0826132987243 L1032.5224973994646,1003.4636795191402 C1032.5224973994646,1002.8028414330095 1031.9930947480257,1002.2710972985876 1031.337449925858,1002.2710972985876 L1031.337449925858,1002.2710972985876 Z M1028.3941748002571,1024.059287592635 C1028.3585419294873,1024.1197363478004 1028.3106920744535,1024.166865885726 1028.2506252351554,1024.1996516512393 C1028.1905583958578,1024.23551108227 1028.127437310493,1024.2519039650265 1028.0592258150195,1024.2519039650265 C1027.9950866476338,1024.2519039650265 1027.9319655622694,1024.23551108227 1027.8718987229713,1024.1996516512393 C1027.8118318836732,1024.1678904408982 1027.7650001106617,1024.1197363478004 1027.72834915787,1024.059287592635 C1027.6967886151879,1023.9988388374695 1027.6764269747482,1023.9353164167873 1027.6764269747482,1023.8666712202433 C1027.6764269747482,1023.7980260236994 1027.6967886151874,1023.7386018237064 1027.72834915787,1023.6740548478516 C1027.76398202864,1023.6136060926865 1027.8118318836732,1023.5664765547606 1027.8718987229713,1023.5336907892471 C1027.936037890358,1023.4968068030446 1027.9950866476338,1023.48143847546 1028.0592258150195,1023.48143847546 C1028.1264192284711,1023.48143847546 1028.1864860677692,1023.5019295789059 1028.2506252351554,1023.5336907892471 C1028.3106920744535,1023.5654519995885 1028.357523847465,1023.6136060926865 1028.3901024721695,1023.6740548478516 C1028.4257353429398,1023.7386018237064 1028.4420246552909,1023.8021242443887 1028.4420246552909,1023.8666712202433 C1028.4420246552909,1023.9312181960979 1028.4257353429398,1023.9988388374695 1028.3941748002571,1024.059287592635 L1028.3941748002571,1024.059287592635 Z M1029.2452913706488,1017.2716095761738 C1029.2493636987374,1023.8338854547299 1023.9634818405158,1029.1544004644632 1017.4416484075876,1029.1584986851524 C1014.3955469977651,1029.1584986851524 1011.6110926675968,1027.9935794542519 1009.5199521944102,1026.0848331682641 C1007.4237213111134,1027.9894812335624 1004.6484297191429,1029.1544004644632 1001.605382555386,1029.1544004644632 C995.0876214505457,1029.1544004644632 989.7986853462593,1023.8318363443852 989.7986853462593,1017.2716095761738 C989.7986853462593,1010.7400703527866 995.047916251688,1005.4328745602933 1001.5300444857586,1005.3888186878845 L1001.605382555386,1005.3888186878845 C1004.6484297191429,1005.3888186878845 1007.4237213111134,1006.5527133636127 1009.5199521944102,1008.4583859840834 C1011.6121107496186,1006.5527133636127 1014.3914746696772,1005.3888186878845 1017.4375760794993,1005.3888186878845 C1023.9594095124281,1005.3847204671953 1029.2452913706488,1010.7042109217564 1029.2452913706488,1017.2675113554848 L1029.2452913706488,1017.2716095761738 L1029.2452913706488,1017.2716095761738 Z M1027.7334395679795,1019.7325911000289 L1027.7334395679795,1020.1444622792922 L1027.8006329814316,1020.1444622792922 L1027.8006329814316,1019.9723370103463 L1027.8362658522014,1019.9723370103463 C1027.8596817387074,1019.9723370103463 1027.880043379148,1019.9764352310353 1027.8922603634119,1019.9846316724137 C1027.908549675763,1019.9999999999982 1027.931965562269,1020.0286875448223 1027.9594537768635,1020.0840135241262 L1027.9950866476338,1020.1485604999809 L1028.078569373437,1020.1485604999809 L1028.026647190316,1020.0645469758527 C1028.00323130381,1020.0286875448223 1027.9828696633695,1019.9999999999982 1027.966580351018,1019.9846316724137 C1027.9584356948417,1019.9764352310353 1027.9462187105778,1019.968238789657 1027.930947480248,1019.9641405689678 C1027.966580351018,1019.9600423482784 1027.9950866476338,1019.9477476862111 1028.0144302060517,1019.9241829172483 C1028.0378460925576,1019.9036918138024 1028.050063076822,1019.8760288241506 1028.050063076822,1019.8483658344984 C1028.050063076822,1019.8237765103635 1028.0419184206448,1019.8043099620897 1028.029701436381,1019.7868925241607 C1028.0134121240299,1019.7674259758869 1027.9981408936992,1019.7520576483026 1027.97777925326,1019.7479594276134 C1027.954363366754,1019.7346402103736 1027.9217847420496,1019.7315665448567 1027.8739348870158,1019.7315665448567 L1027.7334395679795,1019.7315665448567 Z M1027.968616515061,1019.8207028448463 C1027.9767611712377,1019.8278747310526 1027.980833499325,1019.837095727603 1027.980833499325,1019.8524640551875 C1027.980833499325,1019.867832382772 1027.9726888431496,1019.8842252655286 1027.9604718588857,1019.8965199275963 C1027.9441825465333,1019.9077900344914 1027.9207666600273,1019.9118882551807 1027.8810614611698,1019.9118882551807 L1027.8016510634538,1019.9118882551807 L1027.8016510634538,1019.7879170793328 L1027.8769891330812,1019.7879170793328 C1027.908549675763,1019.7879170793328 1027.928911316204,1019.7930398551943 1027.9441825465333,1019.7971380758836 C1027.95232720271,1019.8002117414004 1027.9645441869739,1019.8084081827787 1027.968616515061,1019.8207028448463 L1027.968616515061,1019.8207028448463 Z M1019.1560985326345,1015.2819234315749 C1018.2927649779789,1015.2819234315749 1017.6330478277233,1015.5616269936118 1017.6330478277233,1015.5616269936118 L1017.4497930637637,1016.6507291417624 C1017.4497930637637,1016.6507291417624 1017.9944669455332,1016.4263515590295 1018.8221676294189,1016.4263515590295 C1019.2874311134723,1016.4263515590295 1019.6335790009522,1016.4786038728166 1019.6335790009522,1016.8628120624277 C1019.6335790009522,1017.0953860865388 1019.5898014740063,1017.1834978313564 1019.5898014740063,1017.1834978313564 C1019.5898014740063,1017.1834978313564 1019.2202377000204,1017.1517366210153 1019.0491999203247,1017.1517366210153 C1017.963924484873,1017.1517366210153 1016.82163645619,1017.6158601140653 1016.82163645619,1019.0246234759722 C1016.82163645619,1020.137290393086 1017.568908660338,1020.3893309654707 1018.0341721443912,1020.3893309654707 C1018.920921585553,1020.3893309654707 1019.3027023438025,1019.8094327379512 1019.3230639842426,1019.8094327379512 L1019.2792864572965,1020.2930227792747 L1020.3889958612757,1020.2930227792747 L1020.8817475599236,1016.812608858985 C1020.8817475599236,1015.3300775246729 1019.601000376248,1015.2819234315749 1019.1560985326345,1015.2819234315749 L1019.1560985326345,1015.2819234315749 Z M1018.5350684992148,1019.3278918069718 C1018.1451430847895,1019.3278918069718 1018.046389128655,1019.0276971414892 1018.046389128655,1018.8514736518545 C1018.046389128655,1018.5021003381014 1018.2337162207031,1018.0871554933215 1019.1520262045464,1018.0871554933215 C1019.3668415111885,1018.0871554933215 1019.3902573976944,1018.1107202622845 1019.4269083504865,1018.1178921484902 C1019.4503242369925,1018.3309996243279 1019.2945576876265,1019.3278918069718 1018.5350684992148,1019.3278918069718 L1018.5350684992148,1019.3278918069718 Z M1023.1999203240163,1016.822854410708 C1022.3294601952065,1016.5144633038469 1022.2612486997331,1018.2111266691693 1021.8916849257474,1020.3083911068594 L1020.6027930858955,1020.3083911068594 L1021.3867162428354,1015.4058946074227 L1022.5595467321785,1015.4058946074227 L1022.4445034636925,1016.1138622314794 C1022.4445034636925,1016.1138622314794 1022.8619170927126,1015.3413476315682 1023.426952614922,1015.3413476315682 C1023.5898457384422,1015.3413476315682 1023.669256136158,1015.3577405143247 1023.669256136158,1015.3577405143247 C1023.5022906845498,1015.6978928315272 1023.3516145452944,1016.0144803797665 1023.1999203240163,1016.822854410708 L1023.1999203240163,1016.822854410708 Z M1023.1999203240163,1016.822854410708 "/></g></svg>