<?xml version="1.0" encoding="utf-8"?><svg xmlns="http://www.w3.org/2000/svg" xmlns:xlink="http://www.w3.org/1999/xlink" version="1.1" class="page" pageAlignment="none" x="0px" y="0px" width="46px" height="30px" viewBox="0 0 46 30" enable-background="new 0 0 46 30" xml:space="preserve"><defs/><style type="text/css"/><style type="text/css"/><g type="LAYER" name="workspace" id="workspace" locked="true"/><g transform="matrix(1 0 0 1 -986.5224973994648 -1002.271097298588)"><path transform="matrix(1 0 0 1 2.8421709430404007e-13 2.2737367544323206e-13)" width="45.99999999999966" height="30" stroke-width="1.0213134687553607" stroke-miterlimit="3" stroke="none" fill="#FFFFFF" d="M1031.337449925858,1002.2710972985876 L987.7075448730722,1002.2710972985876 C987.0519000509047,1002.2710972985876 986.5224973994649,1002.8028414330095 986.5224973994649,1003.4636795191402 L986.5224973994649,1031.0826132987243 C986.5224973994649,1031.7383286089937 987.0519000509047,1032.2710972985876 987.7075448730722,1032.2710972985876 L1031.337449925858,1032.2710972985876 C1031.9941128300466,1032.2710972985876 1032.5224973994646,1031.7373040538214 1032.5224973994646,1031.0826132987243 L1032.5224973994646,1003.4636795191402 C1032.5224973994646,1002.8028414330095 1031.9930947480257,1002.2710972985876 1031.337449925858,1002.2710972985876 L1031.337449925858,1002.2710972985876 Z M990.0847663944411,1011.3353369078906 L994.9919217404782,1011.3353369078906 C995.656729300844,1011.3640244527148 996.1891861983496,1011.5761073733802 996.3724409623095,1012.2881732181258 L997.442445167431,1017.4550049520146 C996.3917845207274,1014.7532529626702 993.8628687780805,1012.5043543594804 990.0409888674952,1011.5720091526911 L990.0847663944411,1011.3353369078906 Z M996.0222207467415,1023.1259178306734 L993.1868623154734,1013.3721525904153 C995.2270986875598,1014.6846077661265 996.9649646991132,1016.7695775417488 997.5727596662467,1018.2182985553754 L997.9036363233964,1019.4231754379955 L1001.0057322444285,1011.447013421671 L1004.361330588939,1011.447013421671 L999.3747648451857,1023.1218196099843 L996.0222207467415,1023.1259178306734 Z M1006.8271252462215,1023.1341142720519 L1003.6619082398253,1023.1341142720519 L1005.6420777726142,1011.4398415354649 L1008.8123851891204,1011.4398415354649 L1006.8271252462215,1023.1341142720519 Z M1012.3390213133265,1023.3062395409972 C1010.918796892637,1023.2939448789299 1009.5515127370921,1023.0101430962038 1008.8123851891204,1022.6853591065861 L1009.2572870327339,1020.0645469758527 L1009.6624836774901,1020.2520405723828 C1010.7049996680174,1020.6895256309532 1011.3769338025369,1020.8657491205884 1012.6454640019484,1020.8657491205884 C1013.5566474116378,1020.8657491205884 1014.530951906691,1020.508179365457 1014.538078480845,1019.7254192138228 C1014.546223137021,1019.2131416276748 1014.1328818360893,1018.8483999863373 1012.899984507448,1018.276698200196 C1011.698647721489,1017.7162665209503 1010.1043312750377,1016.7798230934717 1010.1246929154773,1015.0985280557338 C1010.1440364738954,1012.825040128409 1012.3471659695025,1011.2410778320393 1015.4767501051284,1011.2410778320393 C1016.7055751056818,1011.2410778320393 1017.6880242569113,1011.4931184044241 1018.3161808644849,1011.7287660940522 L1017.8865502512009,1014.2624910351404 L1017.6004692030191,1014.1303234179143 C1017.0160901223918,1013.8936511731138 1016.2677998362223,1013.666199924864 1015.2303742558048,1013.6815682524485 C1013.9893322709871,1013.6815682524485 1013.4171701746235,1014.2020422799749 1013.4171701746235,1014.6866568764708 C1013.4090255184477,1015.2347938936493 1014.0850319810551,1015.5954373142974 1015.1947413850345,1016.1353778900975 C1017.0201624504797,1016.971414910691 1017.8672066927833,1017.9846999760916 1017.8549897085194,1019.3125234793874 C1017.8315738220134,1021.7417437929014 1015.6681495252643,1023.3062395409972 1012.3390213133265,1023.3062395409972 L1012.3390213133265,1023.3062395409972 Z M1026.0637850519006,1023.1382124927408 C1026.0637850519006,1023.1382124927408 1025.7736316756304,1021.7929715515163 1025.6779319655625,1021.3851985929423 C1025.2167408095966,1021.3851985929423 1021.983312307727,1021.3811003722531 1021.6218931899172,1021.3811003722531 C1021.4987052652551,1021.6976879204926 1020.9581037115739,1023.1382124927408 1020.9581037115739,1023.1382124927408 L1017.6289754996354,1023.1382124927408 L1022.3335325232946,1012.4203408353522 C1022.6674634265106,1011.6601208975085 1023.2324989487203,1011.4521361975322 1023.9919881371319,1011.4521361975322 L1026.4374211539748,1011.4521361975322 L1029.0029878494129,1023.1382124927408 L1026.0637850519006,1023.1382124927408 Z M1026.0637850519006,1023.1382124927408 "/><path transform="matrix(1 0 0 1 2.8421709430404007e-13 2.2737367544323206e-13)" width="2.628687780802352" height="4.38612069259932" stroke-width="1.0213134687553607" stroke-miterlimit="3" stroke="none" fill="#FFFFFF" d="M1024.2139300179279,1014.6016187971703 C1024.055109222496,1015.0411529660854 1023.7761547484682,1015.7501451453143 1023.79244406082,1015.7183839349731 C1023.79244406082,1015.7183839349731 1022.7947236792605,1018.3156312967434 1022.5320585175847,1018.9877394897696 L1025.160746298387,1018.9877394897696 C1025.033486045637,1018.4037430415608 1024.4287453245693,1015.6097810867097 1024.4287453245693,1015.6097810867097 L1024.2139300179279,1014.6016187971703 Z M1024.2139300179279,1014.6016187971703 "/></g></svg>