<?xml version="1.0" encoding="utf-8"?><svg xmlns="http://www.w3.org/2000/svg" xmlns:xlink="http://www.w3.org/1999/xlink" version="1.1" class="page" pageAlignment="none" x="0px" y="0px" width="46px" height="30px" viewBox="0 0 46 30" enable-background="new 0 0 46 30" xml:space="preserve"><defs/><style type="text/css"/><style type="text/css"/><g type="LAYER" name="workspace" id="workspace" locked="true"/><g transform="matrix(1 0 0 1 -986.5224973994648 -1002.271097298588)"><path transform="matrix(1 0 0 1 2.8421709430404007e-13 2.2737367544323206e-13)" width="45.99999999999966" height="30" stroke-width="1.0213134687553607" stroke-miterlimit="3" stroke="none" fill="#FFFFFF" d="M1031.337449925858,1002.2710972985876 L987.7075448730722,1002.2710972985876 C987.0519000509047,1002.2710972985876 986.5224973994649,1002.8028414330095 986.5224973994649,1003.4636795191402 L986.5224973994649,1031.0826132987243 C986.5224973994649,1031.7383286089937 987.0519000509047,1032.2710972985876 987.7075448730722,1032.2710972985876 L1031.337449925858,1032.2710972985876 C1031.9941128300466,1032.2710972985876 1032.5224973994646,1031.7373040538214 1032.5224973994646,1031.0826132987243 L1032.5224973994646,1003.4636795191402 C1032.5224973994646,1002.8028414330095 1031.9930947480257,1002.2710972985876 1031.337449925858,1002.2710972985876 L1031.337449925858,1002.2710972985876 Z M1029.0223314078312,1015.6415422970508 L1028.3901024721695,1016.2183668590535 L1027.8169222937836,1015.5780198763683 L1028.4491512294458,1015.001195314366 L1029.0223314078312,1015.6415422970508 Z M1025.757342363279,1015.085208838494 L1024.8980811367114,1014.1252006420527 L1025.8530420733464,1013.2604760766346 L1026.7082309718257,1014.2215088282485 L1025.757342363279,1015.085208838494 Z M1026.7316468583317,1015.1897134660684 L1027.5909080849,1016.1497216625096 L1026.6359471482638,1017.0144462279277 L1025.7766859216968,1016.0534134763138 L1026.7316468583317,1015.1897134660684 Z M1024.9774915344274,1014.8731259178288 L1023.7089613350159,1016.025750486662 L1022.5636190602667,1014.7450565212919 L1023.8362215877659,1013.5924319524587 L1024.9774915344274,1014.8731259178288 Z M1024.7433326693667,1015.7778081349663 L1025.8886749441167,1017.0585021003361 L1024.616072416617,1018.2111266691693 L1023.4707301418679,1016.9304327037992 L1024.7433326693667,1015.7778081349663 Z M1025.6504437509693,1017.9908473071255 L1026.7957860257184,1019.2715412724956 L1025.5231834982192,1020.4241658413287 L1024.37784122347,1019.1434718759587 L1025.6504437509693,1017.9908473071255 Z M1026.5921696213181,1018.0840818278045 L1027.547130557954,1017.2193572623866 L1028.406391784521,1018.1803900140003 L1027.451430847886,1019.0451145794182 L1026.5921696213181,1018.0840818278045 Z M1028.210920036297,1013.7409924524418 L1027.5746187725476,1014.316792459272 L1027.0014385941622,1013.6764454765871 L1027.637739857912,1013.1006454697568 L1028.210920036297,1013.7409924524418 Z M993.1909346435613,1019.4088316655834 L992.5301994112834,1019.4088316655834 L991.7035168094202,1016.3433625900735 L991.6597392824741,1016.3433625900735 L990.8524002390285,1019.4088316655834 L990.1916650067509,1019.4088316655834 L989.2061616094551,1015.0544721833251 L989.8903127282393,1015.0544721833251 L990.5734457650009,1018.3043611898481 L990.6172232919467,1018.3043611898481 L991.4092911050624,1015.0544721833251 L991.9539649868319,1015.0544721833251 L992.8010092291357,1018.3043611898481 L992.8447867560811,1018.3043611898481 L993.4688710355668,1015.0544721833251 L994.1805103689447,1015.0544721833251 L993.1909346435613,1019.4088316655834 Z M996.9771816833771,1017.9908473071255 L994.9878494123903,1017.9908473071255 C994.9878494123903,1018.7285270311788 995.286147444836,1019.0522864656241 995.9153221344317,1019.0522864656241 C996.2451807095596,1019.0522864656241 996.5516233981813,1018.9365117311547 996.8855543013971,1018.7316006966956 L996.8855543013971,1019.199822410435 C996.6106721554571,1019.3586284621406 996.2451807095596,1019.4825996379886 995.8074054400996,1019.4825996379886 C994.7811787619243,1019.4825996379886 994.3596928048163,1018.8422526553036 994.3596928048163,1017.8750725726561 C994.3596928048163,1016.9386291451775 994.8290286169582,1016.2665209521513 995.7442843547357,1016.2665209521513 C996.5078458712352,1016.2665209521513 996.9771816833771,1016.7624056555427 996.9771816833771,1017.7633960588757 L996.9771816833771,1017.9908473071255 Z M998.7221742690841,1019.4836241931608 C998.4004603501322,1019.4836241931608 997.8995639953085,1019.3801441207589 997.5330544673888,1019.1803558621614 L997.5330544673888,1014.8936170212747 L998.1663014850723,1014.7409583006026 L998.1663014850723,1016.4908985348842 C998.3526104950982,1016.3945903486882 998.6631255118081,1016.2665209521513 998.992984086936,1016.2665209521513 C999.7484009472595,1016.2665209521513 1000.1586880021251,1016.795191421056 1000.1586880021251,1017.7746661657711 C1000.1586880021251,1018.9242170690874 999.6089237102457,1019.4836241931608 998.7221742690841,1019.4836241931608 L998.7221742690841,1019.4836241931608 Z M1005.0261381493045,1019.4088316655834 L1004.369475245115,1019.4088316655834 L1004.369475245115,1016.2501280693946 L1004.3144988159271,1016.2501280693946 L1003.0693845030218,1019.4088316655834 L1002.6794590885958,1019.4088316655834 L1001.4343447756906,1016.3269697073168 L1001.3793683465027,1016.3269697073168 L1001.3793683465027,1019.4088316655834 L1000.830622136645,1019.4088316655834 L1000.830622136645,1015.0544721833251 L1001.5656773565285,1015.0544721833251 L1002.9339795940958,1018.4887811208614 L1002.9655401367778,1018.4887811208614 L1004.2747936170689,1015.0544721833251 L1005.0302104773926,1015.0544721833251 L1005.0302104773926,1019.4088316655834 L1005.0261381493045,1019.4088316655834 Z M1007.0897904078973,1019.4836241931608 C1006.2549631498576,1019.4836241931608 1005.6980722838238,1018.9242170690874 1005.6980722838238,1017.8760971278285 C1005.6980722838238,1016.7992896417452 1006.2865236925398,1016.2675455073237 1007.0897904078973,1016.2675455073237 C1007.8971294513427,1016.2675455073237 1008.4815085319705,1016.8003141969176 1008.4815085319705,1017.8760971278285 C1008.4815085319705,1018.9242170690874 1007.9286899940254,1019.4836241931608 1007.0897904078973,1019.4836241931608 L1007.0897904078973,1019.4836241931608 Z M1011.6273819799488,1019.4088316655834 L1010.991080716199,1019.4088316655834 L1010.991080716199,1017.3279601106501 C1010.991080716199,1016.8433455141542 1010.7528495230512,1016.7552337693367 1010.4423345063416,1016.7552337693367 C1010.2000309851056,1016.7552337693367 1009.8854436403077,1016.866910283117 1009.6991346302822,1016.9755131313806 L1009.6991346302822,1019.4088316655834 L1009.0628333665323,1019.4088316655834 L1009.0628333665323,1016.7193743383066 C1009.33669743045,1016.55134729005 1009.9170041829897,1016.2634472866346 1010.6174446141252,1016.2634472866346 C1011.3535179160309,1016.2634472866346 1011.6273819799488,1016.5513472900498 1011.6273819799488,1017.1875960520456 L1011.6273819799488,1019.4088316655834 Z M1014.8129606267847,1017.9908473071255 L1012.8246464378202,1017.9908473071255 C1012.8246464378202,1018.7285270311788 1013.1229444702659,1019.0522864656241 1013.7511010778395,1019.0522864656241 C1014.0809596529672,1019.0522864656241 1014.3874023415891,1018.9365117311547 1014.7213332448051,1018.7316006966956 L1014.7213332448051,1019.199822410435 C1014.4464510988654,1019.3586284621406 1014.0809596529672,1019.4825996379886 1013.6391120554198,1019.4825996379886 C1012.612885377244,1019.4825996379886 1012.1954717482243,1018.8422526553036 1012.1954717482243,1017.8750725726561 C1012.1954717482243,1016.9386291451775 1012.6648075603661,1016.2665209521513 1013.5790452161217,1016.2665209521513 C1014.3426067326212,1016.2665209521513 1014.8119425447629,1016.7624056555427 1014.8119425447629,1017.7633960588757 L1014.8119425447629,1017.9908473071255 Z M1016.7340814022979,1019.4395683207522 C1016.427638713676,1020.2889245585854 1016.0580749396905,1020.7294832826728 1015.3576345085547,1020.7294832826728 L1015.3576345085547,1020.2295003585922 C1015.7709758094865,1020.2295003585922 1016.0254963149863,1019.8975444827686 1016.1731182081766,1019.4395683207522 L1015.0043600469211,1016.3700010245532 L1015.6722218533522,1016.3700010245532 L1016.4561450102921,1018.6270960691213 L1016.4917778810619,1018.6270960691213 L1017.1881459841096,1016.3700010245532 L1017.8407365602112,1016.3700010245532 L1016.7340814022979,1019.4395683207522 Z M1027.085939401988,1021.9538267135669 C1026.306088573137,1022.3984836583431 1025.4040679016448,1022.6546224514171 1024.4491069650098,1022.6546224514171 C1021.5017595113214,1022.6546224514171 1019.0960316933364,1020.2376967999708 1019.0960316933364,1017.2716095761738 C1019.0960316933364,1014.3055223523768 1021.5017595113214,1011.8885967009304 1024.4491069650098,1011.8885967009304 C1025.2880065511367,1011.8885967009304 1026.0831286103185,1012.0853112940113 1026.7917136976298,1012.4367337181088 C1026.902684638028,1012.4889860318959 1027.0146736604484,1012.5494347870615 1027.125644600846,1012.6129572077438 L1026.6328929021988,1013.053515931831 L1025.8927472722053,1012.2850995526089 L1024.643560631212,1013.405962911101 L1023.9034150012181,1012.59349065947 L1021.5770975809493,1014.7020252040553 L1023.0685877431785,1016.3556572521411 L1022.4801363344633,1016.8761312796674 L1023.9512648562519,1018.5328369932702 L1023.3668857756244,1019.0492128001074 L1025.4671889870096,1021.4015914756992 L1026.7123032999148,1020.2458932413491 L1027.7904521612118,1021.4825313343105 C1027.5746187725476,1021.6495338273946 1027.3445322355756,1021.8052662135839 1027.085939401988,1021.9538267135669 L1027.085939401988,1021.9538267135669 Z M1028.2903304340134,1020.985622075747 L1027.431069207446,1020.0245893241333 L1028.3860301440814,1019.1598647587152 L1029.2452913706488,1020.1198729551568 L1028.2903304340134,1020.985622075747 Z M1029.2015138437032,1018.1189167036625 L1028.6283336653173,1017.4795942761498 L1029.2646349290671,1016.9027697141471 L1029.8378151074526,1017.5431166968323 L1029.2015138437032,1018.1189167036625 Z M999.5183144102876,1017.7746661657711 C999.5183144102876,1018.7725829035875 999.1762388508956,1019.0522864656241 998.7221742690839,1019.0522864656241 C998.571498129828,1019.0522864656241 998.3566828231861,1019.0399918035567 998.1622291569839,1018.9559782794283 L998.1622291569839,1016.9468255865559 C998.4045326782199,1016.8105597486405 998.5837151140921,1016.7429391072692 998.8260186353281,1016.7429391072692 C999.2352876081715,1016.7429391072692 999.5183144102876,1016.9949796796539 999.5183144102876,1017.7746661657711 L999.5183144102876,1017.7746661657711 Z M996.3958568488155,1017.5789761278627 L995.0000663966542,1017.5789761278627 C995.0682778921283,1016.9621939141404 995.3543589403097,1016.6742939107253 995.7279950423839,1016.6742939107253 C996.0578536175111,1016.6753184658974 996.3683686342214,1016.9355554796607 996.3958568488155,1017.5789761278627 L996.3958568488155,1017.5789761278627 Z M1014.2326538742453,1017.5789761278627 L1012.8327910939962,1017.5789761278627 C1012.899984507448,1016.9621939141404 1013.1911559657402,1016.6742939107253 1013.5607197397259,1016.6742939107253 C1013.8905783148533,1016.6753184658974 1014.2041475776297,1016.9355554796607 1014.2326538742453,1017.5789761278627 L1014.2326538742453,1017.5789761278627 Z M1007.841134940133,1017.8750725726563 C1007.841134940133,1018.7141832587666 1007.5234933492692,1019.0512619104519 1007.0897904078973,1019.0512619104519 C1006.6560874665253,1019.0512619104519 1006.3425182037496,1018.7141832587666 1006.3425182037496,1017.8750725726563 C1006.3425182037496,1017.0421092175795 1006.6886660912295,1016.6947850141712 1007.0897904078973,1016.6947850141712 C1007.507204036917,1016.6947850141712 1007.841134940133,1017.0431337727518 1007.841134940133,1017.8750725726563 L1007.841134940133,1017.8750725726563 Z M1007.841134940133,1017.8750725726563 "/></g></svg>