<?xml version="1.0" encoding="utf-8"?><svg xmlns="http://www.w3.org/2000/svg" xmlns:xlink="http://www.w3.org/1999/xlink" version="1.1" class="page" pageAlignment="none" x="0px" y="0px" width="46px" height="30px" viewBox="0 0 46 30" enable-background="new 0 0 46 30" xml:space="preserve"><defs/><style type="text/css"/><style type="text/css"/><g type="LAYER" name="workspace" id="workspace" locked="true"/><g transform="matrix(1 0 0 1 -986.5224973994648 -1002.271097298588)"><path transform="matrix(1 0 0 1 2.8421709430404007e-13 2.2737367544323206e-13)" width="45.99999999999966" height="30" stroke-width="1.0213134687553607" stroke-miterlimit="3" stroke="none" fill="#FFFFFF" d="M1013.7032512228053,1014.5258017144205 C1013.8865059867654,1014.645674669579 1013.9781333687455,1014.8372664867984 1013.9811876148111,1015.0934052798724 C1013.9811876148111,1015.4858099108619 1013.8376380497094,1015.7860045763446 1013.5515570015276,1015.9980874970099 C1013.2614036252579,1016.2060721969859 1012.8633335546559,1016.3146750452493 1012.3461478874802,1016.3146750452493 L1012.111989022421,1016.3146750452493 C1011.9053183719546,1016.3146750452493 1011.7699134630287,1016.1497216625096 1011.8177633180625,1015.9499334039119 L1012.1079166943322,1014.7050988695722 C1012.1476218931906,1014.5053106109746 1012.3583648717441,1014.337283562718 1012.5609631941226,1014.337283562718 L1012.8714782108322,1014.337283562718 C1013.2379877387519,1014.3372835627182 1013.5128698846919,1014.4008059834005 1013.7032512228053,1014.5258017144205 L1013.7032512228053,1014.5258017144205 Z M1000.778699953523,1017.4509067313259 C1000.536396432287,1017.4867661623559 1000.3215811256451,1017.5349202554539 1000.1505433459489,1017.5953690106194 L999.7484009472597,1017.8719989071393 C999.6527012371915,1017.9908473071255 999.6089237102459,1018.1445305829702 999.6089237102459,1018.3402206208785 L999.7921784742056,1018.7008640415266 C999.9153663988674,1018.7684846828982 1000.0986211628275,1018.8043441139287 1000.3327800278868,1018.8043441139287 C1000.4885465772533,1018.8043441139287 1000.6595843569486,1018.7695092380706 1000.8346944647332,1018.6977903760098 L1001.2083305668067,1018.501075782929 L1001.3549343779747,1018.3023120795036 C1001.4150012172726,1018.0728117209092 1001.5341168138465,1017.5574604692445 1001.5504061261985,1017.4939380485622 L1001.4821946307246,1017.3781633140924 C1001.4272182015364,1017.3750896485758 1000.9975875882529,1017.4273419623628 1000.778699953523,1017.4509067313259 L1000.778699953523,1017.4509067313259 Z M1018.0942389836893,1017.4591031727039 C1017.8478631343656,1017.490864383045 1017.6371201558112,1017.539018476143 1017.4701547042035,1017.5994672313084 C1017.2950445964194,1017.66708787268 1017.1514950313175,1017.7633960588757 1017.0608857313592,1017.8760971278283 C1016.9692583493796,1017.9949455278147 1016.9254808224335,1018.1486288036592 1016.9254808224335,1018.3443188415677 L1017.1087355863934,1018.7049622622158 C1017.2319235110555,1018.7766811242766 1017.4111059469273,1018.80946688979 1017.6534094681632,1018.80946688979 C1017.8040856074191,1018.80946688979 1017.972069141049,1018.7736074587597 1018.150233494899,1018.7018885966988 L1018.5197972688849,1018.5051740036181 L1018.6745457362287,1018.3105085208817 C1018.7305402474384,1018.0738362760812 1018.8537281721009,1017.5615586899335 1018.8659451563648,1017.498036269251 L1018.7987517429125,1017.3822615347815 C1018.7417391496809,1017.3791878692648 1018.3131266184188,1017.431440183052 1018.0942389836893,1017.4591031727039 L1018.0942389836893,1017.4591031727039 Z M995.5651019188641,1014.316792459272 L995.2505145740662,1014.316792459272 C995.0479162516882,1014.316792459272 994.8371732731345,1014.4817458420117 994.7974680742763,1014.6815341006094 L994.5113870260942,1015.9263686349491 C994.4676094991486,1016.1302551142361 994.5948697518985,1016.2941839418036 994.8015404023644,1016.2941839418036 L995.0356992674241,1016.2941839418036 C995.5528849346,1016.2941839418036 995.9509550052018,1016.1896793142292 996.2411083814715,1015.9734981728748 C996.5271894296533,1015.7614152522094 996.6748113228433,1015.4612205867267 996.6666666666671,1015.0729141764265 C996.6707389947552,1014.8167753833525 996.5791116127749,1014.624159010961 996.3917845207274,1014.5001878351131 C996.2054755107014,1014.3813394351266 995.9305933647612,1014.316792459272 995.5651019188641,1014.316792459272 L995.5651019188641,1014.316792459272 Z M1032.5224973994646,1003.4636795191402 L1032.5224973994646,1031.0826132987243 C1032.5224973994646,1031.7383286089937 1031.9930947480257,1032.2710972985876 1031.337449925858,1032.2710972985876 L987.7075448730722,1032.2710972985876 C987.0519000509047,1032.2710972985876 986.5224973994649,1031.7373040538214 986.5224973994649,1031.0826132987243 L986.5224973994649,1003.4636795191402 C986.5224973994649,1002.8028414330095 987.0519000509047,1002.2710972985876 987.7075448730722,1002.2710972985876 L1031.337449925858,1002.2710972985876 C1031.9930947480257,1002.2710972985876 1032.5224973994646,1002.8028414330095 1032.5224973994646,1003.4636795191402 L1032.5224973994646,1003.4636795191402 Z M998.4798707478482,1014.9212800109268 C998.4798707478482,1014.5770294730353 998.4238762366382,1014.2891294696202 998.2966159838883,1014.0575800006811 C998.1815727154022,1013.82500597657 997.9983179514421,1013.6364878248677 997.7763760706465,1013.4930501007461 C997.5411991235648,1013.3485878214523 997.2632627315589,1013.2451077490506 996.9446030586731,1013.1846589938848 C996.6228891397212,1013.1283084594087 996.2533253657353,1013.1006454697566 995.819622424364,1013.0965472490673 L993.831308235399,1013.0965472490673 C993.6246375849331,1013.1006454697566 993.4210211805329,1013.2604760766346 993.3731713254991,1013.4643625559219 L992.0333753845476,1019.3360882483504 C991.981453201426,1019.5307537310866 992.1127857822638,1019.6987807793432 992.3194564327295,1019.6987807793432 L993.2744173693649,1019.6987807793432 C993.4810880198307,1019.6987807793432 993.6836863422087,1019.5399747276374 993.7315361972427,1019.3360882483504 L994.0573224442822,1017.9109320036866 C994.1010999712286,1017.7111437450886 994.3047163756286,1017.5472149175214 994.5154593541823,1017.5472149175214 L994.7852510900121,1017.5472149175214 C995.9550273332894,1017.5431166968323 996.8570480047812,1017.303370786515 997.5055662527949,1016.822854410708 C998.1581568288963,1016.3423380349013 998.4798707478482,1015.7101874935945 998.4798707478482,1014.9212800109268 L998.4798707478482,1014.9212800109268 Z M1003.4348759489195,1015.84645333151 C1003.4348759489195,1015.4181892694903 1003.2526392669816,1015.1016017212507 1002.89020206715,1014.8977152419637 C1002.5328552774278,1014.693828762677 1001.9637474271302,1014.5893241351027 1001.1879689263666,1014.5893241351027 C1000.8061881681168,1014.5893241351027 1000.4203350817792,1014.6210853454438 1000.0344819954415,1014.6815341006094 C999.7484009472597,1014.7255899730181 999.7209127326656,1014.7337864143965 999.5458026248815,1014.7737440661161 C999.1843835070719,1014.849561148866 999.1283889958619,1015.2173764557202 999.1283889958619,1015.2173764557202 L999.009273399288,1015.6978928315272 C998.945134231902,1016.0062839383884 999.1202443396859,1015.9939892763207 999.1955824093137,1015.9704245073581 C999.3513489586798,1015.9222704142599 999.4419582586376,1015.8741163211621 999.7646902596115,1015.7982992384123 C1000.0741871942993,1015.7296540418683 1000.4009915233611,1015.6784262832534 1000.6595843569486,1015.6784262832534 C1001.0413651151983,1015.6784262832534 1001.3315184914687,1015.7224821556621 1001.5259721576707,1015.8023974591015 C1001.7173715778064,1015.8864109832297 1001.8130712878743,1016.029848707351 1001.8130712878743,1016.2378334073271 L1001.7967819755223,1016.3740992452425 L1001.6573047385085,1016.4581127693707 C1001.1167031848269,1016.493972200401 1000.7267777704011,1016.542126293499 1000.253369630171,1016.6107714900427 C999.7881061461175,1016.6783921314145 999.3829095013617,1016.7910932003672 999.044906270058,1016.9468255865561 C998.678396742138,1017.1066561934341 998.4126773343966,1017.3228373347885 998.2212779142607,1017.5994672313084 C998.0420954783884,1017.8760971278283 997.9514861784306,1018.2070284484801 997.9514861784306,1018.6004576346417 C997.9514861784306,1018.9713466070128 998.0818006772469,1019.2766640483569 998.3363211827467,1019.5133362931574 C998.5949140163344,1019.7448857620963 998.9369895757264,1019.8575868310489 999.343204302504,1019.8575868310489 C999.6017971360919,1019.8575868310489 999.8003231303818,1019.8340220620859 999.9398003673956,1019.8012362965726 L1000.4009915233613,1019.6414056896946 L1000.7949892658752,1019.4211263276508 L1001.1523360555967,1019.1844540828505 L1001.1564083836846,1019.1885523035395 L1001.1207755129145,1019.3453092449008 L1001.1207755129145,1019.3494074655902 C1001.081070314057,1019.5379256172927 1001.1920412544551,1019.6936580034816 1001.3752960184144,1019.7100508862383 L1001.3793683465029,1019.7141491069275 L1002.266117787664,1019.7141491069275 L1002.2783347719279,1019.7100508862383 C1002.4687161100422,1019.6864861172756 1002.647898545914,1019.5328028414312 1002.6876037447722,1019.3494074655902 L1003.3829537657977,1016.3228714866278 L1003.4196047185895,1016.0749291349321 L1003.4348759489195,1015.84645333151 Z M1005.5473961445681,1021.6741231515298 L1009.344842086626,1015.2112291246865 C1009.344842086626,1015.2112291246865 1009.710333532524,1014.6579693316467 1009.3723303012199,1014.6620675523359 C1009.1463160923364,1014.6661657730251 1008.2269880264706,1014.6620675523359 1008.2269880264706,1014.6620675523359 C1008.0243897040931,1014.6620675523359 1007.7576522143289,1014.8300946005925 1007.6263196334909,1015.0309074143626 C1007.6263196334909,1015.0309074143626 1006.2631078060339,1017.3884088658157 1006.1317752251961,1017.6240565554435 L1005.9719363477419,1017.6199583347545 L1005.5473961445681,1015.0462757419468 C1005.4995462895341,1014.84238926266 1005.2888033109804,1014.6702639937145 1005.0302104773926,1014.6702639937145 L1004.1750215789131,1014.6702639937145 C1003.968350928447,1014.6702639937145 1003.841090675697,1014.8341928212817 1003.8889405307312,1015.0391038557409 C1003.8889405307312,1015.0391038557409 1004.5364406967227,1018.7531163553142 1004.6677732775603,1019.6260373621101 C1004.7278401168581,1020.110651958606 1004.6596286213845,1020.1946654827344 1004.6596286213845,1020.1946654827344 L1003.8166567071693,1021.6751477067024 C1003.6893964544194,1021.8780096308168 1003.757607949893,1022.041938458384 1003.9642786003586,1022.041938458384 L1004.9508000796765,1022.0388647928672 C1005.1533984020544,1022.0378402376948 1005.4231901378845,1021.8769850756444 1005.5473961445681,1021.6741231515298 L1005.5473961445681,1021.6741231515298 Z M1015.7872651218382,1014.9417711143727 C1015.7872651218382,1014.597520576481 1015.7271982825406,1014.3096205730661 1015.6080826859667,1014.081144769644 C1015.4889670893928,1013.8444725248435 1015.3097846535205,1013.6569789283134 1015.0827523626148,1013.5125166490196 C1014.8516477436209,1013.3690789248982 1014.5737113516153,1013.2645742973241 1014.2519974326634,1013.2041255421585 C1013.9374100878657,1013.1487995628546 1013.5597016577036,1013.1201120180301 1013.1300710444201,1013.1170383525132 L1011.137684527367,1013.1201120180301 C1010.9310138769009,1013.1242102387195 1010.7324878826113,1013.2850654007698 1010.6836199455553,1013.4848536593676 L1009.3438240046038,1019.3586284621406 C1009.2919018214822,1019.5553430552214 1009.4273067304078,1019.723370103478 1009.6299050527856,1019.723370103478 L1010.584865989421,1019.7192718827889 C1010.7874643117992,1019.723370103478 1010.9941349622649,1019.5594412759107 1011.0419848172991,1019.3576039069685 L1011.3636987362507,1017.9293739967877 C1011.4115485912849,1017.732659403707 1011.6182192417506,1017.5646323554504 1011.8248898922167,1017.5687305761396 L1012.0956997100683,1017.5687305761396 C1013.2614036252575,1017.5687305761396 1014.1674966248373,1017.324886445133 1014.8200872009389,1016.8484682900156 C1015.4655512028866,1016.3628291383473 1015.7872651218382,1015.7296540418683 1015.7872651218382,1014.9417711143727 L1015.7872651218382,1014.9417711143727 Z M1020.7544873071737,1015.8505515521992 C1020.7544873071737,1015.4222874901793 1020.5712325432136,1015.10569994194 1020.2098134254041,1014.9018134626531 C1019.8443219795062,1014.6979269833663 1019.2792864572965,1014.593422355792 1018.5035079565329,1014.593422355792 C1018.1217271982831,1014.593422355792 1017.7358741119455,1014.625183566133 1017.3500210256074,1014.6856323212987 C1017.0680123055134,1014.7296881937074 1017.0354336808101,1014.7378846350857 1016.8613416550478,1014.7778422868053 C1016.4999225372379,1014.8536593695551 1016.4439280260282,1015.2214746764096 1016.4439280260282,1015.2214746764096 L1016.3288847575421,1015.7019910522165 C1016.2616913440899,1016.0103821590775 1016.4357833698517,1015.9980874970099 1016.5162118495897,1015.9745227280471 C1016.6709603169337,1015.9263686349491 1016.7585153708256,1015.8782145418511 1017.0812473717996,1015.8023974591015 C1017.3876900604213,1015.7337522625576 1017.7175486355492,1015.6814999487704 1017.9761414691369,1015.6814999487704 C1018.3538498992988,1015.6814999487704 1018.6480756036568,1015.7224821556621 1018.8394750237925,1015.8064956797903 C1019.0339286899942,1015.8905092039187 1019.1296284000622,1016.0339469280401 1019.1296284000622,1016.2419316280161 L1019.1133390877104,1016.3781974659317 L1018.9779341787845,1016.4622109900599 C1018.4291879689266,1016.4980704210901 1018.0392625545009,1016.5462245141881 1017.5699267423589,1016.614869710732 C1017.1087355863934,1016.6824903521035 1016.6994666135498,1016.7951914210562 1016.3573910541578,1016.9509238072449 C1015.9990261824142,1017.1107544141232 1015.7251621184963,1017.3269355554776 1015.5378350264485,1017.6025408968253 C1015.3586525905765,1017.8801953485174 1015.2670252085965,1018.2121512243415 1015.2670252085965,1018.6045558553309 C1015.2670252085965,1018.9754448277018 1015.3983577894347,1019.280762269046 1015.6569506230222,1019.5133362931572 C1015.91554345661,1019.744885762096 1016.2535466879143,1019.8616850517379 1016.6587433326698,1019.8616850517379 C1016.9173361662575,1019.8575868310487 1017.1158621605472,1019.841193948292 1017.2594117256496,1019.8053345172616 L1017.7165305535269,1019.6496021310727 L1018.110528296041,1019.4293227690291 L1018.4688931677848,1019.1885523035393 L1018.4770378239608,1019.1977733000903 L1018.4454772812788,1019.3494074655899 L1018.4373326251028,1019.3524811311069 L1018.441404953191,1019.3524811311069 C1018.3976274262446,1019.5420238379814 1018.508598366643,1019.6967316689985 1018.6959254586908,1019.7141491069273 L1018.6959254586908,1019.7182473276166 L1019.5826748998521,1019.7182473276166 L1019.594891884116,1019.7141491069273 C1019.7862913042521,1019.6905843379645 1019.9644556581019,1019.5379256172924 1020.0041608569599,1019.3524811311069 L1020.7005289600075,1016.3269697073166 L1020.7361618307774,1016.0790273556212 L1020.7544873071737,1015.8505515521992 Z M1023.7812451585779,1013.5330077524658 C1023.8250226855238,1013.3321949386955 1023.7018347608617,1013.1682661111283 1023.4951641103961,1013.1682661111283 L1022.6399752119165,1013.1682661111283 C1022.4648651041324,1013.1682661111283 1022.3101166367886,1013.2963355076653 1022.2307062390729,1013.4602643352325 L1022.1828563840389,1013.5330077524658 L1022.1431511851807,1013.7245995696849 L1020.9458867273094,1019.1834295276781 L1020.9102538565395,1019.3514565759347 L1020.9102538565395,1019.3555547966239 C1020.8705486576815,1019.5369010621203 1020.9815195980797,1019.6731669000355 1021.1484850496873,1019.6957071138261 L1021.1647743620393,1019.7202964379613 L1022.0515238032007,1019.7202964379613 C1022.2266339109848,1019.7202964379613 1022.3895270345048,1019.5840306000459 1022.4607927760445,1019.4201017724786 L1022.5086426310787,1019.3514565759347 L1023.7853174866658,1013.5330077524658 L1023.7812451585779,1013.5330077524658 Z M1025.479405971273,1012.7686895939328 L1025.1576920523212,1012.7686895939328 L1025.1576920523212,1012.5043543594804 L1025.002943584977,1012.5043543594804 L1025.002943584977,1012.7686895939328 L1024.896044972667,1012.7686895939328 L1024.896044972667,1012.9049554318482 L1025.002943584977,1012.9049554318482 L1025.002943584977,1013.4008401352396 L1025.0742093265171,1013.644684266246 L1025.293096961247,1013.7245995696851 L1025.384724343227,1013.7164031283066 L1025.4804240532953,1013.696936580033 L1025.4804240532953,1013.5565725214285 L1025.472279397119,1013.5565725214285 L1025.412212557821,1013.5770636248744 L1025.3328021601055,1013.5852600662528 L1025.2330301219495,1013.5729654041854 L1025.1811079388272,1013.5207130903982 L1025.160746298387,1013.4448960076483 L1025.156673970299,1013.329121273179 L1025.156673970299,1012.9049554318484 L1025.4783878892513,1012.9049554318484 L1025.4783878892513,1012.7686895939328 Z M1027.0218002346019,1013.1006454697568 L1026.9464621649745,1012.8363102353043 L1026.7235022021564,1012.7441002697977 L1026.5565367505483,1012.7799597008279 L1026.385498970852,1012.8967589904698 L1026.2857269326964,1012.7840579215172 L1026.1228338091769,1012.7441002697977 L1025.9680853418322,1012.7799597008279 L1025.8204634486433,1012.8762678870239 L1025.8204634486433,1012.772787814622 L1025.6697873093867,1012.772787814622 L1025.6697873093867,1013.7051330214114 L1025.8204634486433,1013.7051330214114 L1025.8204634486433,1013.0084355042501 L1025.951796029481,1012.9285202008112 L1026.0790562822308,1012.8967589904698 L1026.1859548945404,1012.9162255387434 L1026.2378770776627,1012.9684778525307 L1026.2582387181023,1013.0565895973481 L1026.266383374279,1013.1723643318177 L1026.266383374279,1013.7051330214116 L1026.4211318416228,1013.7051330214116 L1026.4211318416228,1013.0565895973481 L1026.4170595135342,1013.0125337249394 L1026.548392094373,1012.9285202008112 L1026.6797246752108,1012.8926607697808 L1026.7835690414545,1012.9121273180546 L1026.839563552665,1012.9643796318417 L1026.8599251931041,1013.0565895973483 L1026.8680698492803,1013.1682661111286 L1026.8680698492803,1013.7051330214116 L1027.0228183166237,1013.7051330214116 L1027.0228183166237,1013.1006454697568 Z M1027.0218002346019,1013.1006454697568 "/></g></svg>