<?xml version="1.0" encoding="utf-8"?><svg xmlns="http://www.w3.org/2000/svg" xmlns:xlink="http://www.w3.org/1999/xlink" version="1.1" class="page" pageAlignment="none" x="0px" y="0px" width="46px" height="30px" viewBox="0 0 46 30" enable-background="new 0 0 46 30" xml:space="preserve"><defs/><style type="text/css"/><style type="text/css"/><g type="LAYER" name="workspace" id="workspace" locked="true"/><g transform="matrix(1 0 0 1 -986.5224973994647 -1002.2710972985878)"><path transform="matrix(1 0 0 1 1.1368683772161603e-13 2.2737367544323206e-13)" width="45.999999999999886" height="29.999999999999773" stroke-width="1.0213134687553607" stroke-miterlimit="3" stroke="none" fill="#FFFFFF" d="M1005.4557687625877,1025.5162050476397 C1005.423190137884,1025.692428537275 1005.368213708696,1025.8727502475988 1005.28880331098,1026.028482633788 C1005.1768142885601,1026.2446637751423 1004.9426554235001,1026.3112598613416 1004.7278401168579,1026.3245790785813 C1004.3419870305204,1026.3481438475442 1003.9561339441827,1026.3327755199598 1003.566208529757,1026.3327755199598 L1003.4033154062371,1026.3327755199598 L1003.4033154062371,1024.6596769236003 C1003.8960671048849,1024.6596769236003 1004.3694752451144,1024.6361121546377 1004.8428833853443,1024.6678733649787 C1005.23280879977,1024.6945117994583 1005.5270345041282,1025.122775861478 1005.4557687625877,1025.5162050476397 L1005.4557687625877,1025.5162050476397 Z M1008.529358387004,1027.2558997301985 L1010.0167762211453,1027.2558997301985 C1009.7744726999091,1026.4926061268377 1009.5392957528273,1025.7477545165789 1009.2888475754155,1024.9598715890831 C1009.0261824137398,1025.7549264027848 1008.7798065644159,1026.503876233733 1008.529358387004,1027.2558997301985 L1008.529358387004,1027.2558997301985 Z M1032.5224973994643,1003.4636795191402 L1032.5224973994643,1031.082613298724 C1032.5224973994643,1031.7383286089937 1031.9930947480252,1032.2710972985874 1031.3374499258575,1032.2710972985874 L987.7075448730719,1032.2710972985874 C987.0519000509044,1032.2710972985874 986.5224973994644,1031.7373040538214 986.5224973994644,1031.082613298724 L986.5224973994644,1003.4636795191402 C986.5224973994644,1002.8028414330095 987.0519000509044,1002.2710972985876 987.7075448730719,1002.2710972985876 L1031.3374499258575,1002.2710972985876 C1031.9930947480252,1002.2710972985876 1032.5224973994643,1002.8028414330095 1032.5224973994643,1003.4636795191402 L1032.5224973994643,1003.4636795191402 Z M1002.2457561472237,1007.1817902394024 L1004.5527300090744,1007.1817902394024 L1004.5527300090744,1004.9001058706993 L1002.2457561472237,1004.9001058706993 L1002.2457561472237,1007.1817902394024 Z M1002.2457561472237,1022.2857825893904 L1016.8379257685414,1022.2857825893904 L1016.8379257685414,1004.9001058706991 L1007.142730673041,1004.9001058706991 L1007.142730673041,1007.1930603462978 C1007.2221410707572,1007.1930603462978 1007.2934068122968,1007.1930603462978 1007.3616183077709,1007.1930603462978 L1011.1081601487286,1007.1930603462978 C1011.5215014496605,1007.1930603462978 1012.0346147887481,1007.3057614152505 1012.4958059447139,1007.5414091048784 C1013.6808534183214,1008.1540930979113 1014.4881924617671,1009.2022130391703 1014.5156806763608,1010.478808783851 C1014.5197530044488,1010.7994945527797 1014.4841201336789,1011.1191557665361 1014.4321979505569,1011.4357433147754 C1014.3527875528412,1011.9521191216129 1014.1736051169692,1012.4039479525952 1013.7836797025434,1012.7727878146218 C1013.6289312351993,1012.9162255387432 1013.4578934555035,1013.064786038726 1013.2787110196317,1013.2041255421583 C1013.4334594869757,1013.2850654007697 1013.5647920678134,1013.3608824835197 1013.7042693048271,1013.424404904202 C1014.0585618484832,1013.5883337317695 1014.3762034393471,1013.8332024179482 1014.6113803864289,1014.1415935248094 C1015.2792421928605,1015.0145145316056 1015.3749419029283,1015.9991120521822 1015.2079764513206,1017.0349373313734 C1015.1163490693408,1017.6025408968252 1014.8740455481046,1018.1353095864192 1014.5197530044488,1018.6035313001585 C1014.086050063077,1019.1721594207826 1013.5576654936592,1019.5963252621134 1012.881659031052,1019.8401693931198 C1012.1578027134101,1020.1045046275723 1011.4023858530866,1020.1711007137715 1010.6510413208508,1020.1844199310111 C1008.694287674568,1020.2110583654908 1006.737534028285,1020.1926163723897 1004.7858707921122,1020.1926163723897 L1004.5547661731184,1020.1926163723897 L1004.5547661731184,1009.4306888425923 L1002.2437199831799,1009.4306888425923 C1002.2457561472237,1013.724599569685 1002.2457561472237,1018.0072401898823 1002.2457561472237,1022.2857825893904 L1002.2457561472237,1022.2857825893904 Z M1009.4323971405178,1014.4694511799439 L1009.4323971405178,1012.2482155664062 L1010.613372286037,1012.2482155664062 C1011.1621184958946,1012.2482155664062 1011.9776021955162,1012.0443290871194 1011.9134630281301,1010.6027799596989 C1011.9134630281301,1009.9911205218381 1011.3922050328666,1009.4183941805246 1010.8790916937791,1009.4183941805246 L1007.1447668370851,1009.4183941805246 L1007.1447668370851,1018.0072401898823 C1007.6690790784146,1018.0072401898823 1008.1821924175024,1018.0113384105714 1008.69530575659,1018.0072401898823 C1009.4385056326498,1017.9939209726425 1010.178651262643,1017.9836754209197 1010.9187968926367,1017.9631843174734 C1011.0939070004209,1017.9590860967845 1011.2690171082047,1017.9191284450649 1011.4319102317245,1017.8658515761056 C1012.5171856671761,1017.5144291520078 1012.7482902861701,1016.4857757590227 1012.5497642918798,1015.6179775280882 C1012.4021423986902,1014.9735323247137 1011.9012460438662,1014.5698575868291 1011.3005776508866,1014.4776476213225 C1011.2975234048209,1014.4776476213225 1009.5036628820577,1014.4694511799439 1009.4323971405178,1014.4694511799439 L1009.4323971405178,1014.4694511799439 Z M1006.6051833654252,1026.287695092379 C1006.787420047363,1025.8512345889806 1006.7955647035391,1025.3994057579982 1006.7080096496472,1024.9496260373603 C1006.6408162361953,1024.5982036132627 1006.4850496868294,1024.2826406201955 1006.2264568532413,1024.0265018271216 C1005.8609654073435,1023.6627847409563 1005.3997742513782,1023.5500836720037 1004.9222937830602,1023.5367644547642 C1003.9836221587766,1023.5142242409735 1003.0418962884273,1023.5336907892471 1002.0869353517919,1023.5336907892471 L1002.0869353517919,1029.628769509236 L1003.391098421973,1029.628769509236 L1003.391098421973,1027.4229022232828 C1003.490870460129,1027.4229022232828 1003.566208529757,1027.4229022232828 1003.641546599385,1027.4229022232828 C1004.1587322665606,1027.4116321163876 1004.6718456056484,1027.4157303370766 1005.1808866166483,1027.378846350874 C1005.8884536219376,1027.3327413681209 1006.3343735475735,1026.9208701888576 1006.6051833654252,1026.287695092379 L1006.6051833654252,1026.287695092379 Z M1012.1802005178938,1029.6410641713037 C1012.1567846313878,1029.5498787609692 1012.1486399752121,1029.4822581195976 1012.1242060066843,1029.4177111437432 C1011.817763318062,1028.5611830197035 1011.5082663833742,1027.7046548956641 1011.2018236947529,1026.8440285509357 C1010.828187592679,1025.7877121682984 1010.4626961467811,1024.7303712304888 1010.0849877166193,1023.6740548478517 C1010.0646260761793,1023.6136060926864 1009.9811433503753,1023.5367644547642 1009.9292211672536,1023.5367644547642 C1009.5077352101454,1023.5254943478689 1009.0903215811259,1023.5295925685582 1008.6729079521064,1023.5367644547642 C1008.625058097072,1023.5367644547642 1008.553792355532,1023.5849185478621 1008.5375030431803,1023.6289744202707 C1008.1597946130184,1024.6709470304957 1007.7861585109446,1025.7108705303763 1007.4084500807827,1026.7559168061182 C1007.1294956067547,1027.5284314060293 1006.847486886661,1028.3009460059407 1006.5685324126335,1029.0775588265408 C1006.5054113272689,1029.2568559816925 1006.4534891441474,1029.438202247189 1006.3903680587835,1029.6410641713037 C1006.8352699023972,1029.6410641713037 1007.2414846291746,1029.645162391993 1007.6426089458425,1029.6338922850978 C1007.6945311289647,1029.6338922850978 1007.7698691985926,1029.5662716437262 1007.7943031671207,1029.50992110925 C1007.8808401389903,1029.285543526517 1007.9531239625525,1029.0580922782672 1008.0284620321808,1028.828591919673 C1008.1791381714365,1028.3572965404167 1008.1791381714365,1028.3572965404167 1008.660690967842,1028.3572965404167 L1010.3629241086252,1028.3572965404167 C1010.490184361375,1028.76916771968 1010.613372286037,1029.1615723506693 1010.740632538787,1029.5539769816587 C1010.7569218511387,1029.589836412689 1010.8118982803271,1029.6379905057868 1010.8475311510971,1029.6379905057868 C1011.2853064205564,1029.6410641713037 1011.7190093619284,1029.6410641713037 1012.1802005178938,1029.6410641713037 L1012.1802005178938,1029.6410641713037 Z M1016.9570413651155,1023.53061712373 C1016.4520726822038,1023.53061712373 1016.0020804284799,1023.53061712373 1015.54903392869,1023.5347153444194 C1015.5052564017442,1023.5347153444194 1015.4380629882922,1023.5623783340714 1015.4217736759402,1023.5951640995847 C1015.2629528805082,1023.9435128581654 1015.1071863311427,1024.291861616746 1014.9524378637987,1024.6361121546377 C1014.7294779009808,1025.1238004166503 1014.506517938163,1025.6084150131464 1014.2682867450147,1026.1206925992942 C1014.2163645618928,1026.019261637237 1014.1807316911227,1025.9526655510379 1014.1450988203527,1025.8840203544942 C1013.7867339486089,1025.13711963389 1013.4293871588875,1024.3840715822528 1013.0628776309674,1023.6361463064765 C1013.0425159905276,1023.5920904340679 1012.9834672332518,1023.5388135651083 1012.9437620343937,1023.5388135651083 C1012.470353894164,1023.5316416789024 1011.9969457539343,1023.5357398995915 1011.4960493991103,1023.5357398995915 C1011.5357545979684,1023.6115569823413 1011.5561162384081,1023.6597110754393 1011.5836044530027,1023.7109388340541 C1011.9053183719542,1024.3000580581245 1012.232122701016,1024.8881527270223 1012.5538366199678,1025.4813701717815 C1012.7727242546979,1025.8737748027709 1012.9753225770756,1026.2764249854836 1013.2176260983111,1026.6534612888884 C1013.5077794745814,1027.1063146750432 1013.6513290396834,1027.5745363887825 1013.6075515127374,1028.119599740444 C1013.5678463138793,1028.5642566852205 1013.599406856561,1029.0109627403415 1013.599406856561,1029.4607424609794 C1013.599406856561,1029.5160684402833 1013.6034791846496,1029.5724189747596 1013.6075515127374,1029.6328677299252 L1014.8760817121487,1029.6328677299252 C1014.8760817121487,1028.9443666541422 1014.8679370559723,1028.272258461116 1014.8801540402367,1027.5991257129176 C1014.8842263683247,1027.444417881901 1014.9280038952705,1027.2794644991611 1014.9992696368106,1027.1483214371071 C1015.2700794546624,1026.6278474095807 1015.5602328309321,1026.1196680441221 1015.8381692229381,1025.6073904579741 C1016.0926897284379,1025.1473651856131 1016.3512825620254,1024.6873399132521 1016.6017307394375,1024.2211673098575 C1016.7218644180338,1024.0029370581585 1016.8257087842775,1023.7826576961148 1016.9570413651155,1023.53061712373 L1016.9570413651155,1023.53061712373 Z M1016.9570413651155,1023.53061712373 "/></g></svg>