<?xml version="1.0" encoding="UTF-8" standalone="no"?>
<!-- Generator: Adobe Illustrator 16.0.0, SVG Export Plug-In . SVG Version: 6.00 Build 0)  -->

<svg
   xmlns:dc="http://purl.org/dc/elements/1.1/"
   xmlns:cc="http://creativecommons.org/ns#"
   xmlns:rdf="http://www.w3.org/1999/02/22-rdf-syntax-ns#"
   xmlns:svg="http://www.w3.org/2000/svg"
   xmlns="http://www.w3.org/2000/svg"
   xmlns:sodipodi="http://sodipodi.sourceforge.net/DTD/sodipodi-0.dtd"
   xmlns:inkscape="http://www.inkscape.org/namespaces/inkscape"
   version="1.1"
   id="Слой_1"
   x="0px"
   y="0px"
   width="36"
   height="36"
   viewBox="0 0 36 36"
   enable-background="new 0 0 1984.25 1984.25"
   xml:space="preserve"
   inkscape:version="0.48.4 r9939"
   sodipodi:docname="browsers.svg"><metadata
   id="metadata3109"><rdf:RDF><cc:Work
       rdf:about=""><dc:format>image/svg+xml</dc:format><dc:type
         rdf:resource="http://purl.org/dc/dcmitype/StillImage" /></cc:Work></rdf:RDF></metadata><defs
   id="defs3107" /><sodipodi:namedview
   pagecolor="#ffffff"
   bordercolor="#666666"
   borderopacity="1"
   objecttolerance="10"
   gridtolerance="10"
   guidetolerance="10"
   inkscape:pageopacity="0"
   inkscape:pageshadow="2"
   inkscape:window-width="1366"
   inkscape:window-height="715"
   id="namedview3105"
   showgrid="false"
   inkscape:zoom="7.611944"
   inkscape:cx="31.68546"
   inkscape:cy="21.580328"
   inkscape:window-x="-8"
   inkscape:window-y="-8"
   inkscape:window-maximized="1"
   inkscape:current-layer="Слой_1" />
<g
   id="g3075"
   transform="matrix(0.0878902,0,0,0.0878902,-69.169584,-69.191557)">
	<path
   d="m 1196.602,992.051 v 35.617 H 938.375 v -35.617 c 0,-9.836 7.973,-17.809 17.809,-17.809 h 222.609 c 9.836,0 17.809,7.973 17.809,17.809 l 0,0 z m 0,0"
   id="path3077"
   inkscape:connector-curvature="0"
   style="fill:#a5a5a5" />
	<path
   d="m 1149.852,996.059 v 0.891 c 0,3.688 -2.988,6.676 -6.68,6.676 -3.688,0 -6.676,-2.988 -6.676,-6.676 v -0.891 c 0,-3.688 2.988,-6.68 6.676,-6.68 3.691,0 6.68,2.988 6.68,6.68 l 0,0 z m 20.035,-6.68 c -3.688,0 -6.68,2.992 -6.68,6.68 v 0.891 c 0,3.688 2.992,6.676 6.68,6.676 3.688,0 6.68,-2.988 6.68,-6.676 v -0.891 c -10e-4,-3.692 -2.993,-6.68 -6.68,-6.68 l 0,0 z m 0,0"
   id="path3079"
   inkscape:connector-curvature="0"
   style="fill:#777777" />
	<path
   d="m 1196.602,1018.762 v 160.281 c 0,9.836 -7.973,17.809 -17.809,17.809 H 956.184 c -9.836,0 -17.809,-7.973 -17.809,-17.809 v -160.281 h 35.617 v -53.426 c 0,-4.918 3.985,-8.902 8.903,-8.902 h 53.425 c 4.918,0 8.906,3.984 8.906,8.902 v 53.426 h 151.376 z m 0,0"
   id="path3081"
   inkscape:connector-curvature="0"
   style="fill:#fed766" />
	<path
   d="m 1169.887,1094.449 v 71.234 c 0,2.461 -1.992,4.453 -4.453,4.453 H 969.539 c -2.457,0 -4.453,-1.992 -4.453,-4.453 v -71.234 c 0,-2.457 1.996,-4.453 4.453,-4.453 h 195.895 c 2.461,0 4.453,1.996 4.453,4.453 l 0,0 z m -4.453,-40.07 H 969.539 c -2.461,0 -4.453,1.996 -4.453,4.453 v 8.906 c 0,2.457 1.992,4.449 4.453,4.449 h 195.895 c 2.461,0 4.453,-1.992 4.453,-4.449 v -8.906 c 0,-2.457 -1.992,-4.453 -4.453,-4.453 l 0,0 z m 0,0"
   id="path3083"
   inkscape:connector-curvature="0"
   style="fill:#e8ba52" />
	<path
   d="m 1120.914,907.457 v 40.07 H 862.688 v -40.07 c 0,-9.836 7.972,-17.809 17.808,-17.809 h 222.609 c 9.836,0 17.809,7.973 17.809,17.809 l 0,0 z m 0,0"
   id="path3085"
   inkscape:connector-curvature="0"
   style="fill:#a5a5a5" />
	<path
   d="m 1120.914,934.172 v 160.277 c 0,9.836 -7.973,17.809 -17.809,17.809 H 880.496 c -9.836,0 -17.808,-7.973 -17.808,-17.809 V 934.172 h 35.617 v -53.426 c 0,-4.918 3.988,-8.902 8.902,-8.902 h 53.43 c 4.918,0 8.902,3.984 8.902,8.902 v 53.426 h 151.375 z m 0,0"
   id="path3087"
   inkscape:connector-curvature="0"
   style="fill:#a3ccaa" />
	<path
   d="m 1074.164,911.465 v 0.89 c 0,3.688 -2.988,6.68 -6.676,6.68 -3.688,0 -6.68,-2.992 -6.68,-6.68 v -0.89 c 0,-3.688 2.992,-6.676 6.68,-6.676 3.688,0 6.676,2.988 6.676,6.676 l 0,0 z m 20.035,-6.676 c -3.688,0 -6.676,2.988 -6.676,6.676 v 0.89 c 0,3.688 2.988,6.68 6.676,6.68 3.688,0 6.68,-2.992 6.68,-6.68 v -0.89 c 0,-3.688 -2.992,-6.676 -6.68,-6.676 l 0,0 z m 0,0"
   id="path3089"
   inkscape:connector-curvature="0"
   style="fill:#777777" />
	<path
   d="M 1089.746,1085.547 H 893.852 c -2.457,0 -4.454,-1.996 -4.454,-4.453 v -71.234 c 0,-2.457 1.997,-4.453 4.454,-4.453 h 195.894 c 2.461,0 4.453,1.996 4.453,4.453 v 71.234 c 0,2.457 -1.992,4.453 -4.453,4.453 l 0,0 z m 4.453,-102.402 v -8.903 c 0,-2.457 -1.992,-4.453 -4.453,-4.453 H 893.852 c -2.457,0 -4.454,1.996 -4.454,4.453 v 8.903 c 0,2.46 1.997,4.453 4.454,4.453 h 195.894 c 2.461,0 4.453,-1.993 4.453,-4.453 l 0,0 z m 0,0"
   id="path3091"
   inkscape:connector-curvature="0"
   style="fill:#80a886" />
	<path
   d="m 1045.227,822.867 v 35.617 H 787 v -35.617 c 0,-9.836 7.973,-17.808 17.809,-17.808 h 222.609 c 9.836,0 17.809,7.972 17.809,17.808 l 0,0 z m 0,0"
   id="path3093"
   inkscape:connector-curvature="0"
   style="fill:#a5a5a5" />
	<path
   d="m 971.766,826.875 v 0.891 c 0,3.687 -2.993,6.675 -6.68,6.675 -3.688,0 -6.676,-2.988 -6.676,-6.675 v -0.891 c 0,-3.688 2.988,-6.68 6.676,-6.68 3.687,0 6.68,2.992 6.68,6.68 l 0,0 z m 20.035,-6.68 c -3.688,0 -6.68,2.992 -6.68,6.68 v 0.891 c 0,3.687 2.992,6.679 6.68,6.679 3.688,0 6.676,-2.992 6.676,-6.679 v -0.891 c 0,-3.688 -2.989,-6.68 -6.676,-6.68 l 0,0 z m 26.711,0 c -3.688,0 -6.676,2.992 -6.676,6.68 v 0.891 c 0,3.687 2.988,6.679 6.676,6.679 3.688,0 6.68,-2.992 6.68,-6.679 v -0.891 c -10e-4,-3.688 -2.989,-6.68 -6.68,-6.68 l 0,0 z m 0,0"
   id="path3095"
   inkscape:connector-curvature="0"
   style="fill:#777777" />
	<path
   d="m 1045.227,849.582 v 160.277 c 0,9.836 -7.973,17.809 -17.809,17.809 H 804.809 c -9.836,0 -17.809,-7.973 -17.809,-17.809 V 849.582 h 35.617 v -53.43 c 0,-4.914 3.988,-8.902 8.906,-8.902 h 53.426 c 4.918,0 8.903,3.988 8.903,8.902 v 53.43 h 151.375 z m 0,0"
   id="path3097"
   inkscape:connector-curvature="0"
   style="fill:#fcbb9a" />
	<path
   d="m 893.852,796.152 v 53.43 h -71.235 v -53.43 c 0,-4.914 3.988,-8.902 8.906,-8.902 h 53.426 c 4.918,0 8.903,3.988 8.903,8.902 l 0,0 z m 0,0"
   id="path3099"
   inkscape:connector-curvature="0"
   style="fill:#fc8059" />
	<path
   d="m 871.59,822.867 h -26.711 c -2.457,0 -4.453,-1.992 -4.453,-4.453 v -8.902 c 0,-2.457 1.996,-4.453 4.453,-4.453 h 26.711 c 2.461,0 4.453,1.996 4.453,4.453 v 8.902 c 0,2.461 -1.992,4.453 -4.453,4.453 l 0,0 z m 0,0"
   id="path3101"
   inkscape:connector-curvature="0"
   style="fill:#f75631" />
	<path
   d="M 1014.063,1000.953 H 818.164 c -2.457,0 -4.449,-1.992 -4.449,-4.449 V 925.27 c 0,-2.461 1.992,-4.454 4.449,-4.454 h 195.898 c 2.457,0 4.449,1.993 4.449,4.454 v 71.234 c 10e-4,2.457 -1.991,4.449 -4.448,4.449 l 0,0 z M 876.043,898.555 v -8.907 c 0,-2.457 -1.992,-4.449 -4.453,-4.449 h -53.426 c -2.457,0 -4.449,1.992 -4.449,4.449 v 8.907 c 0,2.457 1.992,4.453 4.449,4.453 h 53.43 c 2.457,0 4.449,-1.996 4.449,-4.453 l 0,0 z m 142.469,0 v -8.907 c 0,-2.457 -1.992,-4.449 -4.449,-4.449 H 898.305 c -2.461,0 -4.453,1.992 -4.453,4.449 v 8.907 c 0,2.457 1.992,4.453 4.453,4.453 h 115.757 c 2.458,0 4.45,-1.996 4.45,-4.453 l 0,0 z m 0,0"
   id="path3103"
   inkscape:connector-curvature="0"
   style="fill:#fc8059" />
</g>
</svg>