<?xml version="1.0" encoding="utf-8"?><svg xmlns="http://www.w3.org/2000/svg" xmlns:xlink="http://www.w3.org/1999/xlink" version="1.1" class="page" pageAlignment="none" x="0px" y="0px" width="36px" height="36px" viewBox="0 0 36 36" enable-background="new 0 0 36 36" xml:space="preserve"><defs/><style type="text/css"/><style type="text/css"/><g type="LAYER" name="workspace" id="workspace" locked="true"/><g transform="matrix(1 0 0 1 -69.16958413289035 -69.19189453124996)"><path transform="matrix(1 0 0 1 4.547473508864641e-13 1.4210854715202004e-14)" width="35.99991210980443" height="36.00000000000003" stroke-width="0.08789041042406463" stroke-miterlimit="3" stroke="none" fill="#F2EFE2" d="M101.2563610529246,78.39263671875005 L101.2563610529246,72.32229492187506 C101.2563610529246,70.59339843750001 99.85495188011737,69.19189453125003 98.12597594738281,69.19189453125003 L76.21319231839698,69.19189453125003 C74.4842163856622,69.19189453125003 73.08271932265916,70.59339843750001 73.08271932265916,72.32229492187506 L73.08271932265916,87.78383789062508 C70.90743697540529,87.88614257812506 69.16958413288967,89.68754882812507 69.16958413288967,91.88753906250005 C69.16958413288967,94.08752929687506 70.90743697540529,95.88893554687505 73.08271932265916,95.99124023437506 L73.08271932265916,102.06149414062509 C73.08271932265916,103.79012695312505 74.4842163856622,105.19189453125006 76.21319231839698,105.19189453125006 L98.12597594738281,105.19189453125006 C99.85495188011737,105.19189453125006 101.2563610529246,103.79047851562507 101.2563610529246,102.06149414062509 L101.2563610529246,86.60012695312503 C103.43129183939527,86.49747070312506 105.1694962426941,84.69632812500004 105.1694962426941,82.49633789062506 C105.16958413289012,80.29634765625005 103.43129183939527,78.49494140625004 101.2563610529246,78.39263671875005 L101.2563610529246,78.39263671875005 Z M70.34335769844847,91.88762695312508 C70.34335769844847,90.33512695312504 71.55536349920135,89.06106445312506 73.08271932265916,88.96007812500005 L73.08271932265916,94.81508789062508 C71.55536349920135,94.71383789062506 70.34335769844847,93.44012695312503 70.34335769844847,91.88762695312508 L70.34335769844847,91.88762695312508 Z M101.2563610529246,85.42388671875005 L101.2563610529246,79.56887695312506 C102.78380476657821,79.66977539062503 103.99537111635186,80.94383789062505 103.99537111635186,82.49633789062506 C103.99537111635186,84.04848632812505 102.78380476657844,85.32254882812504 101.2563610529246,85.42388671875005 L101.2563610529246,85.42388671875005 Z M101.2563610529246,85.42388671875005 "/><path transform="matrix(1 0 0 1 4.547473508864641e-13 1.4210854715202004e-14)" width="23.086996645524323" height="17.608710937500007" stroke-width="0.08789041042406463" stroke-miterlimit="3" stroke="none" fill="#BFBBA3" d="M75.62608581012773,78.97456054687504 C75.62608581012773,78.65041992187503 75.889053276107,78.38745117187503 76.21319231839698,78.38745117187503 L83.25636105292415,78.38745117187503 C83.58050009521435,78.38745117187503 83.84346756119362,78.65041992187503 83.84346756119362,78.97456054687504 C83.84346756119362,79.29861328125006 83.58050009521435,79.56131835937504 83.25636105292415,79.56131835937504 L76.21319231839698,79.56131835937504 C75.889053276107,79.56131835937504 75.62608581012773,79.29861328125006 75.62608581012773,78.97456054687504 L75.62608581012773,78.97456054687504 Z M98.12597594738281,94.82229492187503 L91.08236776187618,94.82229492187503 C90.75822871958621,94.82229492187503 90.49561281439014,95.08526367187503 90.49561281439014,95.40940429687507 C90.49561281439014,95.73354492187508 90.75822871958621,95.99616210937504 91.08236776187618,95.99616210937504 L98.12597594738281,95.99616210937504 C98.45011498967301,95.99616210937504 98.71308245565206,95.73354492187505 98.71308245565206,95.40940429687507 C98.71308245565206,95.08491210937507 98.45002709947698,94.82229492187503 98.12597594738281,94.82229492187503 L98.12597594738281,94.82229492187503 Z M84.0391990273481,89.34424804687507 L76.21319231839698,89.34424804687507 C75.889053276107,89.34424804687507 75.62608581012773,89.60686523437505 75.62608581012773,89.93100585937506 C75.62608581012773,90.25514648437508 75.889053276107,90.51811523437507 76.21319231839698,90.51811523437507 L84.0391990273481,90.51811523437507 C84.3632501794425,90.51811523437507 84.62586608463812,90.25514648437508 84.62586608463812,89.93100585937506 C84.62586608463812,89.60686523437505 84.3632501794425,89.34424804687507 84.0391990273481,89.34424804687507 L84.0391990273481,89.34424804687507 Z M98.12597594738281,89.34424804687507 L91.08236776187618,89.34424804687507 C90.75822871958621,89.34424804687507 90.49561281439014,89.60686523437505 90.49561281439014,89.93100585937506 C90.49561281439014,90.25514648437508 90.75822871958621,90.51811523437507 91.08236776187618,90.51811523437507 L98.12597594738281,90.51811523437507 C98.45011498967301,90.51811523437507 98.71308245565206,90.25514648437508 98.71308245565206,89.93100585937506 C98.71308245565206,89.60686523437505 98.45002709947698,89.34424804687507 98.12597594738281,89.34424804687507 L98.12597594738281,89.34424804687507 Z M83.45209251907954,84.45260742187506 C83.45209251907954,84.77701171875006 83.71505998505859,85.03971679687507 84.0391990273481,85.03971679687507 L98.12597594738281,85.03971679687507 C98.45011498967301,85.03971679687507 98.71308245565206,84.77701171875003 98.71308245565206,84.45260742187506 C98.71308245565206,84.12846679687507 98.45011498967301,83.86584960937506 98.12597594738281,83.86584960937506 L84.0391990273481,83.86584960937506 C83.71505998505859,83.86584960937506 83.45209251907954,84.12855468750004 83.45209251907954,84.45260742187506 L83.45209251907954,84.45260742187506 Z M76.21319231839698,85.03971679687507 L79.34357742393831,85.03971679687507 C79.66762857603203,85.03971679687507 79.93033237142367,84.77701171875003 79.93033237142367,84.45260742187506 C79.93033237142367,84.12846679687507 79.66762857603203,83.86584960937506 79.34357742393831,83.86584960937506 L76.21319231839698,83.86584960937506 C75.889053276107,83.86584960937506 75.62608581012773,84.12855468750004 75.62608581012773,84.45260742187506 C75.62608581012773,84.77701171875003 75.889053276107,85.03971679687507 76.21319231839698,85.03971679687507 L76.21319231839698,85.03971679687507 Z M81.61290228075018,83.86584960937506 C81.28885112865669,83.86584960937506 81.02614733326504,84.12855468750004 81.02614733326504,84.45295898437504 C81.02614733326504,84.77701171875003 81.28885112865669,85.03971679687507 81.61290228075018,85.03971679687507 L81.69121244525172,85.03971679687507 C82.0153514875417,85.03971679687507 82.27823106332494,84.77701171875003 82.27823106332494,84.45295898437504 C82.27823106332494,84.12855468750004 82.01526359734567,83.86584960937506 81.69121244525172,83.86584960937506 L81.61290228075018,83.86584960937506 Z M86.4650563229668,89.34424804687507 L86.38683404866151,89.34424804687507 C86.062695006372,89.34424804687507 85.80007910117638,89.60686523437505 85.80007910117638,89.93100585937506 C85.80007910117638,90.25514648437508 86.062695006372,90.51811523437507 86.38683404866151,90.51811523437507 L86.4650563229668,90.51811523437507 C86.789195365257,90.51811523437507 87.05216283123627,90.25514648437508 87.05216283123627,89.93100585937506 C87.05216283123627,89.60686523437505 86.789195365257,89.34424804687507 86.4650563229668,89.34424804687507 L86.4650563229668,89.34424804687507 Z M88.73473274056278,89.34424804687507 L88.65642257606169,89.34424804687507 C88.33228353377149,89.34424804687507 88.06931606779222,89.60686523437505 88.06931606779222,89.93100585937506 C88.06931606779222,90.25514648437508 88.33228353377149,90.51811523437507 88.65642257606169,90.51811523437507 L88.73473274056278,90.51811523437507 C89.05887178285252,90.51811523437507 89.3218392488318,90.25514648437508 89.3218392488318,89.93100585937506 C89.3218392488318,89.60686523437505 89.05887178285252,89.34424804687507 88.73473274056278,89.34424804687507 L88.73473274056278,89.34424804687507 Z M88.73473274056278,89.34424804687507 "/><path transform="matrix(1 0 0 1 4.547473508864641e-13 1.4210854715202004e-14)" width="36.000000000000455" height="22.292797851562568" stroke-width="0.08789041042406463" stroke-miterlimit="3" stroke="none" fill="#FC8059" d="M87.72302869614896,95.84613281250009 L84.67912754332269,98.24800781250005 C84.52637438293755,98.36850585937509 84.27878770123198,98.36850585937509 84.12603454084683,98.24800781250005 C84.05255833711749,98.19000000000008 84.01133783526416,98.11133789062507 84.01133783526416,98.02968750000005 L84.01133783526416,95.99616210937506 L73.27809922803112,95.99616210937506 C71.01255364964027,95.99616210937506 69.16958413288967,94.15318359375007 69.16958413288967,91.88762695312508 C69.16958413288967,89.68763671875007 70.90743697540529,87.88623046875009 73.08271932265916,87.78392578125008 L73.08271932265916,88.96016601562505 C71.55536349920135,89.06106445312506 70.34335769844847,90.33521484375004 70.34335769844847,91.88771484375005 C70.34335769844847,93.50613281250006 71.66004072245732,94.82247070312508 73.27809922803112,94.82247070312508 L84.01133783526416,94.82247070312508 L84.01133783526416,92.78929687500008 C84.01133783526416,92.70720703125005 84.05255833711749,92.62863281250006 84.12603454084683,92.57097656250005 C84.27878770123198,92.45047851562506 84.52637438293755,92.45047851562506 84.67912754332269,92.57097656250005 L87.72302869614896,94.9728515625001 C88.0285350169188,95.21367187500005 88.0285350169188,95.60478515625005 87.72302869614896,95.84613281250009 L87.72302869614896,95.84613281250009 Z M101.06071747696546,78.38745117187503 L90.29996923843146,78.38745117187503 L90.29996923843146,76.35427734375006 C90.29996923843146,76.27262695312504 90.25874873657813,76.19396484375005 90.18527253284901,76.13595703125006 C90.03251937246364,76.01545898437502 89.7849326907583,76.01545898437502 89.63217953037292,76.13595703125006 L86.58836626774246,78.53783203125002 C86.28277205677682,78.77882812500005 86.28277205677682,79.16994140625002 86.58836626774246,79.41128906250003 L89.63217953037292,81.81316406250002 C89.7849326907583,81.933662109375 90.03251937246364,81.933662109375 90.18527253284901,81.81316406250002 C90.25874873657813,81.75515625000006 90.29996923843146,81.67649414062504 90.29996923843146,81.59475585937506 L90.29996923843146,79.56166992187502 L101.06071747696546,79.56166992187502 C102.67912754332247,79.56166992187502 103.99545900654789,80.87791992187505 103.99545900654789,82.49633789062503 C103.99545900654789,84.04883789062504 102.78389265677424,85.32254882812504 101.25644894312018,85.42388671875005 L101.25644894312018,86.60012695312503 C103.43137972959107,86.49747070312503 105.16958413289012,84.69606445312508 105.16958413289012,82.49598632812504 C105.16958413289012,80.23078125000004 103.32626305535632,78.38745117187503 101.06071747696546,78.38745117187503 L101.06071747696546,78.38745117187503 Z M101.06071747696546,78.38745117187503 "/></g></svg>