<?xml version="1.0" encoding="UTF-8" standalone="no"?>
<!-- Created with Inkscape (http://www.inkscape.org/) -->

<svg
   xmlns:dc="http://purl.org/dc/elements/1.1/"
   xmlns:cc="http://creativecommons.org/ns#"
   xmlns:rdf="http://www.w3.org/1999/02/22-rdf-syntax-ns#"
   xmlns:svg="http://www.w3.org/2000/svg"
   xmlns="http://www.w3.org/2000/svg"
   xmlns:sodipodi="http://sodipodi.sourceforge.net/DTD/sodipodi-0.dtd"
   xmlns:inkscape="http://www.inkscape.org/namespaces/inkscape"
   width="35"
   height="35"
   id="svg2"
   version="1.1"
   inkscape:version="0.48.4 r9939"
   sodipodi:docname="Новый документ 1">
  <defs
     id="defs4" />
  <sodipodi:namedview
     id="base"
     pagecolor="#ffffff"
     bordercolor="#666666"
     borderopacity="1.0"
     inkscape:pageopacity="0.0"
     inkscape:pageshadow="2"
     inkscape:zoom="0.35"
     inkscape:cx="375"
     inkscape:cy="748.57143"
     inkscape:document-units="px"
     inkscape:current-layer="layer1"
     showgrid="false"
     inkscape:window-width="1366"
     inkscape:window-height="715"
     inkscape:window-x="-8"
     inkscape:window-y="-8"
     inkscape:window-maximized="1" />
  <metadata
     id="metadata7">
    <rdf:RDF>
      <cc:Work
         rdf:about="">
        <dc:format>image/svg+xml</dc:format>
        <dc:type
           rdf:resource="http://purl.org/dc/dcmitype/StillImage" />
        <dc:title></dc:title>
      </cc:Work>
    </rdf:RDF>
  </metadata>
  <g
     inkscape:label="Layer 1"
     inkscape:groupmode="layer"
     id="layer1"
     transform="translate(0,-1017.3622)">
    <g
       id="g3038"
       transform="matrix(0.06835951,0,0,0.06835937,-6.8359509e-5,1017.3622)">
      <path
         id="path2986"
         d="M 416,512 H 104.348 C 79.76,512 59.826,492.067 59.826,467.478 V 77.913 c 0,-24.588 19.933,-44.522 44.522,-44.522 H 416 c 24.588,0 44.522,19.933 44.522,44.522 V 467.478 C 460.522,492.066 440.589,512 416,512 z"
         style="fill:#84a7b7"
         inkscape:connector-curvature="0" />
      <path
         id="path2988"
         d="m 393.739,467.478 h -267.13 c -12.295,0 -22.261,-9.966 -22.261,-22.261 V 44.522 c 0,-12.295 9.966,-22.261 22.261,-22.261 h 267.13 c 12.295,0 22.261,9.966 22.261,22.261 v 400.696 c 0,12.294 -9.966,22.26 -22.261,22.26 z"
         style="fill:#f2efe2"
         inkscape:connector-curvature="0" />
      <path
         id="path2990"
         d="m 293.565,66.783 h -66.783 c -18.442,0 -33.391,-14.949 -33.391,-33.391 l 0,0 C 193.391,14.949 208.34,0 226.782,0 h 66.783 c 18.442,0 33.391,14.949 33.391,33.391 l 0,0 c 0,18.442 -14.949,33.392 -33.391,33.392 z"
         style="fill:#fed766"
         inkscape:connector-curvature="0" />
      <path
         id="path2992"
         d="m 322.479,16.696 c 2.843,4.913 4.478,10.612 4.478,16.696 l 0,0 c 0,18.442 -14.949,33.391 -33.391,33.391 h -66.783 c -18.442,0 -33.391,-14.949 -33.391,-33.391 l 0,0 c 0,-6.084 1.635,-11.783 4.478,-16.696 5.774,9.977 16.555,16.696 28.914,16.696 h 66.783 c 12.356,-0.001 23.137,-6.719 28.912,-16.696 z"
         style="fill:#e8ba52"
         inkscape:connector-curvature="0" />
      <path
         id="path2994"
         d="m 182.261,328.348 v 89.043 c 0,9.22 -7.475,16.696 -16.696,16.696 -9.22,0 -16.696,-7.475 -16.696,-16.696 v -89.043 c 0,-9.22 7.475,-16.696 16.696,-16.696 9.221,0 16.696,7.475 16.696,16.696 z m 109.45,-217.044 0,0 c -9.22,0 -16.696,7.475 -16.696,16.696 v 289.391 c 0,9.22 7.475,16.696 16.696,16.696 l 0,0 c 9.22,0 16.696,-7.475 16.696,-16.696 V 128 c -10e-4,-9.22 -7.476,-16.696 -16.696,-16.696 z"
         style="fill:#a3ccaa"
         inkscape:connector-curvature="0" />
      <path
         id="path2996"
         d="m 245.334,194.783 v 222.609 c 0,9.22 -7.475,16.696 -16.696,16.696 l 0,0 c -9.22,0 -16.696,-7.475 -16.696,-16.696 V 194.783 c 0,-9.22 7.475,-16.696 16.696,-16.696 l 0,0 c 9.22,0 16.696,7.475 16.696,16.696 z m 109.448,-16.696 c -9.22,0 -16.696,7.475 -16.696,16.696 v 222.609 c 0,9.22 7.475,16.696 16.696,16.696 9.22,0 16.696,-7.475 16.696,-16.696 V 194.783 c 0,-9.221 -7.474,-16.696 -16.696,-16.696 z"
         style="fill:#80a886"
         inkscape:connector-curvature="0" />
      <path
         id="path2998"
         d="m 512,147.478 c 0,30.736 -24.917,55.652 -55.652,55.652 -10.194,0 -19.741,-2.755 -27.959,-7.54 l -69.095,69.096 c -1.565,1.566 -3.689,2.445 -5.902,2.445 H 167.632 L 14.25,420.511 c -1.629,1.631 -3.765,2.445 -5.902,2.445 -2.137,0 -4.273,-0.815 -5.902,-2.445 -3.26,-3.26 -3.26,-8.546 0,-11.805 L 158.271,252.88 c 1.565,-1.566 3.689,-2.445 5.902,-2.445 h 185.76 l 65.375,-65.375 c -9.073,-9.902 -14.613,-23.093 -14.613,-37.582 0,-30.736 24.917,-55.652 55.652,-55.652 30.735,0 55.653,24.917 55.653,55.652 z"
         style="fill:#fcbb9a"
         inkscape:connector-curvature="0" />
      <path
         id="path3000"
         d="m 187.826,258.783 c 0,12.295 -9.966,22.261 -22.261,22.261 -12.295,0 -22.261,-9.966 -22.261,-22.261 0,-12.294 9.966,-22.261 22.261,-22.261 12.295,0 22.261,9.967 22.261,22.261 z m -128,77.913 c -12.295,0 -22.261,9.966 -22.261,22.261 0,12.295 9.966,22.261 22.261,22.261 12.295,0 22.261,-9.966 22.261,-22.261 0,-12.295 -9.966,-22.261 -22.261,-22.261 z M 354.782,236.522 c -12.295,0 -22.261,9.967 -22.261,22.261 0,12.295 9.966,22.261 22.261,22.261 12.295,0 22.261,-9.966 22.261,-22.261 0,-12.294 -9.966,-22.261 -22.261,-22.261 z M 456.348,125.217 c -12.295,0 -22.261,9.966 -22.261,22.261 0,12.295 9.966,22.261 22.261,22.261 12.295,0 22.261,-9.966 22.261,-22.261 0,-12.294 -9.967,-22.261 -22.261,-22.261 z"
         style="fill:#fc8059"
         inkscape:connector-curvature="0" />
      <g
         id="g3002">
</g>
      <g
         id="g3004">
</g>
      <g
         id="g3006">
</g>
      <g
         id="g3008">
</g>
      <g
         id="g3010">
</g>
      <g
         id="g3012">
</g>
      <g
         id="g3014">
</g>
      <g
         id="g3016">
</g>
      <g
         id="g3018">
</g>
      <g
         id="g3020">
</g>
      <g
         id="g3022">
</g>
      <g
         id="g3024">
</g>
      <g
         id="g3026">
</g>
      <g
         id="g3028">
</g>
      <g
         id="g3030">
</g>
    </g>
  </g>
</svg>
