<?xml version="1.0" encoding="utf-8"?><svg xmlns="http://www.w3.org/2000/svg" xmlns:xlink="http://www.w3.org/1999/xlink" version="1.1" class="page" pageAlignment="none" x="0px" y="0px" width="34px" height="36px" viewBox="0 0 34 36" enable-background="new 0 0 34 36" xml:space="preserve"><defs><clipPath id="_1487081790387_0_"><path transform="matrix(1 0 0 1 69.95668316831666 68.97634345794391)" width="34" height="36" stroke-width="0.08764091615301552" stroke-miterlimit="3" stroke="none" fill="#000" d="M0,-2.842170943040401e-14 L34,-2.842170943040401e-14 L34,35.99999999999997 L0,35.99999999999997 L0,-2.842170943040401e-14 Z "/></clipPath></defs><style type="text/css"/><style type="text/css"/><g type="LAYER" name="workspace" id="workspace" locked="true"/><g transform="matrix(1 0 0 1 -69.95668316831689 -68.97634345794386)"><g transform="matrix(1 0 0 1 0 2.842170943040401e-14)"><g clip-path="url(#_1487081790387_0_)"><path width="33.95361608910886" height="35.88767523364484" stroke-width="0.08764091615301552" stroke-miterlimit="3" stroke="none" fill="#B2D1D8" d="M103.68816522277211,83.99842289719628 C102.986143770627,82.07838785046728 100.84589005775524,81.08481308411216 98.91690903465292,81.7837324766355 L97.90604372937264,82.14988317757012 L97.90604372937264,82.26728971962619 C97.90604372937264,81.28501752336449 97.44133147689763,80.35995911214953 96.65199566831643,79.77056074766357 L89.87338593234313,74.70928738317757 L89.87338593234313,71.92990654205609 C89.87338593234313,70.31688084112152 88.55534240924044,69.0042932242991 86.9348545792077,69.0042932242991 C85.31410375412497,69.0042932242991 83.99597256600646,70.31688084112152 83.99597256600646,71.92990654205609 L83.99597256600646,74.70928738317757 L77.21701216996689,79.77056074766357 C76.42767636138569,80.35995911214953 75.963402433993,81.28501752336449 75.963402433993,82.26728971962619 L75.963402433993,90.13878504672898 C75.89660169141894,90.13878504672898 75.82874896864678,90.14938668224296 75.76238655115503,90.1733936915888 L72.40604372937241,91.38969042056074 C70.47741336633635,92.08869742990656 69.47925948844863,94.21910046728969 70.18119327557747,96.13913551401869 C70.73085292904284,97.64272780373834 72.16189665841534,98.5780373831776 73.68306002475242,98.57768691588787 C74.10455342409227,98.57768691588787 74.53367367986789,98.50592873831779 74.95244946369621,98.35426401869161 L75.963402433993,97.98802570093461 L75.963402433993,101.77132009345799 C75.963402433993,103.4949182242991 77.36665635313489,104.89196845794395 79.0976897689768,104.89196845794395 L94.77131806930674,104.89196845794395 C96.50270214521402,104.89196845794395 97.90604372937264,103.4949182242991 97.90604372937264,101.77132009345799 L97.90604372937264,90.03714953271033 L101.46296410891091,88.74821845794396 C103.391945132013,88.04929906542056 104.39018667491723,85.91845794392528 103.68816522277211,83.99842289719628 L103.68816522277211,83.99842289719628 Z M85.17138510726068,71.92990654205609 C85.17138510726068,70.9620035046729 85.96238655115485,70.1745035046729 86.9349422442242,70.1745035046729 C87.90714727722752,70.1745035046729 88.69814872112192,70.9620035046729 88.69814872112192,71.92990654205609 L88.69814872112192,73.85914135514021 C88.4769698844882,73.74550233644861 88.23106951320119,73.68530957943928 87.9797339108909,73.68530957943928 L85.8897999174917,73.68530957943928 C85.63881497524699,73.68530957943928 85.39256394389417,73.74550233644861 85.17173576732625,73.85914135514021 L85.17173576732625,71.92990654205609 L85.17138510726068,71.92990654205609 Z M74.55050536303634,97.25458528037386 C73.23079620461999,97.73271028037387 71.76652743399336,97.05297897196262 71.28603547854777,95.73907710280376 C70.80563118811824,94.42517523364485 71.48880466171613,92.96749415887852 72.80816316006553,92.48936915887852 L75.9634900990095,91.34579439252336 L75.9634900990095,96.74255257009348 L74.55050536303634,97.25458528037386 Z M101.06137066831639,87.64853971962619 L97.90613139438915,88.79167640186917 L97.90613139438915,83.35706775700937 C97.97293213696344,83.35706775700937 98.04069719471931,83.34646612149534 98.10714727722757,83.32245911214953 L99.31902846534626,82.88332359813087 C100.63882528877843,82.40493574766357 102.10309405940575,83.08492990654209 102.58349834983483,84.39883177570094 C103.06390264026345,85.71247079439253 102.3810798267325,87.17041471962618 101.06137066831639,87.64853971962619 L101.06137066831639,87.64853971962619 Z M101.06137066831639,87.64853971962619 "/></g></g><path transform="matrix(1 0 0 1 0 2.842170943040401e-14)" width="21.94264129537987" height="31.207009345794347" stroke-width="0.08764091615301552" stroke-miterlimit="3" stroke="none" fill="#FC8059" d="M75.96349009900928,97.98802570093461 L97.90604372937264,90.0371495327103 L97.90604372937264,101.77167056074767 C97.90604372937264,103.49491822429907 96.50270214521402,104.89231892523362 94.77131806930674,104.89231892523362 L79.09812809405935,104.89231892523362 C77.3667440181514,104.89231892523362 75.9634900990095,103.49518107476636 75.9634900990095,101.77167056074767 L75.9634900990095,97.98802570093461 Z M96.6524339933992,79.77056074766357 L89.87347359735963,74.70928738317757 L88.69823638613843,73.85914135514021 C88.4770575495047,73.74550233644861 88.2311571782177,73.68530957943928 87.97982157590741,73.68530957943928 L85.88988758250775,73.68530957943928 C85.6389026402635,73.68530957943928 85.39265160891068,73.74550233644861 85.17182343234276,73.85914135514021 L85.17182343234276,73.68530957943928 L83.99614789603947,73.68530957943928 L83.99614789603947,74.70928738317757 L77.21718749999991,79.77056074766357 C76.42785169141894,80.35995911214953 75.96357776402601,81.28501752336449 75.96357776402601,82.26728971962619 L75.96357776402601,96.74255257009348 L97.90613139438915,88.79167640186917 L97.90613139438915,82.26728971962619 C97.90604372937264,81.28501752336449 97.44168213696321,80.35995911214953 96.6524339933992,79.77056074766357 L96.6524339933992,79.77056074766357 Z M96.6524339933992,79.77056074766357 "/><path transform="matrix(1 0 0 1 0 2.842170943040401e-14)" width="3.1350763201319296" height="3.1206483644859873" stroke-width="0.08764091615301552" stroke-miterlimit="3" stroke="none" fill="#BF5243" d="M88.50230507425727,81.29185163551402 C88.50230507425727,82.15365070093462 87.80028362211192,82.85221962616824 86.9349422442242,82.85221962616824 C86.06925020627045,82.85221962616824 85.36722875412534,82.15365070093462 85.36722875412534,81.29185163551402 C85.36722875412534,80.43005257009348 86.06925020627045,79.73157126168225 86.9349422442242,79.73157126168225 C87.80028362211192,79.73157126168225 88.50230507425727,80.43005257009348 88.50230507425727,81.29185163551402 L88.50230507425727,81.29185163551402 Z M88.50230507425727,81.29185163551402 "/><path transform="matrix(1 0 0 1 0 2.842170943040401e-14)" width="5.877413366336668" height="12.872926401869137" stroke-width="0.08764091615301552" stroke-miterlimit="3" stroke="none" fill="#FED766" d="M89.87338593234313,71.92990654205609 L89.87338593234313,78.95151869158879 C89.87338593234313,80.5646320093458 88.55534240924044,81.87721962616824 86.9348545792077,81.87721962616824 C86.61023102310219,81.87721962616824 86.34688531353117,81.61507009345796 86.34688531353117,81.29193925233646 C86.34688531353117,80.9688960280374 86.61023102310219,80.70709696261686 86.9348545792077,80.70709696261686 C87.90705961221101,80.70709696261686 88.69806105610542,79.91950934579442 88.69806105610542,78.95160630841123 L88.69806105610542,71.9299941588785 C88.69806105610542,70.96209112149533 87.90705961221101,70.17459112149537 86.9348545792077,70.17459112149537 C85.96229888613834,70.17459112149537 85.17129744224417,70.96209112149533 85.17129744224417,71.9299941588785 L85.17129744224417,73.85922897196265 C85.09388923267306,73.89891939252338 85.01954929867975,73.94483060747665 84.94932962046187,73.99748831775706 L83.99597256600646,74.70937500000001 L83.99597256600646,71.92990654205609 C83.99597256600646,70.31688084112152 85.31410375412497,69.0042932242991 86.9348545792077,69.0042932242991 C88.55534240924044,69.0042932242991 89.87338593234313,70.31688084112149 89.87338593234313,71.92990654205609 L89.87338593234313,71.92990654205609 Z M89.87338593234313,71.92990654205609 "/><path transform="matrix(1 0 0 1 0 2.842170943040401e-14)" width="12.538902640264496" height="12.482681074766361" stroke-width="0.08764091615301552" stroke-miterlimit="3" stroke="none" fill="#DCF3F9" d="M100.25730713696362,90.84900700934581 C100.25730713696362,94.29611565420565 97.45027330858034,97.09030373831779 93.98785581683137,97.09030373831779 C90.5254383250824,97.09030373831779 87.71840449669912,94.29602803738318 87.71840449669912,90.84900700934581 C87.71840449669912,87.4021612149533 90.5254383250824,84.60762266355142 93.98785581683137,84.60762266355142 C97.45027330858034,84.60762266355142 100.25730713696362,87.4021612149533 100.25730713696362,90.84900700934581 L100.25730713696362,90.84900700934581 Z M100.25730713696362,90.84900700934581 "/><path transform="matrix(1 0 0 1 0 2.842170943040401e-14)" width="6.269451320132248" height="6.2413843457943585" stroke-width="0.08764091615301552" stroke-miterlimit="3" stroke="none" fill="#84A7B7" d="M97.1225814768975,90.84900700934581 C97.1225814768975,92.57251752336451 95.71888923267306,93.96965537383177 93.98785581683137,93.96965537383177 C92.25647174092364,93.96965537383177 90.85313015676525,92.57251752336451 90.85313015676525,90.84900700934581 C90.85313015676525,89.1257593457944 92.25647174092364,87.72827102803741 93.98785581683137,87.72827102803741 C95.71888923267306,87.72818341121494 97.1225814768975,89.1257593457944 97.1225814768975,90.84900700934581 L97.1225814768975,90.84900700934581 Z M97.1225814768975,90.84900700934581 "/></g></svg>