<?xml version="1.0" encoding="utf-8"?><svg xmlns="http://www.w3.org/2000/svg" xmlns:xlink="http://www.w3.org/1999/xlink" version="1.1" class="page" pageAlignment="none" x="0px" y="0px" width="36px" height="32px" viewBox="0 0 36 32" enable-background="new 0 0 36 32" xml:space="preserve"><defs><clipPath id="_1487081884556_0_"><path transform="matrix(1 0 0 1 69.11592505854787 70.56899934597784)" width="36" height="32.00000000000003" stroke-width="0.0875119420927969" stroke-miterlimit="3" stroke="none" fill="#000" d="M-4.547473508864641e-13,0 L35.999999999999545,0 L35.999999999999545,32.00000000000003 L-4.547473508864641e-13,32.00000000000003 L-4.547473508864641e-13,0 Z "/></clipPath><clipPath id="_1487081884556_1_"><path transform="matrix(1 0 0 1 69.11592505854787 70.56899934597784)" width="36" height="32.00000000000003" stroke-width="0.0875119420927969" stroke-miterlimit="3" stroke="none" fill="#000" d="M-4.547473508864641e-13,0 L35.999999999999545,0 L35.999999999999545,32.00000000000003 L-4.547473508864641e-13,32.00000000000003 L-4.547473508864641e-13,0 Z "/></clipPath></defs><style type="text/css"/><style type="text/css"/><g type="LAYER" name="workspace" id="workspace" locked="true"/><g transform="matrix(1 0 0 1 -69.11592505854765 -70.56899934597779)"><path transform="matrix(1 0 0 1 4.547473508864641e-13 0)" width="35.97207259953166" height="6.179202092871179" stroke-width="0.0875119420927969" stroke-miterlimit="3" stroke="none" fill="#A5A5A5" d="M105.08799765807953,99.39568345323754 C105.08799765807953,101.10189666448669 103.69487704918015,102.48528449967309 101.97646370023404,102.48528449967309 L72.22745901639291,102.48528449967309 C70.5090456674468,102.48528449967309 69.11592505854787,101.10198386745161 69.11592505854787,99.39568345323754 C69.11592505854787,97.68938303902341 70.5090456674468,96.3060824068019 72.22745901639291,96.3060824068019 L101.97646370023404,96.3060824068019 C103.69478922716598,96.30651842162645 105.08799765807953,97.6894702419883 105.08799765807953,99.39568345323754 L105.08799765807953,99.39568345323754 Z M105.08799765807953,99.39568345323754 "/><path transform="matrix(1 0 0 1 4.547473508864641e-13 0)" width="26.979274004683703" height="1.158578591672125" stroke-width="0.0875119420927969" stroke-miterlimit="3" stroke="none" fill="#777777" d="M81.0415398126463,100.16830172225868 C81.0415398126463,100.4881621975148 80.77877634660422,100.74741661216494 80.45488875878209,100.74741661216494 L74.19897540983561,100.74741661216494 C73.87508782201394,100.74741661216494 73.61232435597185,100.48816219751482 73.61232435597185,100.16830172225868 C73.61232435597185,99.84844124700253 73.87508782201394,99.58883802049282 74.19897540983561,99.58883802049282 L80.45488875878209,99.58883802049282 C80.77877634660422,99.58883802049282 81.0415398126463,99.84844124700253 81.0415398126463,100.16830172225868 L81.0415398126463,100.16830172225868 Z M100.00494730679134,99.58883802049282 L88.2749121779857,99.58883802049282 C87.95102459016334,99.58883802049282 87.68826112412125,99.84844124700253 87.68826112412125,100.16830172225868 C87.68826112412125,100.4881621975148 87.95102459016334,100.74741661216494 88.2749121779857,100.74741661216494 L100.00494730679134,100.74741661216494 C100.32883489461346,100.74741661216494 100.59159836065555,100.48816219751482 100.59159836065555,100.16830172225868 C100.59159836065555,99.84844124700253 100.32874707259907,99.58883802049282 100.00494730679134,99.58883802049282 L100.00494730679134,99.58883802049282 Z M85.61618852458969,99.58883802049282 L85.53793911007006,99.58883802049282 C85.2141393442621,99.58883802049282 84.95128805620584,99.84844124700253 84.95128805620584,100.16830172225868 C84.95128805620584,100.4881621975148 85.21413934426232,100.74741661216494 85.53793911007006,100.74741661216494 L85.61618852458969,100.74741661216494 C85.93998829039765,100.74741661216494 86.20248829039792,100.48816219751482 86.20248829039792,100.16830172225868 C86.20248829039792,99.84844124700253 85.93998829039765,99.58883802049282 85.61618852458969,99.58883802049282 L85.61618852458969,99.58883802049282 Z M83.1917740046838,99.58883802049282 L83.11361241217787,99.58883802049282 C82.78972482435574,99.58883802049282 82.52731264636964,99.84844124700253 82.52731264636964,100.16830172225868 C82.52731264636964,100.4881621975148 82.78972482435574,100.74741661216494 83.11361241217787,100.74741661216494 L83.1917740046838,100.74741661216494 C83.51566159250547,100.74741661216494 83.77842505854801,100.48816219751482 83.77842505854801,100.16830172225868 C83.77842505854801,99.84844124700253 83.51566159250547,99.58883802049282 83.1917740046838,99.58883802049282 L83.1917740046838,99.58883802049282 Z M83.1917740046838,99.58883802049282 "/><path transform="matrix(1 0 0 1 4.547473508864641e-13 0)" width="31.280093676815113" height="23.17113581861784" stroke-width="0.0875119420927969" stroke-miterlimit="3" stroke="none" fill="#CCCAC4" d="M102.74183255269281,77.78609112709837 L102.74183255269281,94.74506213211258 C102.74183255269281,96.46051885764128 101.34151053864116,97.85131894484421 99.61387587821991,97.85131894484421 L74.59004683840726,97.85131894484421 C72.86241217798579,97.85131894484421 71.4617388758777,96.46051885764128 71.4617388758777,94.74506213211258 L71.4617388758777,77.78609112709837 C71.4617388758777,76.07063440156973 72.86241217798579,74.68018312622637 74.59004683840726,74.68018312622637 L99.61387587821991,74.68018312622637 C101.34142271662745,74.68018312622637 102.74183255269281,76.07063440156973 102.74183255269281,77.78609112709837 L102.74183255269281,77.78609112709837 Z M102.74183255269281,77.78609112709837 "/><path transform="matrix(1 0 0 1 4.547473508864641e-13 0)" width="28.151873536299263" height="20.081621975147186" stroke-width="0.0875119420927969" stroke-miterlimit="3" stroke="none" fill="#F2EFE2" d="M99.61387587821991,96.30651842162645 L74.59004683840726,96.30651842162645 C73.72622950819664,96.30651842162645 73.02602459016384,95.61124918247226 73.02602459016384,94.75352081970799 L73.02602459016384,77.77789404839773 C73.02602459016384,76.92016568563339 73.72622950819664,76.22489644647926 74.59004683840726,76.22489644647926 L99.61387587821991,76.22489644647926 C100.47769320843076,76.22489644647926 101.1778981264631,76.92016568563339 101.1778981264631,77.77789404839773 L101.1778981264631,94.75352081970799 C101.1778103044494,95.6109003706127 100.47760538641683,96.30651842162645 99.61387587821991,96.30651842162645 L99.61387587821991,96.30651842162645 Z M99.61387587821991,96.30651842162645 "/><path transform="matrix(1 0 0 1 4.547473508864641e-13 0)" width="21.89578454332559" height="13.902419882276007" stroke-width="0.0875119420927969" stroke-miterlimit="3" stroke="none" fill="#FFE6AE" d="M98.04985362997604,80.09077828646183 L98.04985362997604,92.44028776978429 C98.04985362997604,92.86915195116644 97.69961943793896,93.21691737519085 97.26806206088986,93.21691737519085 L76.93586065573754,93.21691737519085 C76.50395199063223,93.21691737519085 76.15406908665045,92.86915195116644 76.15406908665045,92.44028776978429 L76.15406908665045,80.09077828646183 C76.15406908665045,79.66191410507965 76.50395199063223,79.31449749291484 76.93586065573754,79.31449749291484 L97.2677107728332,79.31449749291484 C97.69961943793896,79.31449749291484 98.04985362997604,79.66191410507965 98.04985362997604,80.09077828646183 L98.04985362997604,80.09077828646183 Z M98.04985362997604,80.09077828646183 "/><g transform="matrix(1 0 0 1 4.547473508864641e-13 0)"><g clip-path="url(#_1487081884556_0_)"><path width="21.891656908665027" height="13.90276869413563" stroke-width="0.0875119420927969" stroke-miterlimit="3" stroke="none" fill="#FCBB9A" d="M98.04985362997604,80.08676695007635 L98.04985362997604,92.44464791802933 C98.04985362997604,92.87115761935915 97.69961943793896,93.21683017222593 97.26806206088986,93.21683017222593 L76.93586065573754,93.21683017222593 C76.53144028102997,93.21683017222593 76.19894613583119,92.91362546326586 76.15819672131101,92.52461303684335 L82.4364168618265,86.32369740571185 L89.44777517564376,86.32369740571185 C89.6000585480092,86.32369740571185 89.74619437939054,86.26544582515812 89.85535714285675,86.16123828210165 L97.02962529273987,79.3140614780903 L97.26806206088986,79.3140614780903 C97.69961943793896,79.31449749291484 98.04985362997604,79.65990843688691 98.04985362997604,80.08676695007635 L98.04985362997604,80.08676695007635 Z M98.04985362997604,80.08676695007635 "/></g><g clip-path="url(#_1487081884556_1_)"><path width="30.86373829039799" height="22.966456943536087" stroke-width="0.0875119420927969" stroke-miterlimit="3" stroke="none" fill="#FC8059" d="M105.08281615925034,71.26391977327238 L104.62930327868798,75.06405057771973 C104.606645199063,75.25476346195778 104.4317037470721,75.42751253542626 104.238583138173,75.45001090037069 C104.14557962529216,75.46091127098329 104.0611826697891,75.43501199040774 104.00322014051494,75.37780684543283 L102.6032494145195,73.99511663396565 L89.85535714285675,86.16132548506657 C89.74593091334873,86.26553302812307 89.59979508196716,86.3241334205364 89.44777517564376,86.3241334205364 L82.4364168618265,86.3241334205364 L75.22473653395741,93.4468715936343 C75.11012880562043,93.55997383911064 74.9598653395783,93.61648136036634 74.80995316159238,93.61648136036634 C74.65968969555024,93.61648136036634 74.50977751756386,93.55997383911064 74.39516978922711,93.4468715936343 C74.16604215456664,93.22066710268159 74.16604215456664,92.85380422934391 74.39516978922711,92.62759973839123 L81.77880562060886,85.33490298670166 C81.88858313817332,85.22624809243526 82.03779274004637,85.16529321996957 82.19314988290353,85.16529321996957 L89.21065573770443,85.16529321996957 L101.77368266978897,73.17558316982785 L100.30064402810262,71.72068890342281 C100.24268149882892,71.66348375844787 100.21624707259934,71.58003052103778 100.22722482435574,71.48838020492703 C100.24988290398073,71.297667320689 100.42517564402783,71.12456943536087 100.6182962529274,71.10207107041647 L104.46569086650993,70.65419664268593 C104.85193208430883,70.60919991279711 105.12848360655721,70.88205798997173 105.08281615925034,71.26391977327238 L105.08281615925034,71.26391977327238 Z M105.08281615925034,71.26391977327238 "/></g></g></g></svg>