<?xml version="1.0" encoding="utf-8"?><svg xmlns="http://www.w3.org/2000/svg" xmlns:xlink="http://www.w3.org/1999/xlink" version="1.1" class="page" pageAlignment="none" x="0px" y="0px" width="36px" height="36px" viewBox="0 0 36 36" enable-background="new 0 0 36 36" xml:space="preserve"><defs/><style type="text/css"/><style type="text/css"/><g type="LAYER" name="workspace" id="workspace" locked="true"/><g transform="matrix(1 0 0 1 -69.16958413288967 -69.19155668185198)"><path transform="matrix(1 0 0 1 2.2737367544323206e-13 1.4210854715202004e-14)" width="36.000000000000455" height="6.260770211082985" stroke-width="0.08789019584865305" stroke-miterlimit="3" stroke="none" fill="#DBD8D2" d="M105.16958413289012,93.84370193504908 C105.16958413289012,95.57232630700038 103.76782339929991,96.97408704059053 102.03884746656513,96.97408704059053 L72.299969238431,96.97408704059053 C70.57099330569645,96.97408704059053 69.16958413288967,95.57232630700038 69.16958413288967,93.84370193504908 C69.16958413288967,92.11472600231436 70.57099330569645,90.71331682950755 72.299969238431,90.71331682950755 L102.0391111371523,90.71331682950755 C103.76773550910389,90.71331682950755 105.16958413289012,92.11472600231436 105.16958413289012,93.84370193504908 L105.16958413289012,93.84370193504908 Z M105.16958413289012,93.84370193504908 "/><path transform="matrix(1 0 0 1 2.2737367544323206e-13 1.4210854715202004e-14)" width="22.69553371321399" height="5.47837168763823" stroke-width="0.08789019584865305" stroke-miterlimit="3" stroke="none" fill="#B2D1D8" d="M81.30018896392107,78.19133695636243 C81.30018896392107,79.704366677897 80.07376917104853,80.93069858057324 78.56082733971016,80.93069858057324 C77.04814917895897,80.93069858057324 75.8218172762829,79.704366677897 75.8218172762829,78.19133695636243 C75.8218172762829,76.67865879561127 77.04814917895897,75.452326892935 78.56082733971016,75.452326892935 C80.07376917104853,75.452326892935 81.30018896392107,76.67865879561127 81.30018896392107,78.19133695636243 L81.30018896392107,78.19133695636243 Z M95.77798936528598,75.452326892935 C94.26531120453478,75.452326892935 93.03897930185894,76.67865879561127 93.03897930185894,78.19133695636243 C93.03897930185894,79.704366677897 94.26531120453478,80.93069858057324 95.77798936528598,80.93069858057324 C97.29101908682082,80.93069858057324 98.51735098949689,79.704366677897 98.51735098949689,78.19133695636243 C98.51735098949689,76.67865879561127 97.29101908682082,75.452326892935 95.77798936528598,75.452326892935 L95.77798936528598,75.452326892935 Z M95.77798936528598,75.452326892935 "/><path transform="matrix(1 0 0 1 2.2737367544323206e-13 1.4210854715202004e-14)" width="26.608405232396763" height="16.6057978232528" stroke-width="0.08789019584865305" stroke-miterlimit="3" stroke="none" fill="#CFDFE2" d="M83.25636105292415,87.85178783306712 L83.25636105292415,92.84096269061176 L73.86520573629969,92.84096269061176 L73.86520573629969,87.85178783306712 C73.86520573629969,85.25841182416094 75.96771500139153,83.15625411985285 78.56082733971016,83.15625411985285 C81.15420334861642,83.15616622965699 83.25636105292415,85.25832393396506 83.25636105292415,87.85178783306712 L83.25636105292415,87.85178783306712 Z M78.16936440740028,76.23516486735896 C77.304876441033,76.23516486735896 76.60421579972763,76.93582550866442 76.60421579972763,77.80031347503179 C76.60421579972763,78.66480144139912 77.304876441033,79.36554997290044 78.16936440740028,79.36554997290044 C79.03385237376779,79.36554997290044 79.73460090526896,78.66480144139912 79.73460090526896,77.80031347503179 C79.73460090526896,76.93582550866445 79.03385237376779,76.23516486735896 78.16936440740028,76.23516486735896 L78.16936440740028,76.23516486735896 Z M95.77798936528598,83.15616622965699 C93.18487702696757,83.15616622965699 91.08236776187618,85.25867549474846 91.08236776187618,87.85169994287126 L91.08236776187618,92.8408748004159 L100.47361096869645,92.8408748004159 L100.47361096869645,87.85169994287129 C100.47361096869645,85.25832393396506 98.37145326438804,83.15616622965699 95.77798936528598,83.15616622965699 L95.77798936528598,83.15616622965699 Z M95.38696588395555,76.23516486735896 C94.52247791758828,76.23516486735896 93.82172938608687,76.93582550866442 93.82172938608687,77.80031347503179 C93.82172938608687,78.66480144139912 94.52247791758828,79.36554997290044 95.38696588395555,79.36554997290044 C96.25145385032306,79.36554997290044 96.95220238182424,78.66480144139912 96.95220238182424,77.80031347503179 C96.95211449162844,76.93582550866445 96.25145385032306,76.23516486735896 95.38696588395555,76.23516486735896 L95.38696588395555,76.23516486735896 Z M95.38696588395555,76.23516486735896 "/><path transform="matrix(1 0 0 1 2.2737367544323206e-13 1.4210854715202004e-14)" width="26.608756793179737" height="7.438410945259065" stroke-width="0.08789019584865305" stroke-miterlimit="3" stroke="none" fill="#B2D1D8" d="M83.20389060600291,87.14726002314431 C83.2385193431669,87.37691710489686 83.25636105292415,87.61237493957539 83.25636105292415,87.85169994287129 L83.25636105292415,93.452326892935 L73.86520573629969,93.452326892935 L73.86520573629969,89.3389778370222 C74.51128656598348,90.32809410110296 75.62810728463205,90.98208504841277 76.89776905386157,90.98208504841277 C78.89691944863557,90.98208504841277 80.51735098949712,89.36156561735528 80.51735098949712,87.36241522258182 C80.51735098949712,85.69874170536265 82.95630392429734,85.50204344705337 83.20389060600291,87.14726002314431 L83.20389060600291,87.14726002314431 Z M97.73460090526874,87.36250311277767 C97.73460090526874,89.36165350755114 96.11408147421139,90.9821729386086 94.1152826402215,90.9821729386086 C92.84535720040435,90.9821729386086 91.7285364817551,90.32818199129876 91.08271932265961,89.33906572721803 L91.08271932265961,93.45241478313083 L100.47396252947942,93.45241478313083 L100.47396252947942,87.85178783306712 C100.47396252947942,87.61211126898787 100.4557692589392,87.37700499509272 100.42140419236239,87.1473479133402 C100.17355384006896,85.50204344705337 97.73460090526874,85.69874170536265 97.73460090526874,87.36250311277767 L97.73460090526874,87.36250311277767 Z M97.73460090526874,87.36250311277767 "/><path transform="matrix(1 0 0 1 2.2737367544323206e-13 1.4210854715202004e-14)" width="29.347766856607223" height="1.1738614557546327" stroke-width="0.08789019584865305" stroke-miterlimit="3" stroke="none" fill="#A5A5A5" d="M101.84346756119362,93.84370193504908 C101.84346756119362,94.16784097733888 101.58050009521435,94.43045688253464 101.2563610529246,94.43045688253464 L73.08271932265916,94.43045688253464 C72.75831660978201,94.43045688253464 72.4957007045864,94.16784097733886 72.4957007045864,93.84370193504908 C72.4957007045864,93.51956289275923 72.75831660978201,93.25659542678001 73.08271932265916,93.25659542678001 L101.2563610529246,93.25659542678001 C101.58050009521435,93.25668331697592 101.84346756119362,93.51929922217168 101.84346756119362,93.84370193504908 L101.84346756119362,93.84370193504908 Z M101.84346756119362,93.84370193504908 "/><path transform="matrix(1 0 0 1 2.2737367544323206e-13 1.4210854715202004e-14)" width="8.261678409773822" height="8.261678409773339" stroke-width="0.08789019584865305" stroke-miterlimit="3" stroke="none" fill="#A384E2" d="M91.30042333777669,73.32239588673876 C91.30042333777669,75.60376170038226 89.450949946533,77.45323509162542 87.16958413288967,77.45323509162542 C84.8882183192461,77.45323509162542 83.03874492800287,75.60376170038226 83.03874492800287,73.32239588673876 C83.03874492800287,71.04103007309526 84.8882183192461,69.19155668185208 87.16958413288967,69.19155668185208 C89.450949946533,69.19155668185208 91.30042333777669,71.04103007309526 91.30042333777669,73.32239588673876 L91.30042333777669,73.32239588673876 Z M91.30042333777669,73.32239588673876 "/><path transform="matrix(1 0 0 1 2.2737367544323206e-13 1.4210854715202004e-14)" width="14.162714049247825" height="24.046845474387283" stroke-width="0.08789019584865305" stroke-miterlimit="3" stroke="none" fill="#B69CF7" d="M94.25089721241602,86.46575944453387 L94.25089721241602,94.41876748648677 L80.0881831631682,94.41876748648677 L80.0881831631682,86.46575944453384 C80.0881831631682,82.79186136786431 83.06651822989147,79.81352630114101 86.74041630656052,79.81352630114101 L87.59875195921859,79.81352630114101 C91.27256214569275,79.81352630114101 94.25089721241602,82.79186136786431 94.25089721241602,86.46575944453387 L94.25089721241602,86.46575944453387 Z M86.57940146776582,70.37192201209949 C85.27581408293872,70.37192201209949 84.21902236805454,71.42862583678782 84.21902236805454,72.73221322161503 C84.21902236805454,74.03580060644227 85.27581408293872,75.09259232132648 86.57940146776582,75.09259232132648 C87.88298885259314,75.09259232132648 88.93969267728176,74.03580060644227 88.93969267728176,72.73221322161503 C88.93969267728176,71.42862583678782 87.88298885259314,70.37192201209949 86.57940146776582,70.37192201209949 L86.57940146776582,70.37192201209949 Z M86.57940146776582,70.37192201209949 "/><path transform="matrix(1 0 0 1 2.2737367544323206e-13 1.4210854715202004e-14)" width="14.162714049247825" height="10.295347678966394" stroke-width="0.08789019584865305" stroke-miterlimit="3" stroke="none" fill="#A384E2" d="M94.17162025576044,85.8323348030526 C94.22382703209428,86.17871006489217 94.25089721241602,86.5336985659249 94.25089721241602,86.89492727086285 L94.25089721241602,94.41876748648677 L80.0881831631682,94.41876748648677 L80.0881831631682,89.1377971787246 C81.06218231356297,90.6295574728638 82.74659791700196,91.61586125067736 84.66163739434819,91.61586125067736 C87.67627111195748,91.61586125067736 90.12005800752922,89.17207435510558 90.12005800752922,86.15744063749678 C90.12005800752922,83.6480876558219 93.79843848418682,83.35110668404933 94.17162025576044,85.8323348030526 L94.17162025576044,85.8323348030526 Z M94.17162025576044,85.8323348030526 "/><path transform="matrix(1 0 0 1 2.2737367544323206e-13 1.4210854715202004e-14)" width="16.434763502131318" height="16.434763502131318" stroke-width="0.08789019584865305" stroke-miterlimit="3" stroke="none" fill="#FC8059" d="M95.38696588395555,93.84370193504908 C95.38696588395555,98.38208797808592 91.7079701759269,102.06108368611471 87.16958413288967,102.06108368611471 C82.63119808985289,102.06108368611471 78.95220238182424,98.38208797808598 78.95220238182424,93.84370193504908 C78.95220238182424,89.30531589201213 82.63119808985311,85.6263201839834 87.16958413288967,85.6263201839834 C91.7079701759269,85.6263201839834 95.38696588395555,89.30540378220799 95.38696588395555,93.84370193504908 L95.38696588395555,93.84370193504908 Z M95.38696588395555,93.84370193504908 "/><path transform="matrix(1 0 0 1 2.2737367544323206e-13 1.4210854715202004e-14)" width="10.956391814493145" height="10.95639181449306" stroke-width="0.08789019584865305" stroke-miterlimit="3" stroke="none" fill="#FFFFFF" d="M92.64760425974487,93.84370193504908 C92.64760425974487,96.86905825655138 90.19494045439205,99.32172206190388 87.16958413288967,99.32172206190388 C84.14387625060408,99.32172206190388 81.69121244525172,96.86905825655138 81.69121244525172,93.84370193504908 C81.69121244525172,90.81799405276332 84.14387625060408,88.36533024741082 87.16958413288967,88.36533024741082 C90.19494045439205,88.36533024741082 92.64760425974487,90.81808194295915 92.64760425974487,93.84370193504908 L92.64760425974487,93.84370193504908 Z M92.64760425974487,93.84370193504908 "/><path transform="matrix(1 0 0 1 2.2737367544323206e-13 1.4210854715202004e-14)" width="22.69553371321399" height="22.69562160341013" stroke-width="0.08789019584865305" stroke-miterlimit="3" stroke="none" fill="#FC8059" d="M88.73473274056278,93.84370193504908 C88.73473274056278,94.70818990141639 88.03398420906115,95.40893843291771 87.16949624269387,95.40893843291771 C86.30500827632636,95.40893843291771 85.60425974482519,94.70818990141639 85.60425974482519,93.84370193504908 C85.60425974482519,92.97921396868169 86.30500827632636,92.27846543718043 87.16949624269387,92.27846543718043 C88.03398420906115,92.27846543718043 88.73473274056278,92.97921396868169 88.73473274056278,93.84370193504908 L88.73473274056278,93.84370193504908 Z M87.75633908037548,104.60445017358303 L87.75633908037548,97.56084198807609 C87.75633908037548,97.23670294578629 87.49372317517987,96.97408704059053 87.16958413288967,96.97408704059053 C86.84544509060015,96.97408704059053 86.58247762462088,97.23670294578632 86.58247762462088,97.56084198807609 L86.58247762462088,104.60445017358303 C86.58247762462088,104.92858921587289 86.84544509060015,105.19155668185205 87.16958413288967,105.19155668185205 C87.49363528498384,105.19155668185205 87.75633908037548,104.928501325677 87.75633908037548,104.60445017358303 L87.75633908037548,104.60445017358303 Z M87.75633908037548,90.12621032123856 L87.75633908037548,83.0826900259275 C87.75633908037548,82.75855098363768 87.49372317517987,82.49593507844192 87.16958413288967,82.49593507844192 C86.84544509060015,82.49593507844192 86.58247762462088,82.75855098363768 86.58247762462088,83.0826900259275 L86.58247762462088,90.12621032123856 C86.58247762462088,90.45034936352839 86.84544509060015,90.71331682950755 87.16958413288967,90.71331682950755 C87.49363528498384,90.71331682950755 87.75633908037548,90.45034936352839 87.75633908037548,90.12621032123856 L87.75633908037548,90.12621032123856 Z M98.51735098949689,93.84370193504908 C98.51735098949689,93.51956289275917 98.25438352351762,93.25659542678001 97.9302444812281,93.25659542678001 L90.88698785650422,93.25659542678001 C90.56258514362708,93.25659542678001 90.29988134823566,93.51956289275917 90.29988134823566,93.84370193504908 C90.29988134823566,94.16784097733888 90.56249725343127,94.43045688253464 90.88698785650422,94.43045688253464 L97.9302444812281,94.43045688253464 C98.25438352351762,94.43045688253464 98.51735098949689,94.16784097733886 98.51735098949689,93.84370193504908 L98.51735098949689,93.84370193504908 Z M84.0391990273481,93.84370193504908 C84.0391990273481,93.51956289275917 83.77614367117326,93.25659542678001 83.45209251907954,93.25659542678001 L76.40883589435589,93.25659542678001 C76.08443318147852,93.25659542678001 75.8218172762829,93.51956289275917 75.8218172762829,93.84370193504908 C75.8218172762829,94.16784097733888 76.08443318147852,94.43045688253464 76.40883589435589,94.43045688253464 L83.45209251907954,94.43045688253464 C83.77614367117326,94.43045688253464 84.0391990273481,94.16784097733886 84.0391990273481,93.84370193504908 L84.0391990273481,93.84370193504908 Z M84.0391990273481,93.84370193504908 "/></g></svg>