<?xml version="1.0" encoding="utf-8"?><svg xmlns="http://www.w3.org/2000/svg" xmlns:xlink="http://www.w3.org/1999/xlink" version="1.1" class="page" pageAlignment="none" x="0px" y="0px" width="36px" height="36px" viewBox="0 0 36 36" enable-background="new 0 0 36 36" xml:space="preserve"><defs><clipPath id="_1487082256691_0_"><path transform="matrix(1 0 0 1 69.11592505854787 68.97634345794391)" width="36" height="36" stroke-width="0.08771935824314363" stroke-miterlimit="3" stroke="none" fill="#000" d="M-4.547473508864641e-13,-2.842170943040401e-14 L35.999999999999545,-2.842170943040401e-14 L35.999999999999545,35.99999999999997 L-4.547473508864641e-13,35.99999999999997 L-4.547473508864641e-13,-2.842170943040401e-14 Z "/></clipPath><clipPath id="_1487082256691_1_"><path transform="matrix(1 0 0 1 69.11592505854787 68.97634345794391)" width="36" height="36" stroke-width="0.08771935824314363" stroke-miterlimit="3" stroke="none" fill="#000" d="M-4.547473508864641e-13,-2.842170943040401e-14 L35.999999999999545,-2.842170943040401e-14 L35.999999999999545,35.99999999999997 L-4.547473508864641e-13,35.99999999999997 L-4.547473508864641e-13,-2.842170943040401e-14 Z "/></clipPath></defs><style type="text/css"/><style type="text/css"/><g type="LAYER" name="workspace" id="workspace" locked="true"/><g transform="matrix(1 0 0 1 -69.11592505854765 -68.97634345794386)"><path transform="matrix(1 0 0 1 4.547473508864641e-13 2.842170943040401e-14)" width="35.97207259953166" height="6.2416471962617095" stroke-width="0.08771935824314363" stroke-miterlimit="3" stroke="none" fill="#A5A5A5" d="M105.08799765807953,74.46571261682244 L105.08799765807953,77.58636098130843 L69.11592505854787,77.58636098130843 L69.11592505854787,74.46571261682244 C69.11592505854787,72.7421144859813 70.5162470725993,71.34471378504672 72.24388173302054,71.34471378504672 L101.95995316159224,71.34471378504672 C103.68723653395773,71.34471378504672 105.08799765807953,72.7421144859813 105.08799765807953,74.46571261682244 L105.08799765807953,74.46571261682244 Z M105.08799765807953,74.46571261682244 "/><path transform="matrix(1 0 0 1 4.547473508864641e-13 2.842170943040401e-14)" width="5.865281030444976" height="1.2485397196261374" stroke-width="0.08771935824314363" stroke-miterlimit="3" stroke="none" fill="#777777" d="M97.07248243559707,73.64632009345793 L97.07248243559707,73.72438668224298 C97.07248243559707,74.04742990654206 96.80971896955452,74.30957943925232 96.48583138173285,74.30957943925232 C96.16194379391095,74.30957943925232 95.89918032786841,74.04742990654206 95.89918032786841,73.72438668224298 L95.89918032786841,73.64632009345793 C95.89918032786841,73.3232768691589 96.16194379391095,73.06103971962618 96.48583138173285,73.06103971962618 C96.80971896955452,73.06103971962618 97.07248243559707,73.3232768691589 97.07248243559707,73.64632009345793 L97.07248243559707,73.64632009345793 Z M98.83199648711934,73.06103971962618 C98.50784543325472,73.06103971962618 98.24534543325512,73.3232768691589 98.24534543325512,73.64632009345793 L98.24534543325512,73.72438668224298 C98.24534543325512,74.04742990654206 98.507757611241,74.30957943925232 98.83199648711934,74.30957943925232 C99.15588407494124,74.30957943925232 99.41829625292712,74.04742990654206 99.41829625292712,73.72438668224298 L99.41829625292712,73.64632009345793 C99.41829625292712,73.3232768691589 99.15588407494124,73.06103971962618 98.83199648711934,73.06103971962618 L98.83199648711934,73.06103971962618 Z M101.1778103044494,73.06103971962618 C100.85392271662704,73.06103971962618 100.59151053864161,73.3232768691589 100.59151053864161,73.64632009345793 L100.59151053864161,73.72438668224298 C100.59151053864161,74.04742990654206 100.85392271662704,74.30957943925232 101.1778103044494,74.30957943925232 C101.50169789227107,74.30957943925232 101.76446135831338,74.04742990654206 101.76446135831338,73.72438668224298 L101.76446135831338,73.64632009345793 C101.76446135831338,73.3232768691589 101.50169789227152,73.06103971962618 101.1778103044494,73.06103971962618 L101.1778103044494,73.06103971962618 Z M101.1778103044494,73.06103971962618 "/><path transform="matrix(1 0 0 1 4.547473508864641e-13 2.842170943040401e-14)" width="35.97207259953166" height="31.986974299065366" stroke-width="0.08771935824314363" stroke-miterlimit="3" stroke="none" fill="#E9F2F4" d="M105.08799765807953,76.02599299065422 L105.08799765807953,97.87070677570095 C105.08799765807953,99.59421728971965 103.68767564402788,100.99135514018688 101.9600409836064,100.99135514018688 L72.24388173302054,100.99135514018688 C70.5162470725993,100.99135514018688 69.11592505854787,99.59421728971965 69.11592505854787,97.87070677570095 L69.11592505854787,76.02599299065422 L73.80790398126442,76.02599299065422 L73.80790398126442,70.56466121495329 C73.80790398126442,69.70286214953269 74.50802107728327,69.00438084112152 75.37183840749412,69.00438084112152 L81.62783957845409,69.00438084112152 C82.49165690866471,69.00438084112152 83.1917740046838,69.70286214953269 83.1917740046838,70.56466121495329 L83.1917740046838,76.02599299065422 L105.08799765807953,76.02599299065422 Z M105.08799765807953,76.02599299065422 "/><path transform="matrix(1 0 0 1 4.547473508864641e-13 2.842170943040401e-14)" width="9.383870023419377" height="7.0216121495327" stroke-width="0.08771935824314363" stroke-miterlimit="3" stroke="none" fill="#C3E4ED" d="M83.1917740046838,70.56466121495329 L83.1917740046838,76.02599299065422 L73.80790398126442,76.02599299065422 L73.80790398126442,70.56466121495329 C73.80790398126442,69.70286214953269 74.50802107728327,69.00438084112152 75.37183840749412,69.00438084112152 L81.62783957845409,69.00438084112152 C82.49165690866471,69.00438084112152 83.1917740046838,69.70286214953269 83.1917740046838,70.56466121495329 L83.1917740046838,70.56466121495329 Z M83.1917740046838,70.56466121495329 "/><path transform="matrix(1 0 0 1 4.547473508864641e-13 2.842170943040401e-14)" width="6.256001170959962" height="3.1207359813083997" stroke-width="0.08771935824314363" stroke-miterlimit="3" stroke="none" fill="#B2D1D8" d="M81.62783957845409,71.73487149532711 L81.62783957845409,73.29515186915889 C81.62783957845409,73.72605140186919 81.2778688524586,74.07555490654205 80.84596018735351,74.07555490654205 L76.15406908665045,74.07555490654205 C75.7221604215456,74.07555490654205 75.37183840749412,73.72605140186919 75.37183840749412,73.29515186915889 L75.37183840749412,71.73487149532711 C75.37183840749412,71.30397196261684 75.7221604215456,70.95481892523365 76.15406908665045,70.95481892523365 L80.84596018735351,70.95481892523365 C81.2778688524586,70.95481892523365 81.62783957845409,71.30397196261684 81.62783957845409,71.73487149532711 L81.62783957845409,71.73487149532711 Z M81.62783957845409,71.73487149532711 "/><g transform="matrix(1 0 0 1 4.547473508864641e-13 2.842170943040401e-14)"><g clip-path="url(#_1487082256691_0_)"><path width="28.151873536299263" height="17.943925233644876" stroke-width="0.08771935824314363" stroke-miterlimit="3" stroke="none" fill="#CFDFE2" d="M99.61387587821991,97.48046144859815 L74.59004683840726,97.48046144859815 C73.72622950819664,97.48046144859815 73.02602459016384,96.78189252336453 73.02602459016384,95.92009345794393 L73.02602459016384,87.3385514018692 C73.02602459016384,86.47640186915889 73.72622950819664,85.77783294392525 74.59004683840726,85.77783294392525 L99.61387587821991,85.77783294392525 C100.47769320843076,85.77783294392525 101.1778981264631,86.47640186915889 101.1778981264631,87.3385514018692 L101.1778981264631,95.92009345794393 C101.1778103044494,96.78189252336453 100.47760538641683,97.48046144859815 99.61387587821991,97.48046144859815 L99.61387587821991,97.48046144859815 Z M83.1917740046838,81.09716705607475 C83.1917740046838,80.23501752336448 82.49165690866471,79.53653621495327 81.62783957845409,79.53653621495327 L74.59004683840726,79.53653621495327 C73.72622950819664,79.53653621495327 73.02602459016384,80.23501752336448 73.02602459016384,81.09716705607475 C73.02602459016384,81.95896612149535 73.72622950819664,82.65753504672897 74.59004683840726,82.65753504672897 L81.62783957845409,82.65753504672897 C82.49165690866471,82.65753504672897 83.1917740046838,81.95861565420562 83.1917740046838,81.09716705607475 L83.1917740046838,81.09716705607475 Z M101.1778103044494,81.09716705607475 C101.1778103044494,80.23501752336448 100.47760538641683,79.53653621495327 99.61378805620552,79.53653621495327 L87.1019613583137,79.53653621495327 C86.23814402810285,79.53653621495327 85.53793911007006,80.23501752336448 85.53793911007006,81.09716705607475 C85.53793911007006,81.95896612149535 86.23814402810285,82.65753504672897 87.1019613583137,82.65753504672897 L99.61387587821991,82.65753504672897 C100.47760538641683,82.65753504672897 101.1778103044494,81.95861565420562 101.1778103044494,81.09716705607475 L101.1778103044494,81.09716705607475 Z M101.1778103044494,81.09716705607475 "/></g><g clip-path="url(#_1487082256691_1_)"><path width="23.87535860655737" height="23.8197502920561" stroke-width="0.08771935824314363" stroke-miterlimit="3" stroke="none" fill="#84A7B7" d="M104.62965456674465,100.02169976635516 L100.2059718969549,95.60835280373833 C99.59534543325503,94.99915303738318 98.60497658079612,94.99915303738318 97.99426229508185,95.60835280373833 L96.22956674473062,93.84813084112152 C98.39077868852428,90.6617698598131 98.05802107728323,86.2936331775701 95.22953747072597,83.4721086448598 C92.02298009367655,80.27269275700935 86.82400468384049,80.27269275700935 83.61744730679106,83.4721086448598 C80.41088992974232,86.6710864485981 80.41088992974232,91.85800233644859 83.61744730679106,95.05698014018692 C86.44557962529257,97.87850467289722 90.8240339578449,98.21083528037384 94.01785714285688,96.05467289719626 L95.78255269320834,97.81524532710283 C95.17157494145181,98.42444509345795 95.17157494145181,99.41250000000001 95.78255269320834,100.02178738317757 L100.2062353629974,104.4351343457944 C100.81686182669773,105.04468457943928 101.80723067915687,105.04468457943928 102.41794496487114,104.4351343457944 L104.62965456674465,102.22859228971966 C105.24063231850096,101.61904205607478 105.24063231850096,100.63125000000001 104.62965456674465,100.02169976635516 L104.62965456674465,100.02169976635516 Z M104.62965456674465,100.02169976635516 "/></g></g><path transform="matrix(1 0 0 1 4.547473508864641e-13 2.842170943040401e-14)" width="3.97640515222497" height="3.9671144859813126" stroke-width="0.08771935824314363" stroke-miterlimit="3" stroke="none" fill="#256277" d="M96.2299180327866,93.84813084112152 L97.99426229508185,95.60870327102806 L95.78255269320834,97.81524532710283 L94.01785714285688,96.05467289719626 C94.44493559718944,95.76650116822431 94.85146370023404,95.43417056074766 95.22953747072597,95.05698014018692 C95.60761124121723,94.67952686915886 95.94072014051494,94.27429906542055 96.2299180327866,93.84813084112152 L96.2299180327866,93.84813084112152 Z M96.2299180327866,93.84813084112152 "/><path transform="matrix(1 0 0 1 4.547473508864641e-13 2.842170943040401e-14)" width="10.947892271662568" height="10.922313084112147" stroke-width="0.08771935824314363" stroke-miterlimit="3" stroke="none" fill="#C3E4ED" d="M94.89748243559688,89.26436915887852 C94.89748243559688,92.2806658878505 92.4467213114749,94.72570093457945 89.4233606557375,94.72570093457945 C86.40035128805607,94.72570093457945 83.94959016393432,92.2806658878505 83.94959016393432,89.26436915887852 C83.94959016393432,86.24842289719628 86.40035128805607,83.8033878504673 89.4233606557375,83.8033878504673 C92.4467213114749,83.8033878504673 94.89748243559688,86.24842289719628 94.89748243559688,89.26436915887852 L94.89748243559688,89.26436915887852 Z M94.89748243559688,89.26436915887852 "/><path transform="matrix(1 0 0 1 4.547473508864641e-13 2.842170943040401e-14)" width="10.31293911006992" height="10.288755841121514" stroke-width="0.08771935824314363" stroke-miterlimit="3" stroke="none" fill="#DCF3F9" d="M92.70166861826692,84.89036214953272 C93.55521077283356,85.52830023364486 94.21519320843072,86.40928738317756 94.57991803278628,87.42993574766355 L87.58471896955461,94.40870327102805 C86.56168032786877,94.04500584112152 85.67871779859456,93.3863901869159 85.03919789227143,92.53484228971963 L92.70166861826692,84.89036214953272 Z M84.26697892271636,91.09889018691591 C84.3584894613582,91.35516939252336 84.46861826697864,91.60268691588784 84.59596018735351,91.83951518691588 L92.00488875878204,84.44816004672897 C91.7671545667447,84.32085280373833 91.5191451990629,84.21133177570094 91.26217798594826,84.11994742990653 L84.26697892271636,91.09889018691591 Z M84.26697892271636,91.09889018691591 "/><path transform="matrix(1 0 0 1 4.547473508864641e-13 2.842170943040401e-14)" width="3.1283957845432724" height="3.1206483644859873" stroke-width="0.08771935824314363" stroke-miterlimit="3" stroke="none" fill="#FFFFFF" d="M89.44777517564376,85.18063668224302 C90.31159250585438,85.18063668224302 91.01214871194361,85.87911799065422 91.01214871194361,86.74091705607479 C91.01214871194361,87.60271612149533 90.31159250585438,88.301285046729 89.44777517564376,88.301285046729 C88.58395784543313,88.301285046729 87.88375292740034,87.60271612149533 87.88375292740034,86.74091705607479 C87.88375292740034,85.87911799065422 88.58395784543313,85.18063668224302 89.44777517564376,85.18063668224302 L89.44777517564376,85.18063668224302 Z M89.44777517564376,85.18063668224302 "/></g></svg>