<?xml version="1.0" encoding="utf-8"?><svg xmlns="http://www.w3.org/2000/svg" xmlns:xlink="http://www.w3.org/1999/xlink" version="1.1" class="page" pageAlignment="none" x="0px" y="0px" width="36px" height="36px" viewBox="0 0 36 36" enable-background="new 0 0 36 36" xml:space="preserve"><defs/><style type="text/css"/><style type="text/css"/><g type="LAYER" name="workspace" id="workspace" locked="true"/><g transform="matrix(1 0 0 1 -69.16975300353238 -69.19138775839036)"><path transform="matrix(1 0 0 1 -2.2737367544323206e-13 1.4210854715202004e-14)" width="29.739038723049816" height="29.738717734000943" stroke-width="0.08789019584891504" stroke-miterlimit="3" stroke="none" fill="#A5A5A5" d="M102.03900869382596,87.24759340141556 C102.03900869382596,88.47945937895965 101.04066152182236,89.4781532361824 99.80878952932198,89.4781532361824 L98.85570591868623,89.4781532361824 C98.54703479727777,91.10482100961177 97.90780784226558,92.61406776805835 97.00965573814506,93.93338427697064 L97.68395096691643,94.607676213309 C98.55494493421634,95.47866592773984 98.55494493421634,96.89105792682183 97.68395096691643,97.76213553123394 C96.81295699961606,98.63321313564602 95.40082177533736,98.63312524566474 94.52982780803745,97.76213553123394 L93.85518101762409,97.08749203497048 C92.53612173798342,97.98563975361513 91.02651604854441,98.62486358742494 89.40019189406212,98.93353320166115 L89.40019189406212,99.88661215860238 C89.40019189406212,101.11847813614649 88.40149316041652,102.11717199336921 87.16962116791683,102.11717199336921 C85.93774917541691,102.11717199336921 84.93905044177131,101.11847813614649 84.93905044177131,99.88661215860238 L84.93905044177131,98.93353320166115 C83.31272628728925,98.62486358742494 81.80312059785001,97.9856397536151 80.48406131820934,97.08749203497048 L79.80950241820665,97.76213553123394 C78.93842056049607,98.63312524566474 77.52637322662781,98.63312524566474 76.65537925932767,97.76213553123394 C75.78438529202754,96.89114581680313 75.78438529202754,95.47875381772108 76.65537925932767,94.607676213309 L77.32967448809904,93.93338427697064 C76.43152238397829,92.6139798780771 75.7922954289661,91.1047331196305 75.48362430755765,89.4781532361824 L74.53054069692189,89.4781532361824 C73.29866870442152,89.4781532361824 72.29996997077615,88.47981093888474 72.29996997077615,87.24759340141553 C72.29996997077615,86.0161668737778 73.29840503319019,85.01738512657379 74.53054069692189,85.01738512657379 L75.48362430755765,85.01738512657379 C75.7922954289661,83.39080524312566 76.43152238397829,81.8815584846791 77.32932292645705,80.56215408578551 L76.65502769768568,79.88786214944714 C75.78403373038623,79.01687243501634 75.78403373038623,77.60448043593432 76.65502769768568,76.73340283152221 C77.52602166498605,75.86241311709144 78.93842056049607,75.86241311709144 79.80950241820665,76.73340283152221 L80.48370975656735,77.4080463277857 C81.80312059785001,76.50998649912235 83.31237472564749,75.87067477533127 84.93905044177131,75.562005161095 L84.93905044177131,74.60866253420998 C84.93905044177131,73.37679655666587 85.93739761377492,72.37845425936827 87.1692696062753,72.37845425936827 C88.40114159877476,72.37845425936827 89.39984033242081,73.37679655666587 89.39984033242081,74.60866253420998 L89.39984033242081,75.56165360116994 C91.02651604854441,75.87032321540615 92.53577017634211,76.50963493919723 93.85509312721365,77.4076947678606 L94.52938835598502,76.73340283152221 C95.40038232328516,75.86241311709144 96.81278121879541,75.86241311709144 97.68386307650599,76.73340283152221 C98.5548570438059,77.60448043593432 98.5548570438059,79.01652087509125 97.68386307650599,79.88751058952205 L97.00921628609262,80.56215408578551 C97.90736839021338,81.8815584846791 98.54659534522602,83.39080524312566 98.85526646663448,85.01703356664872 L99.80870163891154,85.01703356664872 C101.04066152182236,85.01738512657379 102.03900869382596,86.01581531385271 102.03900869382596,87.24759340141556 L102.03900869382596,87.24759340141556 Z M102.03900869382596,87.24759340141556 "/><path transform="matrix(1 0 0 1 -2.2737367544323206e-13 1.4210854715202004e-14)" width="17.2172040595608" height="17.21711999179692" stroke-width="0.08789019584891504" stroke-miterlimit="3" stroke="none" fill="#CCCAC4" d="M95.77822319769712,87.24759340141556 C95.77822319769712,92.0022656084062 91.92405291979253,95.85632917727655 87.16979694873726,95.85632917727655 C82.41510152563046,95.85632917727655 78.56101913813632,92.00217771842493 78.56101913813632,87.24759340141556 C78.56101913813632,82.49336064433125 82.41510152563046,78.63920918547963 87.16979694873726,78.63920918547963 C91.92414081020297,78.63920918547963 95.77822319769712,82.49336064433125 95.77822319769712,87.24759340141556 L95.77822319769712,87.24759340141556 Z M95.77822319769712,87.24759340141556 "/><path transform="matrix(1 0 0 1 -2.2737367544323206e-13 1.4210854715202004e-14)" width="4.695633067302197" height="4.695610139574171" stroke-width="0.08789019584891504" stroke-miterlimit="3" stroke="none" fill="#FFFFFF" d="M89.51743770156781,87.24759340141556 C89.51743770156781,88.54432218514027 88.4665320641302,89.59557425116519 87.16979694873726,89.59557425116519 C85.87306183334454,89.59557425116519 84.82180463426562,88.54432218514027 84.82180463426562,87.24759340141556 C84.82180463426562,85.9512161776159 85.87306183334454,84.89996411159102 87.16979694873726,84.89996411159102 C88.4665320641302,84.89996411159102 89.51743770156781,85.9512161776159 89.51743770156781,87.24759340141556 L89.51743770156781,87.24759340141556 Z M89.51743770156781,87.24759340141556 "/><path transform="matrix(1 0 0 1 -2.2737367544323206e-13 1.4210854715202004e-14)" width="12.130282885051429" height="12.130487325532272" stroke-width="0.08789019584891504" stroke-miterlimit="3" stroke="none" fill="#777777" d="M91.45858530618762,90.70623994453165 C91.68753982534167,90.93554490567696 91.68753982534167,91.3074074164496 91.45858530618762,91.53636081766977 C90.31293380631382,92.6820067235836 88.78996877448981,93.31305678913485 87.16979694873726,93.31305678913485 C83.82512738005994,93.31305678913485 81.10465550621166,90.59189507889347 81.10465550621166,87.24759340141553 C81.10465550621166,86.92345515047496 81.36727205255829,86.66092777640792 81.6914118862012,86.66092777640792 C82.01555171984387,86.66092777640792 82.27843193742183,86.92354304045627 82.27843193742183,87.24759340141553 C82.27843193742183,89.94476114676895 84.472616033652,92.13884663930686 87.16979694873726,92.13884663930686 C88.4761121188667,92.13884663930686 89.70455638536009,91.63005153770847 90.62846037973509,90.7061520545504 C90.85776646053091,90.47728654331145 91.2291913349818,90.47728654331145 91.45858530618762,90.70623994453165 L91.45858530618762,90.70623994453165 Z M92.45078014946239,88.98719980078276 C92.15828086357192,88.8481578504064 91.80803757803301,88.97243428392862 91.66873127751137,89.26528370153541 C91.65255944199316,89.29964868421378 91.63612393524409,89.33357421698572 91.61898530521148,89.36723607981385 C91.47308722390767,89.65700934807607 91.58945412730873,90.00997551287468 91.87887724883421,90.15587288179042 C91.96369149489328,90.19841163272731 92.05360338475703,90.21871421840176 92.14254848010592,90.21871421840176 C92.35708897195013,90.21871421840176 92.56415877890868,90.10059008356875 92.66716633992542,89.8959822071616 C92.6884358192483,89.85405868609364 92.70909006569786,89.81187149508183 92.72930486009545,89.76933274414493 C92.8682595989751,89.47648332653814 92.7436309969944,89.12624175115907 92.45078014946239,88.98719980078276 L92.45078014946239,88.98719980078276 Z M87.16979694873726,81.18256946360258 C85.58979104054879,81.18256946360258 84.09433570718761,81.7868130848651 82.95791270040831,82.88368005117154 C82.72482733196398,83.10859051325308 82.71823555118249,83.48036513404448 82.94314711145671,83.71344936438454 C83.16832234296271,83.94662148470594 83.53983510782382,83.95312534332025 83.77292047626815,83.72821488123869 C84.68926589534658,82.84351432972908 85.89573755923425,82.35669172344932 87.16979694873726,82.35669172344932 C89.86662630218143,82.35669172344932 92.06107406964315,84.5508651059685 92.06107406964315,87.24794496134065 C92.06107406964315,87.57208321228119 92.32369061598956,87.83469847632954 92.64783044963224,87.83469847632954 C92.97197028327537,87.83469847632954 93.23493839126309,87.57208321228119 93.23493839126309,87.24794496134065 C93.23493839126309,83.90337961391889 90.5141149557735,81.18256946360258 87.16979694873726,81.18256946360258 L87.16979694873726,81.18256946360258 Z M82.01133298014383,85.45173741403265 C82.0896433358314,85.48706918650502 82.17173297916702,85.50394406290975 82.25241637593604,85.50394406290975 C82.47618536087543,85.50394406290975 82.6897590582048,85.37518524034247 82.78758108500688,85.15818487657565 C82.8006767561601,85.13006008256777 82.81368453690266,85.10149583865355 82.82713176969764,85.0733710446457 C82.96617439898796,84.78052162703888 82.8418973586488,84.43036794164108 82.54904651111679,84.29132599126474 C82.25584410194301,84.1522840408884 81.90595237804587,84.2769120343357 81.76690974875487,84.56940989201742 C81.75012268036403,84.60474166448977 81.7339508448465,84.63980976701835 81.71786689973874,84.6751415394907 C81.58462503753617,84.97071554651701 81.7157575298886,85.31849620242043 82.01133298014383,85.45173741403265 L82.01133298014383,85.45173741403265 Z M82.01133298014383,85.45173741403265 "/><path transform="matrix(1 0 0 1 -2.2737367544323206e-13 1.4210854715202004e-14)" width="36.000000000000455" height="36" stroke-width="0.08789019584891504" stroke-miterlimit="3" stroke="none" fill="#84A7B7" d="M104.20919870801072,82.82980349265021 C104.52955925400511,82.77794840369823 104.83023234806524,82.99591555725912 104.88208769021503,83.31557141915467 L104.89448023808518,83.39317827262009 C104.94598401859321,83.71318569444072 104.72863103361533,84.0142088803061 104.40870993967246,84.06571240933296 C104.37680572068894,84.07098580820947 104.34551673457781,84.07362250764764 104.31431563887736,84.07362250764764 C104.03139640772338,84.07362250764764 103.78213920376152,83.86831151139033 103.73582095746815,83.57994448282857 L103.72307684795624,83.5026891892882 C103.67157306744843,83.18268176746751 103.88918972365741,82.8813070216771 104.20919870801072,82.82980349265021 L104.20919870801072,82.82980349265021 Z M102.71093088151588,80.18036000712887 C102.815608360331,80.38083705441609 103.0199535645661,80.49588503990448 103.23176945368732,80.49588503990448 C103.3230875901179,80.49588503990448 103.41616353475683,80.474264104511 103.50299926025514,80.42891287417332 C103.79040090234139,80.27888467613765 103.90158227152733,79.92460016161992 103.75155334093392,79.63693625290834 L103.71551827266035,79.56759105768272 C103.56513778042518,79.28054237884002 103.21085153600643,79.16892210262135 102.92344989392086,79.318950300657 C102.63604825183484,79.46897849869266 102.5245153210069,79.82370246311676 102.67454425160031,80.11101481190327 L102.71093088151588,80.18036000712887 Z M104.50785032263047,88.36036845433263 C104.1858198588377,88.31879649318974 103.89191432638086,88.54537686491555 103.85007849101908,88.86714208636168 C102.7298273197573,97.50409054621183 95.30651536495225,104.01717760856245 86.58268900710641,104.01717760856245 C86.25863706387418,104.01717760856245 85.99558106547533,104.28014443253592 85.99558106547533,104.60428268347648 C85.99558106547533,104.92842093441702 86.25863706387418,105.19138775839046 86.58268900710641,105.19138775839046 C91.12583221232308,105.19138775839046 95.49908325419074,103.53448583140262 98.89727808281691,100.52671489222492 C102.26594173354056,97.5449593875045 104.43850478880654,93.45772369831276 105.01427486749253,89.01831285415388 C105.05619859326453,88.6964597427265 104.82926555355061,88.40220408541929 104.50785032263047,88.36036845433263 L104.50785032263047,88.36036845433263 Z M104.58273295231174,86.0174852234969 C104.25859311866861,86.0174852234969 103.99562501068067,86.28018837752656 103.99562501068067,86.60459029841091 L103.99562501068067,86.68492174129584 C103.9942187641143,87.0090599922364 104.2558685159454,87.27299360600388 104.57992045917831,87.27439984570428 L104.58264506190153,87.27439984570428 C104.90573021061937,87.27439984570428 105.16799519532378,87.01310293137503 105.16940144189084,86.68975569026593 L105.1697530035326,86.60423873848579 C105.16984089394305,86.28018837752656 104.90678489554443,86.0174852234969 104.58273295231174,86.0174852234969 L104.58273295231174,86.0174852234969 Z M70.61616548787697,90.87999843751147 L70.60377294000727,90.80274314397114 C70.55226915949856,90.48273572215048 70.25124450379735,90.26476856858959 69.93088395780251,90.3166236575416 C69.6109628638601,90.36812718656851 69.39325831724022,90.66958982234017 69.44511365939024,90.98950935417956 L69.45741831684973,91.06676464771986 C69.50382445355308,91.35513167628169 69.75308165751494,91.56044267253905 70.03626455990047,91.56044267253905 C70.06720198436983,91.56044267253905 70.09875464171205,91.55806964304462 70.1303951894647,91.55288413414944 C70.45031628340735,91.50138060512252 70.66802083002699,91.19991796935086 70.61616548787697,90.87999843751147 L70.61616548787697,90.87999843751147 Z M71.62831145431755,94.20223972968948 C71.47863408536546,93.91483949092175 71.12390838889496,93.8033071046843 70.83659463721983,93.95368686264506 C70.54919299513404,94.10371506068073 70.43766006430633,94.45799957519846 70.58768899489951,94.74539981396622 L70.62407562481508,94.81474500919184 C70.72875310362997,95.01557361640421 70.93301041745485,95.13027004196745 71.14491419698652,95.13027004196745 C71.23623233341664,95.13027004196745 71.32922038764536,95.10900066649903 71.41614400355434,95.06364943616136 C71.70345775522992,94.91362123812569 71.8147270148263,94.55898516368286 71.66469808423312,94.27158492491513 L71.62831145431755,94.20223972968948 Z M88.34357337994766,69.77849283330447 C88.34357337994766,69.4543545823639 88.08095683360125,69.19138775839046 87.75646543831658,69.19138775839046 C83.21358590433101,69.19138775839046 78.83998330082181,70.84793812545318 75.44178847219564,73.85606062455598 C72.07312482147199,76.83781612927642 69.90091332784777,80.92505181846816 69.32487957793046,85.36455055260826 C69.28330741379978,85.68587632414803 69.50988889187238,85.98039565139904 69.83156779402384,86.02196761254193 C69.85731968427763,86.02539532181162 69.8827200128901,86.02715312143711 69.90776877986127,86.02715312143711 C70.19824658631183,86.02715312143711 70.45057995463821,85.81120743744556 70.48907595440414,85.51554554043797 C71.60967868730768,76.87868497056907 79.03299064211205,70.36515845831211 87.75646543831658,70.36515845831211 C88.08095683360125,70.36515845831211 88.34357337994766,70.1025431942637 88.34357337994766,69.77849283330447 L88.34357337994766,69.77849283330447 Z M70.34352943474232,87.77809732838871 L70.34388099638363,87.69741432557869 C70.34528724295046,87.37327607463816 70.08337381988804,87.10934246087065 69.75923398624468,87.10819989111407 L69.75686094516323,87.10819989111407 C69.43377579644562,87.10819989111407 69.17115925009921,87.36914524551823 69.16975300353215,87.69258037660857 L69.16975300353215,87.77809732838871 C69.16975300353215,88.10249924927307 69.43272111152055,88.36520240330275 69.75686094516323,88.36520240330275 C70.08091288839614,88.36511451332147 70.34352943474232,88.10214768934797 70.34352943474232,87.77809732838871 L70.34352943474232,87.77809732838871 Z M70.34352943474232,87.77809732838871 "/></g></svg>