<?xml version="1.0" encoding="utf-8"?><svg xmlns="http://www.w3.org/2000/svg" xmlns:xlink="http://www.w3.org/1999/xlink" version="1.1" class="page" pageAlignment="none" x="0px" y="0px" width="36px" height="36px" viewBox="0 0 36 36" enable-background="new 0 0 36 36" xml:space="preserve"><defs/><style type="text/css"/><style type="text/css"/><g type="LAYER" name="workspace" id="workspace" locked="true"/><g transform="matrix(1 0 0 1 -69.16958413288967 -69.19155668185206)"><path transform="matrix(1 0 0 1 2.2737367544323206e-13 1.4210854715202004e-14)" width="22.695621603410245" height="4.695621603410132" stroke-width="0.08789019584865308" stroke-miterlimit="3" stroke="none" fill="#A5A5A5" d="M105.16958413289012,87.19155668185216 L105.16958413289012,90.32194178739364 L82.47396252947988,90.32194178739364 L82.47396252947988,87.19155668185216 C82.47396252947988,86.3270687154848 83.17471106098083,85.62632018398351 84.0391990273481,85.62632018398351 L103.60434763502144,85.62632018398351 C104.46883560138872,85.62632018398348 105.16958413289012,86.3270687154848 105.16958413289012,87.19155668185216 L105.16958413289012,87.19155668185216 Z M105.16958413289012,87.19155668185216 "/><path transform="matrix(1 0 0 1 2.2737367544323206e-13 1.4210854715202004e-14)" width="3.521848037851214" height="1.2521716202557513" stroke-width="0.08789019584865308" stroke-miterlimit="3" stroke="none" fill="#777777" d="M101.06071747696546,87.54382058681354 L101.06071747696546,87.62213075131469 C101.06071747696546,87.94626979360451 100.79810157176962,88.2088856988003 100.47361096869645,88.2088856988003 C100.14947192640625,88.2088856988003 99.88685602121086,87.94626979360451 99.88685602121086,87.62213075131469 L99.88685602121086,87.54382058681354 C99.88685602121086,87.21968154452374 100.14947192640625,86.95671407854455 100.47361096869645,86.95671407854455 C100.79801368157382,86.95671407854455 101.06071747696546,87.21932998374031 101.06071747696546,87.54382058681354 L101.06071747696546,87.54382058681354 Z M102.82159755079329,86.95671407854455 C102.49745850850309,86.95671407854455 102.23449104252381,87.21968154452374 102.23449104252381,87.54382058681354 L102.23449104252381,87.62213075131469 C102.23449104252381,87.94626979360451 102.49745850850309,88.2088856988003 102.82159755079329,88.2088856988003 C103.14573659308303,88.2088856988003 103.40870405906207,87.94626979360451 103.40870405906207,87.62213075131469 L103.40870405906207,87.54382058681354 C103.40861616886605,87.21932998374031 103.14564870288723,86.95671407854455 102.82159755079329,86.95671407854455 L102.82159755079329,86.95671407854455 Z M102.82159755079329,86.95671407854455 "/><path transform="matrix(1 0 0 1 2.2737367544323206e-13 1.4210854715202004e-14)" width="22.695621603410245" height="21.130385105541478" stroke-width="0.08789019584865308" stroke-miterlimit="3" stroke="none" fill="#FED766" d="M105.16958413289012,89.53919170316549 L105.16958413289012,103.62632018398348 C105.16958413289012,104.49080815035082 104.46883560138872,105.19155668185213 103.60434763502144,105.19155668185213 L84.0391990273481,105.19155668185213 C83.17471106098083,105.19155668185213 82.47396252947988,104.49080815035082 82.47396252947988,103.62632018398348 L82.47396252947988,89.53919170316549 L85.60434763502099,89.53919170316549 L85.60434763502099,84.84357009975535 C85.60434763502099,84.41132611657169 85.95459006547821,84.06117157631066 86.38683404866151,84.06117157631066 L91.08236776187618,84.06117157631066 C91.51461174505948,84.06117157631066 91.86511784610434,84.41132611657169 91.86511784610434,84.84357009975535 L91.86511784610434,89.53919170316549 L105.16958413289012,89.53919170316549 Z M105.16958413289012,89.53919170316549 "/><path transform="matrix(1 0 0 1 2.2737367544323206e-13 1.4210854715202004e-14)" width="18.000000000000455" height="10.17390540085259" stroke-width="0.08789019584865308" stroke-miterlimit="3" stroke="none" fill="#E8BA52" d="M102.82159755079329,96.19133695636252 L102.82159755079329,102.45210716744548 C102.82159755079329,102.66840493942901 102.6465202806628,102.84348220955955 102.43022250867921,102.84348220955955 L85.21297259290691,102.84348220955955 C84.99702638170697,102.84348220955955 84.82159755079283,102.66840493942901 84.82159755079283,102.45210716744548 L84.82159755079283,96.19133695636252 C84.82159755079283,95.97539074516239 84.99702638170697,95.7999619142485 85.21297259290691,95.7999619142485 L102.43022250867921,95.7999619142485 C102.6465202806628,95.7999619142485 102.82159755079329,95.97539074516239 102.82159755079329,96.19133695636252 L102.82159755079329,96.19133695636252 Z M102.43022250867921,92.66957680870696 L85.21297259290691,92.66957680870696 C84.99667482092332,92.66957680870696 84.82159755079283,92.84500563962088 84.82159755079283,93.06095185082101 L84.82159755079283,93.84370193504917 C84.82159755079283,94.0596481462493 84.99667482092332,94.23472541637982 85.21297259290691,94.23472541637982 L102.43022250867921,94.23472541637982 C102.6465202806628,94.23472541637982 102.82159755079329,94.0596481462493 102.82159755079329,93.84370193504917 L102.82159755079329,93.06095185082101 C102.82159755079329,92.84500563962088 102.6465202806628,92.66957680870696 102.43022250867921,92.66957680870696 L102.43022250867921,92.66957680870696 Z M102.43022250867921,92.66957680870696 "/><path transform="matrix(1 0 0 1 2.2737367544323206e-13 1.4210854715202004e-14)" width="22.69553371321399" height="5.086996645524181" stroke-width="0.08789019584865308" stroke-miterlimit="3" stroke="none" fill="#A5A5A5" d="M98.51735098949689,79.75657345423117 L98.51735098949689,83.2783336018867 L75.8218172762829,83.2783336018867 L75.8218172762829,79.75657345423117 C75.8218172762829,78.89208548786384 76.52247791758828,78.19133695636252 77.38696588395555,78.19133695636252 L96.95211449162844,78.19133695636252 C97.81660245799571,78.19133695636252 98.51735098949689,78.89208548786384 98.51735098949689,79.75657345423117 L98.51735098949689,79.75657345423117 Z M98.51735098949689,79.75657345423117 "/><path transform="matrix(1 0 0 1 2.2737367544323206e-13 1.4210854715202004e-14)" width="22.69553371321399" height="21.130033544758135" stroke-width="0.08789019584865308" stroke-miterlimit="3" stroke="none" fill="#A3CCAA" d="M98.51735098949689,82.10456003632795 L98.51735098949689,96.19133695636252 C98.51735098949689,97.05582492272991 97.81660245799571,97.7565734542312 96.95211449162844,97.7565734542312 L77.38696588395555,97.7565734542312 C76.52247791758828,97.7565734542312 75.8218172762829,97.05582492272991 75.8218172762829,96.19133695636252 L75.8218172762829,82.10456003632795 L78.95220238182424,82.10456003632795 L78.95220238182424,77.4089384329178 C78.95220238182424,76.97669444973415 79.30270848286841,76.62653990947307 79.73460090526896,76.62653990947307 L84.43057406946241,76.62653990947307 C84.86281805264616,76.62653990947307 85.21297259290691,76.97669444973415 85.21297259290691,77.4089384329178 L85.21297259290691,82.10456003632795 L98.51735098949689,82.10456003632795 Z M98.51735098949689,82.10456003632795 "/><path transform="matrix(1 0 0 1 2.2737367544323206e-13 1.4210854715202004e-14)" width="3.5218480378516688" height="1.2520837300599226" stroke-width="0.08789019584865308" stroke-miterlimit="3" stroke="none" fill="#777777" d="M94.40848433357269,80.1088373591926 L94.40848433357269,80.18705963349792 C94.40848433357269,80.51119867578772 94.14586842837639,80.77416614176688 93.82172938608687,80.77416614176688 C93.49759034379667,80.77416614176688 93.23462287781763,80.51119867578772 93.23462287781763,80.18705963349792 L93.23462287781763,80.1088373591926 C93.23462287781763,79.78469831690275 93.49759034379667,79.52208241170696 93.82172938608687,79.52208241170696 C94.14586842837639,79.52208241170696 94.40848433357269,79.78469831690275 94.40848433357269,80.1088373591926 L94.40848433357269,80.1088373591926 Z M96.16936440740005,79.52208241170696 C95.84522536511054,79.52208241170696 95.58260945991447,79.78469831690275 95.58260945991447,80.1088373591926 L95.58260945991447,80.18705963349792 C95.58260945991447,80.51119867578772 95.84522536511054,80.77416614176688 96.16936440740005,80.77416614176688 C96.49350344969025,80.77416614176688 96.7564709156693,80.51119867578772 96.7564709156693,80.18705963349792 L96.7564709156693,80.1088373591926 C96.7564709156693,79.78469831690275 96.49350344969025,79.52208241170696 96.16936440740005,79.52208241170696 L96.16936440740005,79.52208241170696 Z M96.16936440740005,79.52208241170696 "/><path transform="matrix(1 0 0 1 2.2737367544323206e-13 1.4210854715202004e-14)" width="17.999999999999773" height="10.17399329104839" stroke-width="0.08789019584865308" stroke-miterlimit="3" stroke="none" fill="#80A886" d="M95.77798936528598,95.40893843291782 L78.56082733971016,95.40893843291782 C78.34488112850977,95.40893843291782 78.16936440740028,95.23350960200393 78.16936440740028,95.0175633908038 L78.16936440740028,88.75679317972082 C78.16936440740028,88.54084696852068 78.34488112850977,88.36541813760677 78.56082733971016,88.36541813760677 L95.77798936528598,88.36541813760677 C95.99428713726957,88.36541813760677 96.16936440740005,88.54084696852068 96.16936440740005,88.75679317972082 L96.16936440740005,95.0175633908038 C96.16936440740005,95.23350960200393 95.99428713726957,95.40893843291782 95.77798936528598,95.40893843291782 L95.77798936528598,95.40893843291782 Z M96.16936440740005,86.40880659762404 L96.16936440740005,85.62632018398348 C96.16936440740005,85.41037397278335 95.99428713726957,85.23494514186943 95.77798936528598,85.23494514186943 L78.56082733971016,85.23494514186943 C78.34488112850977,85.23494514186943 78.16936440740028,85.41037397278335 78.16936440740028,85.62632018398348 L78.16936440740028,86.40880659762404 C78.16936440740028,86.62501647941171 78.34488112850977,86.80018163973808 78.56082733971016,86.80018163973808 L95.77798936528598,86.80018163973808 C95.99428713726957,86.80018163973808 96.16936440740005,86.62501647941171 96.16936440740005,86.40880659762404 L96.16936440740005,86.40880659762404 Z M96.16936440740005,86.40880659762404 "/><path transform="matrix(1 0 0 1 2.2737367544323206e-13 1.4210854715202004e-14)" width="22.695621603410473" height="4.695533713214246" stroke-width="0.08789019584865308" stroke-miterlimit="3" stroke="none" fill="#A5A5A5" d="M91.86520573630014,72.32194178739361 L91.86520573630014,75.45232689293506 L69.16958413288967,75.45232689293506 L69.16958413288967,72.32194178739361 C69.16958413288967,71.45745382102622 69.87033266439084,70.75679317972082 70.73482063075835,70.75679317972082 L90.29996923843146,70.75679317972082 C91.16445720479874,70.75679317972082 91.86520573630014,71.45745382102622 91.86520573630014,72.32194178739361 L91.86520573630014,72.32194178739361 Z M91.86520573630014,72.32194178739361 "/><path transform="matrix(1 0 0 1 2.2737367544323206e-13 1.4210854715202004e-14)" width="5.869483059164622" height="1.252435290843323" stroke-width="0.08789019584865308" stroke-miterlimit="3" stroke="none" fill="#777777" d="M85.4087040590623,72.67420569235502 L85.4087040590623,72.75251585685616 C85.4087040590623,73.07656700895016 85.14564870288723,73.33918291414592 84.82159755079283,73.33918291414592 C84.49745850850331,73.33918291414592 84.2348426033077,73.07656700895016 84.2348426033077,72.75251585685616 L84.2348426033077,72.67420569235502 C84.2348426033077,72.35006665006519 84.49745850850331,72.087099184086 84.82159755079283,72.087099184086 C85.14564870288723,72.087099184086 85.4087040590623,72.35006665006519 85.4087040590623,72.67420569235502 L85.4087040590623,72.67420569235502 Z M87.16958413288967,72.087099184086 C86.84544509060015,72.087099184086 86.58247762462088,72.35006665006519 86.58247762462088,72.67420569235502 L86.58247762462088,72.75251585685616 C86.58247762462088,73.07656700895016 86.84544509060015,73.33953447492932 87.16958413288967,73.33953447492932 C87.49372317517987,73.33953447492932 87.75633908037548,73.07656700895016 87.75633908037548,72.75251585685616 L87.75633908037548,72.67420569235502 C87.75633908037548,72.35006665006519 87.49363528498384,72.087099184086 87.16958413288967,72.087099184086 L87.16958413288967,72.087099184086 Z M89.5172191542033,72.087099184086 C89.1930801119131,72.087099184086 88.93046420671772,72.35006665006519 88.93046420671772,72.67420569235502 L88.93046420671772,72.75251585685616 C88.93046420671772,73.07656700895016 89.1930801119131,73.33953447492932 89.5172191542033,73.33953447492932 C89.84135819649282,73.33953447492932 90.10432566247232,73.07656700895016 90.10432566247232,72.75251585685616 L90.10432566247232,72.67420569235502 C90.10423777227606,72.35006665006519 89.84162186708068,72.087099184086 89.5172191542033,72.087099184086 L89.5172191542033,72.087099184086 Z M89.5172191542033,72.087099184086 "/><path transform="matrix(1 0 0 1 2.2737367544323206e-13 1.4210854715202004e-14)" width="22.695621603410473" height="21.130385105541478" stroke-width="0.08789019584865308" stroke-miterlimit="3" stroke="none" fill="#FCBB9A" d="M91.86520573630014,74.66992836949039 L91.86520573630014,88.75670528952493 C91.86520573630014,89.62119325589232 91.16445720479896,90.32194178739361 90.29996923843146,90.32194178739361 L70.73482063075835,90.32194178739361 C69.87033266439084,90.32194178739361 69.16958413288967,89.62119325589232 69.16958413288967,88.75670528952493 L69.16958413288967,74.66992836949039 L72.299969238431,74.66992836949039 L72.299969238431,69.97395520529683 C72.299969238431,69.54206278289656 72.65047533947586,69.19155668185213 73.08271932265916,69.19155668185213 L77.77834092606963,69.19155668185213 C78.21058490925316,69.19155668185213 78.56082733971016,69.54206278289656 78.56082733971016,69.97395520529683 L78.56082733971016,74.66992836949039 L91.86520573630014,74.66992836949039 Z M91.86520573630014,74.66992836949039 "/><path transform="matrix(1 0 0 1 2.2737367544323206e-13 1.4210854715202004e-14)" width="6.260858101279155" height="5.478371687638258" stroke-width="0.08789019584865308" stroke-miterlimit="3" stroke="none" fill="#FC8059" d="M78.56082733971016,69.97395520529683 L78.56082733971016,74.66992836949039 L72.299969238431,74.66992836949039 L72.299969238431,69.97395520529683 C72.299969238431,69.54206278289656 72.65047533947586,69.19155668185213 73.08271932265916,69.19155668185213 L77.77834092606963,69.19155668185213 C78.21058490925316,69.19155668185213 78.56082733971016,69.54206278289656 78.56082733971016,69.97395520529683 L78.56082733971016,69.97395520529683 Z M78.56082733971016,69.97395520529683 "/><path transform="matrix(1 0 0 1 2.2737367544323206e-13 1.4210854715202004e-14)" width="3.130385105542018" height="1.5651486076727963" stroke-width="0.08789019584865308" stroke-miterlimit="3" stroke="none" fill="#F75631" d="M76.60421579972763,72.32194178739361 L74.25658077841376,72.32194178739361 C74.04063456721406,72.32194178739361 73.86520573629969,72.1468645172631 73.86520573629969,71.93056674527956 L73.86520573629969,71.14816822183484 C73.86520573629969,70.9322220106347 74.04063456721406,70.75679317972082 74.25658077841376,70.75679317972082 L76.60421579972763,70.75679317972082 C76.82051357171099,70.75679317972082 76.9955908418417,70.9322220106347 76.9955908418417,71.14816822183484 L76.9955908418417,71.93056674527956 C76.9955908418417,72.1468645172631 76.82051357171099,72.32194178739361 76.60421579972763,72.32194178739361 L76.60421579972763,72.32194178739361 Z M76.60421579972763,72.32194178739361 "/><path transform="matrix(1 0 0 1 2.2737367544323206e-13 1.4210854715202004e-14)" width="17.99964843921657" height="10.173641730264961" stroke-width="0.08789019584865308" stroke-miterlimit="3" stroke="none" fill="#FC8059" d="M89.1261956728722,87.97395520529683 L71.90859419631693,87.97395520529683 C71.69264798511722,87.97395520529683 71.51757071498673,87.79887793516632 71.51757071498673,87.58293172396618 L71.51757071498673,81.32216151288323 C71.51757071498673,81.10586374089966 71.69264798511722,80.93069858057335 71.90859419631693,80.93069858057335 L89.12610778267685,80.93069858057335 C89.34205399387702,80.93069858057335 89.5171312640075,81.10586374089972 89.5171312640075,81.32216151288323 L89.5171312640075,87.58293172396618 C89.5172191542033,87.79887793516632 89.34214188407282,87.97395520529683 89.1261956728722,87.97395520529683 L89.1261956728722,87.97395520529683 Z M76.9955908418417,78.97417493078648 L76.9955908418417,78.19133695636252 C76.9955908418417,77.97539074516239 76.82051357171099,77.80031347503187 76.60421579972763,77.80031347503187 L71.90859419631693,77.80031347503187 C71.69264798511722,77.80031347503187 71.51757071498673,77.97539074516239 71.51757071498673,78.19133695636252 L71.51757071498673,78.97417493078648 C71.51757071498673,79.19012114198661 71.69264798511722,79.36554997290052 71.90859419631693,79.36554997290052 L76.6045673605106,79.36554997290052 C76.82051357171099,79.36554997290055 76.9955908418417,79.19012114198661 76.9955908418417,78.97417493078648 L76.9955908418417,78.97417493078648 Z M89.5172191542033,78.97417493078648 L89.5172191542033,78.19133695636252 C89.5172191542033,77.97539074516239 89.34214188407282,77.80031347503187 89.1261956728722,77.80031347503187 L78.95220238182424,77.80031347503187 C78.73590460984087,77.80031347503187 78.56082733971016,77.97539074516239 78.56082733971016,78.19133695636252 L78.56082733971016,78.97417493078648 C78.56082733971016,79.19012114198661 78.73590460984087,79.36554997290052 78.95220238182424,79.36554997290052 L89.12610778267685,79.36554997290052 C89.34214188407282,79.36554997290055 89.5172191542033,79.19012114198661 89.5172191542033,78.97417493078648 L89.5172191542033,78.97417493078648 Z M89.5172191542033,78.97417493078648 "/></g></svg>