<?xml version="1.0" encoding="utf-8"?><svg xmlns="http://www.w3.org/2000/svg" xmlns:xlink="http://www.w3.org/1999/xlink" version="1.1" class="page" pageAlignment="none" x="0px" y="0px" width="36px" height="34px" viewBox="0 0 36 34" enable-background="new 0 0 36 34" xml:space="preserve"><defs><clipPath id="_1487082390773_0_"><path transform="matrix(1 0 0 1 69.11592505854787 73.02062719033881)" width="36" height="33.99437779709933" stroke-width="0.0892399070056275" stroke-miterlimit="3" stroke="none" fill="#000" d="M-4.547473508864641e-13,0 L35.999999999999545,0 L35.999999999999545,33.99437779709933 L-4.547473508864641e-13,33.99437779709933 L-4.547473508864641e-13,0 Z "/></clipPath><clipPath id="_1487082390773_1_"><path transform="matrix(1 0 0 1 69.11592505854787 73.02062719033881)" width="36" height="33.99437779709933" stroke-width="0.0892399070056275" stroke-miterlimit="3" stroke="none" fill="#000" d="M-4.547473508864641e-13,0 L35.999999999999545,0 L35.999999999999545,33.99437779709933 L-4.547473508864641e-13,33.99437779709933 L-4.547473508864641e-13,0 Z "/></clipPath><clipPath id="_1487082390773_2_"><path transform="matrix(1 0 0 1 69.11592505854787 73.02062719033881)" width="36" height="33.99437779709933" stroke-width="0.0892399070056275" stroke-miterlimit="3" stroke="none" fill="#000" d="M-4.547473508864641e-13,0 L35.999999999999545,0 L35.999999999999545,33.99437779709933 L-4.547473508864641e-13,33.99437779709933 L-4.547473508864641e-13,0 Z "/></clipPath><clipPath id="_1487082390773_3_"><path transform="matrix(1 0 0 1 69.11592505854787 73.02062719033881)" width="36" height="33.99437779709933" stroke-width="0.0892399070056275" stroke-miterlimit="3" stroke="none" fill="#000" d="M-4.547473508864641e-13,0 L35.999999999999545,0 L35.999999999999545,33.99437779709933 L-4.547473508864641e-13,33.99437779709933 L-4.547473508864641e-13,0 Z "/></clipPath></defs><style type="text/css"/><style type="text/css"/><g type="LAYER" name="workspace" id="workspace" locked="true"/><g transform="matrix(1 0 0 1 -69.11592505854765 -73.01500498743805)"><path transform="matrix(1 0 0 1 4.547473508864641e-13 2.842170943040401e-14)" width="35.97207259953166" height="6.498178384923534" stroke-width="0.0892399070056275" stroke-miterlimit="3" stroke="none" fill="#A5A5A5" d="M105.08799765807953,103.6593659819386 L105.08799765807953,103.69799595670804 C105.08799765807953,105.48186652868984 103.68732435597167,106.9277701617851 101.9596896955502,106.9277701617851 L72.24388173302054,106.9277701617851 C70.5162470725993,106.9277701617851 69.11592505854787,105.48186652868984 69.11592505854787,103.69799595670804 L69.11592505854787,103.6593659819386 C69.11592505854787,101.87585813272463 70.5162470725993,100.42959177686157 72.24388173302054,100.42959177686157 L101.95995316159224,100.42959177686157 C103.68723653395773,100.42959177686157 105.08799765807953,101.87585813272463 105.08799765807953,103.6593659819386 L105.08799765807953,103.6593659819386 Z M105.08799765807953,103.6593659819386 "/><g transform="matrix(1 0 0 1 4.547473508864641e-13 2.842170943040401e-14)"><g clip-path="url(#_1487082390773_0_)"><path width="26.979274004683703" height="1.21856713838406" stroke-width="0.0892399070056275" stroke-miterlimit="3" stroke="none" fill="#777777" d="M81.0415398126463,104.4910892884767 C81.0415398126463,104.8276053362921 80.77877634660422,105.10037285766873 80.45488875878209,105.10037285766873 L74.19897540983561,105.10037285766873 C73.87508782201394,105.10037285766873 73.61232435597185,104.8276053362921 73.61232435597185,104.4910892884767 C73.61232435597185,104.1545732406613 73.87508782201394,103.88180571928467 74.19897540983561,103.88180571928467 L80.45488875878209,103.88180571928467 C80.77877634660422,103.88180571928467 81.0415398126463,104.1545732406613 81.0415398126463,104.4910892884767 L81.0415398126463,104.4910892884767 Z M100.00494730679134,103.88180571928467 L88.2749121779857,103.88180571928467 C87.95102459016334,103.88180571928467 87.68826112412125,104.1545732406613 87.68826112412125,104.4910892884767 C87.68826112412125,104.8276053362921 87.95102459016334,105.10037285766873 88.2749121779857,105.10037285766873 L100.00494730679134,105.10037285766873 C100.32883489461346,105.10037285766873 100.59159836065555,104.8276053362921 100.59159836065555,104.4910892884767 C100.59115925058518,104.1545732406613 100.32874707259907,103.88180571928467 100.00494730679134,103.88180571928467 L100.00494730679134,103.88180571928467 Z M85.61618852458969,103.88180571928467 L85.53793911007006,103.88180571928467 C85.2141393442621,103.88180571928467 84.95128805620584,104.1545732406613 84.95128805620584,104.4910892884767 C84.95128805620584,104.8276053362921 85.21413934426232,105.10037285766873 85.53793911007006,105.10037285766873 L85.61618852458969,105.10037285766873 C85.93998829039765,105.10037285766873 86.20248829039792,104.8276053362921 86.20248829039792,104.4910892884767 C86.20248829039792,104.1545732406613 85.93998829039765,103.88180571928467 85.61618852458969,103.88180571928467 L85.61618852458969,103.88180571928467 Z M83.1917740046838,103.88180571928467 L83.11361241217787,103.88180571928467 C82.78972482435574,103.88180571928467 82.52731264636964,104.1545732406613 82.52731264636964,104.4910892884767 C82.52731264636964,104.8276053362921 82.78972482435574,105.10037285766873 83.11361241217787,105.10037285766873 L83.1917740046838,105.10037285766873 C83.51566159250547,105.10037285766873 83.77842505854801,104.8276053362921 83.77842505854801,104.4910892884767 C83.77842505854801,104.1545732406613 83.51566159250547,103.88180571928467 83.1917740046838,103.88180571928467 L83.1917740046838,103.88180571928467 Z M83.1917740046838,103.88180571928467 "/></g><g clip-path="url(#_1487082390773_1_)"><path width="31.280093676815113" height="29.039403427730207" stroke-width="0.0892399070056275" stroke-miterlimit="3" stroke="none" fill="#CCCAC4" d="M99.61387587821991,77.68569538755335 L97.27359484777503,77.68569538755335 L97.27359484777503,77.27944588763069 C97.27359484777503,74.92809554544445 95.43205503512877,73.01500498743809 93.16826697892247,73.01500498743809 C90.90447892271618,73.01500498743809 89.06258782201348,74.92809554544442 89.06258782201348,77.27944588763069 L89.06258782201348,77.68569538755335 L74.59004683840726,77.68569538755335 C72.86241217798579,77.68569538755335 71.4617388758777,79.1401230056916 71.4617388758777,80.93469389932318 L71.4617388758777,98.80513786132263 C71.4617388758777,100.59961807426225 72.86241217798579,102.0544084151683 74.59004683840726,102.0544084151683 L99.61387587821991,102.0544084151683 C101.34151053864116,102.0544084151683 102.74183255269281,100.59961807426228 102.74183255269281,98.80513786132263 L102.74183255269281,80.93469389932318 C102.74183255269281,79.1401230056916 101.34142271662745,77.68569538755335 99.61387587821991,77.68569538755335 L99.61387587821991,77.68569538755335 Z M90.23571428571404,77.27944588763069 C90.23571428571404,75.599767430696 91.5510245901637,74.23311872236243 93.16817915690808,74.23311872236243 C94.78533372365314,74.23311872236243 96.1006440281028,75.599767430696 96.1006440281028,77.27944588763069 L96.1006440281028,77.68569538755335 L90.2358021077282,77.68569538755335 L90.2358021077282,77.27944588763069 Z M90.23571428571404,77.27944588763069 "/></g></g><path transform="matrix(1 0 0 1 4.547473508864641e-13 2.842170943040401e-14)" width="28.151873536299263" height="21.11944247376931" stroke-width="0.0892399070056275" stroke-miterlimit="3" stroke="none" fill="#F2EFE2" d="M99.61387587821991,100.42959177686157 L74.59004683840726,100.42959177686157 C73.72622950819664,100.42959177686157 73.02602459016384,99.70659461996797 73.02602459016384,98.81465933397706 L73.02602459016384,80.9250817459768 C73.02602459016384,80.03314645998589 73.72622950819664,79.31014930309226 74.59004683840726,79.31014930309226 L99.61387587821991,79.31014930309226 C100.47769320843076,79.31014930309226 101.1778981264631,80.03314645998589 101.1778981264631,80.9250817459768 L101.1778981264631,98.81465933397706 C101.1778103044494,99.70659461996797 100.47760538641683,100.42959177686157 99.61387587821991,100.42959177686157 L99.61387587821991,100.42959177686157 Z M99.61387587821991,100.42959177686157 "/><path transform="matrix(1 0 0 1 4.547473508864641e-13 2.842170943040401e-14)" width="26.588114754098342" height="9.747448938769196" stroke-width="0.0892399070056275" stroke-miterlimit="3" stroke="none" fill="#CFDFE2" d="M95.70368852459,94.7436403497075 L78.49988290398119,94.7436403497075 C75.90843091334887,94.7436403497075 73.80790398126442,92.57473955971867 73.80790398126442,89.89893370174593 L73.80790398126442,89.8408073782079 C73.80790398126442,87.16509220092715 75.90843091334887,84.99619141093831 78.49988290398119,84.99619141093831 L95.70368852459,84.99619141093831 C98.29514051522233,84.99619141093831 100.39601873536276,87.16509220092715 100.39601873536276,89.8408073782079 L100.39601873536276,89.89893370174593 C100.39566744730655,92.57473955971864 98.29514051522233,94.7436403497075 95.70368852459,94.7436403497075 L95.70368852459,94.7436403497075 Z M95.70368852459,94.7436403497075 "/><g transform="matrix(1 0 0 1 4.547473508864641e-13 2.842170943040401e-14)"><g clip-path="url(#_1487082390773_2_)"><path width="18.374989022248144" height="14.213650751316194" stroke-width="0.0892399070056275" stroke-miterlimit="3" stroke="none" fill="#256277" d="M78.53931498829002,89.22027940321445 C78.8631147540982,89.22027940321445 79.12561475409825,89.49295624389913 79.12561475409825,89.82947229171452 L79.12561475409825,89.91063151100707 C79.12561475409825,90.24714755882249 78.8631147540982,90.51991508019915 78.53931498829002,90.51991508019915 C78.21507611241168,90.51991508019915 77.95266393442625,90.24714755882249 77.95266393442625,89.91063151100707 L77.95266393442625,89.82947229171452 C77.95266393442603,89.49295624389913 78.21507611241168,89.22027940321445 78.53931498829002,89.22027940321445 L78.53931498829002,89.22027940321445 Z M80.88512880562007,89.22027940321445 C80.5612412177984,89.22027940321445 80.29847775175631,89.49295624389913 80.29847775175631,89.82947229171452 L80.29847775175631,89.91063151100707 C80.29847775175631,90.24714755882249 80.5612412177984,90.51991508019915 80.88512880562007,90.51991508019915 C81.20901639344243,90.51991508019915 81.47169203747058,90.24714755882249 81.47169203747058,89.91063151100707 L81.47169203747058,89.82947229171452 C81.47169203747058,89.49295624389913 81.2092798594847,89.22027940321445 80.88512880562007,89.22027940321445 L80.88512880562007,89.22027940321445 Z M87.06252927400419,89.22027940321445 C86.73864168618252,89.22027940321445 86.47622950819641,89.49295624389913 86.47622950819641,89.82947229171452 L86.47622950819641,89.91063151100707 C86.47622950819641,90.24714755882249 86.73864168618252,90.51991508019915 87.06252927400419,90.51991508019915 C87.38632903981215,90.51991508019915 87.64909250585424,90.24714755882249 87.64909250585424,89.91063151100707 L87.64909250585424,89.82947229171452 C87.64909250585424,89.49295624389913 87.38632903981215,89.22027940321445 87.06252927400419,89.22027940321445 L87.06252927400419,89.22027940321445 Z M89.99490632318498,89.9106315110071 L89.99490632318498,89.82947229171455 C89.99490632318498,89.49295624389913 89.73249414519887,89.22027940321448 89.40860655737652,89.22027940321448 C89.08471896955484,89.22027940321448 88.82195550351275,89.49295624389913 88.82195550351275,89.82947229171455 L88.82195550351275,89.9106315110071 C88.82195550351275,90.24714755882249 89.08471896955484,90.51991508019915 89.40860655737652,90.51991508019915 C89.73249414519887,90.51991508019915 89.99490632318498,90.24714755882249 89.99490632318498,89.9106315110071 L89.99490632318498,89.9106315110071 Z M80.00892857142844,84.38019747054216 C79.78015222482418,84.14252337694904 79.40857728337187,84.14252337694904 79.17980093676806,84.38019747054216 L75.41539812646329,88.29043958798968 C74.57669789227157,89.16115559206497 74.57669789227157,90.57831344581302 75.41539812646329,91.4493921726561 L79.17980093676806,95.35927156733581 C79.29405737704906,95.4783353158623 79.4442330210768,95.53782184977953 79.59414519906318,95.53782184977953 C79.74440866510486,95.53782184977953 79.89432084309124,95.4783353158623 80.00892857142844,95.35927156733581 C80.23814402810285,95.1215974737427 80.23814402810285,94.73584181020004 80.00892857142844,94.49780499383917 L76.24461358313806,90.5879255991594 C75.86346604215441,90.19192301742677 75.86346604215441,89.54790874321904 76.24461358313806,89.15190616148638 L80.00892857142844,85.24166404403888 C80.23814402810285,85.00398995044574 80.23814402810285,84.61823428690312 80.00892857142844,84.38019747054216 L80.00892857142844,84.38019747054216 Z M92.53252341920324,88.29043958798968 L88.76820843091286,84.38056019330998 C88.53908079625285,84.14252337694904 88.16785714285675,84.14252337694904 87.93872950819627,84.38056019330998 C87.70995316159224,84.61823428690312 87.70995316159224,85.00398995044574 87.93872950819627,85.24202676680665 L91.70304449648665,89.15190616148635 C92.08419203747053,89.54790874321904 92.08419203747053,90.19192301742677 91.70304449648665,90.5879255991594 L87.93872950819627,94.49816771660693 C87.70995316159224,94.73584181020004 87.70995316159224,95.1215974737427 87.93872950819627,95.35963429010357 C88.05333723653371,95.47869803863009 88.20360070257584,95.53818457254732 88.35351288056154,95.53818457254732 C88.50342505854792,95.53818457254732 88.6536885245896,95.47869803863009 88.76829625292726,95.35963429010357 L92.53261124121764,91.4493921726561 C93.37096018735338,90.57867616858084 93.37096018735338,89.16142763414084 92.53252341920324,88.29043958798968 L92.53252341920324,88.29043958798968 Z M85.67994730679106,82.78049938390478 C85.36642271662754,82.69906812253632 85.04736533957794,82.89738679582447 84.96885245901626,83.22401864821765 L81.84089578454291,96.22037541806472 C81.76229508196707,96.5470072704579 81.95339578454332,96.87781043468061 82.26762295081949,96.95924169604902 C82.31531030444921,96.97166495084579 82.3633489461356,96.97764987651428 82.41033372365337,96.97764987651428 C82.67309718969545,96.97764987651428 82.91223653395741,96.79275194563431 82.97880562060845,96.51608515450397 L86.10676229508181,83.51927498119716 C86.18527517564348,83.19282449018789 85.99426229508185,82.86229336804098 85.67994730679106,82.78049938390478 L85.67994730679106,82.78049938390478 Z M85.67994730679106,82.78049938390478 "/></g><g clip-path="url(#_1487082390773_3_)"><path width="10.551386855972083" height="25.006651695462295" stroke-width="0.0892399070056275" stroke-miterlimit="3" stroke="none" fill="#FC8059" d="M99.5232435597186,94.62457660118105 L97.12324355971873,97.78389190861526 C96.88243559718944,98.10091160766208 96.49171545667446,98.10091160766208 96.2504683840748,97.78389190861526 L93.85046838407447,94.62457660118105 C93.73006440281029,94.46624811304153 93.73006440281029,94.20907767067979 93.85046838407447,94.05038645977251 C93.90843091334841,93.97421467853701 93.98703161592493,93.93132271124608 94.06861826697877,93.93132271124608 L96.10055620608887,93.93132271124608 L96.10055620608887,77.27944588763069 C96.10055620608887,75.599767430696 94.78498243559716,74.23311872236243 93.16809133489437,74.23311872236243 C91.55093676814954,74.23311872236243 90.23527517564389,75.599767430696 90.23527517564389,77.27944588763069 L90.23527517564389,77.68569538755335 L89.0624121779856,77.68569538755335 L89.0624121779856,77.27944588763069 C89.0624121779856,74.92809554544445 90.9043032786883,73.01500498743809 93.16809133489437,73.01500498743809 C95.43187939110044,73.01500498743809 97.27341920374693,74.92809554544442 97.27341920374693,77.27944588763069 L97.27341920374693,93.93141339193801 L99.30500585480081,93.93141339193801 C99.38703161592503,93.93141339193801 99.4655444964867,93.97430535922896 99.52315573770488,94.05047714046447 C99.64399882903967,94.208714947912 99.64399882903967,94.46588539027377 99.5232435597186,94.62457660118105 L99.5232435597186,94.62457660118105 Z M99.5232435597186,94.62457660118105 "/></g></g></g></svg>