<?xml version="1.0" encoding="utf-8"?><svg xmlns="http://www.w3.org/2000/svg" xmlns:xlink="http://www.w3.org/1999/xlink" version="1.1" class="page" pageAlignment="none" x="0px" y="0px" width="36px" height="36px" viewBox="0 0 36 36" enable-background="new 0 0 36 36" xml:space="preserve"><defs><clipPath id="_1487082424143_0_"><path transform="matrix(1 0 0 1 69.11592505854787 68.97634345794391)" width="36" height="36" stroke-width="0.08771935824314363" stroke-miterlimit="3" stroke="none" fill="#000" d="M-4.547473508864641e-13,-2.842170943040401e-14 L35.999999999999545,-2.842170943040401e-14 L35.999999999999545,35.99999999999997 L-4.547473508864641e-13,35.99999999999997 L-4.547473508864641e-13,-2.842170943040401e-14 Z "/></clipPath><clipPath id="_1487082424143_1_"><path transform="matrix(1 0 0 1 69.11592505854787 68.97634345794391)" width="36" height="36" stroke-width="0.08771935824314363" stroke-miterlimit="3" stroke="none" fill="#000" d="M-4.547473508864641e-13,-2.842170943040401e-14 L35.999999999999545,-2.842170943040401e-14 L35.999999999999545,35.99999999999997 L-4.547473508864641e-13,35.99999999999997 L-4.547473508864641e-13,-2.842170943040401e-14 Z "/></clipPath></defs><style type="text/css"/><style type="text/css"/><g type="LAYER" name="workspace" id="workspace" locked="true"/><g transform="matrix(1 0 0 1 -69.11592505854765 -68.97634345794386)"><path transform="matrix(1 0 0 1 4.547473508864641e-13 2.842170943040401e-14)" width="33.535275175644074" height="33.38411214953271" stroke-width="0.08771935824314363" stroke-miterlimit="3" stroke="none" fill="#D0F7D6" d="M102.65120023419195,88.20035046728974 C102.65120023419195,97.41895443925235 95.14382318501112,104.8924065420561 85.88334309133438,104.8924065420561 C76.62295081967204,104.8924065420561 69.11592505854787,97.41895443925235 69.11592505854787,88.20035046728974 C69.11592505854787,78.9813960280374 76.62295081967204,71.50829439252338 85.88343091334877,71.50829439252338 C95.14417447306778,71.50829439252338 102.65120023419195,78.9813960280374 102.65120023419195,88.20035046728974 L102.65120023419195,88.20035046728974 Z M102.65120023419195,88.20035046728974 "/><path transform="matrix(1 0 0 1 4.547473508864641e-13 2.842170943040401e-14)" width="14.527429742389131" height="1.1704731308411738" stroke-width="0.08771935824314363" stroke-miterlimit="3" stroke="none" fill="#A3CCAA" d="M85.69127634660413,96.54620327102803 C85.69127634660413,96.86924649532712 85.42886416861802,97.13139602803743 85.10497658079612,97.13139602803743 L74.20617681498811,97.13139602803743 C73.88228922716621,97.13139602803743 73.61952576112367,96.86924649532712 73.61952576112367,96.54620327102803 C73.61952576112367,96.22307242990654 73.88228922716621,95.96092289719626 74.20617681498811,95.96092289719626 L85.10497658079612,95.96092289719626 C85.42886416861802,95.96092289719626 85.69127634660413,96.22307242990654 85.69127634660413,96.54620327102803 L85.69127634660413,96.54620327102803 Z M87.56030444964836,95.96092289719626 L87.4766100702575,95.96092289719626 C87.15272248243537,95.96092289719626 86.88995901639328,96.22298481308412 86.88995901639328,96.54620327102803 C86.88995901639328,96.86924649532712 87.15272248243537,97.13139602803743 87.4766100702575,97.13139602803743 L87.56030444964836,97.13139602803743 C87.88419203747071,97.13139602803743 88.1469555035128,96.86924649532712 88.1469555035128,96.54620327102803 C88.1468676814984,96.22307242990654 87.88410421545655,95.96092289719626 87.56030444964836,95.96092289719626 L87.56030444964836,95.96092289719626 Z M87.56030444964836,95.96092289719626 "/><g transform="matrix(1 0 0 1 4.547473508864641e-13 2.842170943040401e-14)"><g clip-path="url(#_1487082424143_0_)"><path width="8.503629976580896" height="15.60771028037388" stroke-width="0.08771935824314363" stroke-miterlimit="3" stroke="none" fill="#80A886" d="M83.48817330210773,92.46518691588786 L83.48817330210773,97.13139602803743 L74.98454332552683,97.13139602803743 L74.98454332552683,92.46518691588786 C74.98454332552683,90.28019859813087 76.76021662763446,88.50867406542058 78.95023419203721,88.50867406542058 L79.52248243559666,88.50867406542058 C81.7125878220138,88.50867406542058 83.48817330210773,90.2801109813084 83.48817330210773,92.46518691588786 L83.48817330210773,92.46518691588786 Z M79.23635831381716,86.46133177570097 C80.60620608899285,86.46133177570097 81.7166276346602,85.35622079439254 81.7166276346602,83.99264018691586 C81.7166276346602,82.62914719626168 80.60620608899285,81.52368574766355 79.23635831381716,81.52368574766355 C77.86659836065564,81.52368574766355 76.75608899297413,82.62914719626168 76.75608899297413,83.99264018691586 C76.75608899297413,85.35622079439254 77.86659836065564,86.46133177570097 79.23635831381716,86.46133177570097 L79.23635831381716,86.46133177570097 Z M79.23635831381716,86.46133177570097 "/></g><g clip-path="url(#_1487082424143_1_)"><path width="19.19941738875876" height="19.112816880841137" stroke-width="0.08771935824314363" stroke-miterlimit="3" stroke="none" fill="#FC8059" d="M87.71566159250528,69.08998247663551 C96.90263466042143,69.95204439252338 104.21416861826674,77.23046144859812 105.08044496487105,86.3761682242991 C105.17309718969523,87.35458528037385 104.39745316159224,88.20035046728974 103.41007025761064,88.20035046728974 L87.56030444964836,88.20035046728974 C86.6344847775174,88.20035046728974 85.88343091334877,87.45289135514021 85.88343091334877,86.53081191588787 L85.88343091334877,70.75259929906544 C85.88343091334877,69.76962616822432 86.73284543325508,68.99754672897195 87.71566159250528,69.08998247663551 L87.71566159250528,69.08998247663551 Z M87.71566159250528,69.08998247663551 "/></g></g><path transform="matrix(1 0 0 1 4.547473508864641e-13 2.842170943040401e-14)" width="14.527429742389131" height="1.1705607476635578" stroke-width="0.08771935824314363" stroke-miterlimit="3" stroke="none" fill="#BF5243" d="M100.72262880562039,84.02724883177571 C100.72262880562039,84.35029205607476 100.4598653395783,84.61252920560749 100.13597775175595,84.61252920560749 L89.23709016393423,84.61252920560749 C88.91320257611233,84.61252920560749 88.65043911006978,84.35029205607476 88.65043911006978,84.02724883177571 C88.65043911006978,83.70411799065424 88.91320257611233,83.44196845794393 89.23709016393423,83.44196845794393 L100.13597775175595,83.44196845794393 C100.45977751756413,83.44196845794393 100.72262880562039,83.70411799065424 100.72262880562039,84.02724883177571 L100.72262880562039,84.02724883177571 Z M102.5912177985947,83.44196845794393 L102.50752341920315,83.44196845794393 C102.18363583138148,83.44196845794393 101.92087236533939,83.70411799065424 101.92087236533939,84.02724883177571 C101.92087236533939,84.35029205607476 102.18363583138148,84.61252920560749 102.50752341920315,84.61252920560749 L102.5912177985947,84.61252920560749 C102.91510538641683,84.61252920560749 103.17786885245891,84.35029205607476 103.17786885245891,84.02724883177571 C103.17786885245891,83.70411799065424 102.91501756440266,83.44196845794393 102.5912177985947,83.44196845794393 L102.5912177985947,83.44196845794393 Z M102.5912177985947,83.44196845794393 "/><path transform="matrix(1 0 0 1 4.547473508864641e-13 2.842170943040401e-14)" width="8.503629976581124" height="15.60332943925232" stroke-width="0.08771935824314363" stroke-miterlimit="3" stroke="none" fill="#FED766" d="M98.51917447306778,79.9825058411215 L98.51917447306778,84.60771028037384 L90.01554449648665,84.60771028037384 L90.01554449648665,79.9825058411215 C90.01554449648665,77.7971670560748 91.79121779859429,76.02608060747666 93.98123536299704,76.02608060747666 L94.55313231850073,76.02608060747666 C96.74350117096014,76.02608060747666 98.51917447306778,77.79751752336448 98.51917447306778,79.9825058411215 L98.51917447306778,79.9825058411215 Z M94.26735948477744,73.94237733644859 C95.63720725995267,73.94237733644859 96.74762880562048,72.83691588785048 96.74762880562048,71.47342289719627 C96.74762880562048,70.10984228971965 95.63711943793896,69.00438084112152 94.26735948477744,69.00438084112152 C92.89759953161547,69.00438084112152 91.78709016393395,70.10984228971965 91.78709016393395,71.47342289719627 C91.78700234192024,72.83691588785048 92.89751170960176,73.94237733644859 94.26735948477744,73.94237733644859 L94.26735948477744,73.94237733644859 Z M94.26735948477744,73.94237733644859 "/></g></svg>