<?xml version="1.0" encoding="iso-8859-1"?>
<!-- Generator: Adobe Illustrator 19.0.0, SVG Export Plug-In . SVG Version: 6.00 Build 0)  -->
<svg version="1.1" id="Layer_1" xmlns="http://www.w3.org/2000/svg" xmlns:xlink="http://www.w3.org/1999/xlink" x="0px" y="0px"
	 viewBox="0 0 512 512" style="enable-background:new 0 0 512 512;" xml:space="preserve">
<path style="fill:#A5A5A5;" d="M512,105.739v38.957H0v-38.957c0-24.588,19.933-44.522,44.522-44.522h422.957
	C492.068,61.217,512,81.151,512,105.739z"/>
<path style="fill:#777777;" d="M397.913,94.052v1.113c0,4.61-3.738,8.348-8.348,8.348c-4.61,0-8.348-3.738-8.348-8.348v-1.113
	c0-4.61,3.738-8.348,8.348-8.348C394.175,85.704,397.913,89.442,397.913,94.052z M422.957,85.704c-4.61,0-8.348,3.738-8.348,8.348
	v1.113c0,4.61,3.738,8.348,8.348,8.348c4.61,0,8.348-3.738,8.348-8.348v-1.113C431.304,89.442,427.567,85.704,422.957,85.704z
	 M456.348,85.704c-4.61,0-8.348,3.738-8.348,8.348v1.113c0,4.61,3.738,8.348,8.348,8.348s8.348-3.738,8.348-8.348v-1.113
	C464.696,89.442,460.958,85.704,456.348,85.704z"/>
<path style="fill:#F2EFE2;" d="M512,128v311.652c0,24.588-19.933,44.522-44.522,44.522H44.522C19.933,484.174,0,464.24,0,439.652
	V128h66.783V50.087c0-12.295,9.966-22.261,22.261-22.261h89.043c12.295,0,22.261,9.966,22.261,22.261V128H512z"/>
<path style="fill:#B5C4C6;" d="M456.348,345.043c0,12.295-9.966,22.261-22.261,22.261H77.913c-12.295,0-22.261-9.966-22.261-22.261
	c0-12.295,9.966-22.261,22.261-22.261h356.174C446.382,322.783,456.348,332.749,456.348,345.043z M278.261,397.516H77.913
	c-12.295,0-22.261,9.967-22.261,22.261c0,12.295,9.966,22.261,22.261,22.261h200.348c12.295,0,22.261-9.966,22.261-22.261
	C300.522,407.482,290.556,397.516,278.261,397.516z"/>
<path style="fill:#DBD8D2;" d="M512,128v155.826H0V128h66.783V50.087c0-12.295,9.966-22.261,22.261-22.261h89.043
	c12.295,0,22.261,9.966,22.261,22.261V128H512z"/>
<path style="fill:#CCCAC4;" d="M178.087,66.783v22.261c0,6.147-4.983,11.13-11.13,11.13h-66.783c-6.147,0-11.13-4.983-11.13-11.13
	V66.783c0-6.147,4.983-11.13,11.13-11.13h66.783C173.104,55.652,178.087,60.635,178.087,66.783z"/>
<path style="fill:#FFFFFF;" d="M434.087,239.304H77.913c-12.295,0-22.261-9.966-22.261-22.261v-22.261
	c0-12.295,9.966-22.261,22.261-22.261h356.174c12.295,0,22.261,9.966,22.261,22.261v22.261
	C456.348,229.338,446.382,239.304,434.087,239.304z"/>
<path style="fill:#256277;" d="M197.565,205.913c0,4.61-3.738,8.348-8.348,8.348H89.043c-4.61,0-8.348-3.738-8.348-8.348
	c0-4.61,3.738-8.348,8.348-8.348h100.174C193.828,197.565,197.565,201.303,197.565,205.913z"/>
<path style="fill:#FC8059;" d="M279.22,209.45l139.011,54.396c12.911,5.052,14.395,22.731,2.505,29.864L371.17,323.45
	l-29.741,49.567c-7.134,11.89-24.812,10.406-29.864-2.505L257.17,231.501c-2.464-6.296-0.966-13.454,3.814-18.235l0,0
	C265.766,208.484,272.924,206.987,279.22,209.45z"/>
<path style="fill:#AD3C1E;" d="M420.738,293.711l-49.567,29.741L260.985,213.266c4.782-4.782,11.939-6.279,18.235-3.814
	l139.011,54.396C431.144,268.899,432.628,286.578,420.738,293.711z"/>
<g>
</g>
<g>
</g>
<g>
</g>
<g>
</g>
<g>
</g>
<g>
</g>
<g>
</g>
<g>
</g>
<g>
</g>
<g>
</g>
<g>
</g>
<g>
</g>
<g>
</g>
<g>
</g>
<g>
</g>
</svg>
