<?xml version="1.0" encoding="iso-8859-1"?>
<!-- Generator: Adobe Illustrator 19.0.0, SVG Export Plug-In . SVG Version: 6.00 Build 0)  -->
<svg version="1.1" id="Layer_1" xmlns="http://www.w3.org/2000/svg" xmlns:xlink="http://www.w3.org/1999/xlink" x="0px" y="0px"
	 viewBox="0 0 512 512" style="enable-background:new 0 0 512 512;" xml:space="preserve">
<path style="fill:#D6A154;" d="M289.391,389.565v44.522h33.391c12.295,0,22.261,9.966,22.261,22.261l0,0
	c0,12.295-9.966,22.261-22.261,22.261h-33.391v11.13c0,12.295-9.966,22.261-22.261,22.261H244.87
	c-12.295,0-22.261-9.966-22.261-22.261v-11.13v-44.522v-44.522v-44.522V233.739h66.783v111.304h33.391
	c12.295,0,22.261,9.966,22.261,22.261l0,0c0,12.295-9.966,22.261-22.261,22.261H289.391z"/>
<path style="fill:#FED766;" d="M434.087,50.882v165.366c0,28.102-22.781,50.883-50.882,50.883h-89.043h-4.771l0,0
	c0,36.883-29.9,66.783-66.783,66.783l0,0V267.13h-4.771h-89.043c-28.101,0-50.882-22.781-50.882-50.882V50.882
	C77.913,22.781,100.694,0,128.795,0h254.409C411.306,0,434.087,22.781,434.087,50.882z"/>
<path style="fill:#AD8653;" d="M230.957,177.53v1.113c0,4.61-3.738,8.348-8.348,8.348c-4.61,0-8.348-3.738-8.348-8.348v-1.113
	c0-4.61,3.738-8.348,8.348-8.348C227.219,169.183,230.957,172.92,230.957,177.53z M256,169.183c-4.61,0-8.348,3.738-8.348,8.348
	v1.113c0,4.61,3.738,8.348,8.348,8.348s8.348-3.738,8.348-8.348v-1.113C264.348,172.92,260.61,169.183,256,169.183z
	 M289.391,169.183c-4.61,0-8.348,3.738-8.348,8.348v1.113c0,4.61,3.738,8.348,8.348,8.348s8.348-3.738,8.348-8.348v-1.113
	C297.739,172.92,294.002,169.183,289.391,169.183z M189.217,97.391h133.565c4.61,0,8.348-3.738,8.348-8.348
	c0-4.61-3.738-8.348-8.348-8.348H189.217c-4.61,0-8.348,3.738-8.348,8.348C180.87,93.654,184.607,97.391,189.217,97.391z
	 M322.783,125.217H189.217c-4.61,0-8.348,3.738-8.348,8.348c0,4.61,3.738,8.348,8.348,8.348h133.565c4.61,0,8.348-3.738,8.348-8.348
	C331.13,128.955,327.393,125.217,322.783,125.217z"/>
<g>
</g>
<g>
</g>
<g>
</g>
<g>
</g>
<g>
</g>
<g>
</g>
<g>
</g>
<g>
</g>
<g>
</g>
<g>
</g>
<g>
</g>
<g>
</g>
<g>
</g>
<g>
</g>
<g>
</g>
</svg>
