<?xml version="1.0" encoding="utf-8"?><svg xmlns="http://www.w3.org/2000/svg" xmlns:xlink="http://www.w3.org/1999/xlink" version="1.1" class="page" pageAlignment="none" x="0px" y="0px" width="30px" height="30px" viewBox="0 0 30 30" enable-background="new 0 0 30 30" xml:space="preserve"><defs/><style type="text/css"/><style type="text/css"/><g type="LAYER" name="workspace" id="workspace" locked="true"/><g transform="matrix(1 0 0 1 -66.75824175824187 -66.77884615384593)"><path transform="matrix(1 0 0 1 -4.547473508864641e-13 0)" width="30.000000000000227" height="30.000000000000057" stroke-width="0.08241758241758246" stroke-miterlimit="3" stroke="none" fill="#2AA9E0" d="M66.75824175824187,66.77884615384622 L66.75824175824187,96.77884615384627 L96.7582417582421,96.77884615384627 L96.7582417582421,66.77884615384622 L66.75824175824187,66.77884615384622 Z M90.0164010989015,77.54299450549459 C90.02480769230806,77.72587912087923 90.02859890109903,77.90975274725284 90.02859890109903,78.09453296703305 C90.02859890109903,83.72530219780228 85.74288461538504,90.21799450549463 77.90513736263733,90.21799450549463 C75.49895604395601,90.21799450549463 73.25917582417583,89.51291208791221 71.37354395604439,88.30368131868141 C71.70675824175828,88.34324175824187 72.04607142857185,88.36326923076933 72.38991758241787,88.36326923076933 C74.38631868131915,88.36326923076933 76.22365384615387,87.68233516483528 77.68203296703336,86.53912087912096 C75.81733516483519,86.50500000000008 74.2436538461543,85.27293956043962 73.70118131868139,83.58016483516491 C73.96162087912126,83.63002747252753 74.22857142857151,83.65681318681325 74.50318681318686,83.65681318681325 C74.89178571428602,83.65681318681325 75.26843406593434,83.60431318681324 75.62579670329706,83.50714285714292 C73.67670329670364,83.11565934065945 72.20769230769224,81.39354395604403 72.20769230769224,79.32890109890118 C72.20769230769224,79.31126373626378 72.20769230769224,79.29321428571436 72.20802197802232,79.27549450549455 C72.7827197802203,79.59453296703302 73.43942307692305,79.78640109890114 74.13807692307728,79.80832417582423 C72.99453296703314,79.04431318681324 72.2424725274725,77.74013736263743 72.2424725274725,76.26181318681324 C72.2424725274725,75.48074175824183 72.45271978021992,74.74895604395613 72.81972527472544,74.11953296703302 C74.92104395604429,76.69771978021984 78.06098901098949,78.39403846153851 81.60230769230816,78.57173076923084 C81.52961538461545,78.25978021978031 81.49162087912123,77.9345604395605 81.49162087912123,77.60076923076929 C81.49162087912123,75.2476648351649 83.39975274725316,73.3397802197803 85.75285714285747,73.3397802197803 C86.9784890109895,73.3397802197803 88.08568681318684,73.85719780219787 88.86313186813209,74.68524725274733 C89.83343406593417,74.49436813186819 90.74554945054979,74.13956043956048 91.56873626373635,73.65148351648358 C91.25068681318726,74.64626373626379 90.57519230769276,75.48140109890116 89.69538461538468,76.00879120879125 C90.55722527472562,75.9057692307693 91.37851648351648,75.67656593406599 92.14277472527465,75.33750000000009 C91.57170329670339,76.19184065934076 90.84931318681356,76.94258241758251 90.0164010989015,77.54299450549459 L90.0164010989015,77.54299450549459 Z M90.0164010989015,77.54299450549459 "/></g></svg>