<?xml version="1.0" encoding="utf-8"?><svg xmlns="http://www.w3.org/2000/svg" xmlns:xlink="http://www.w3.org/1999/xlink" version="1.1" class="page" pageAlignment="none" x="0px" y="0px" width="30px" height="30px" viewBox="0 0 30 30" enable-background="new 0 0 30 30" xml:space="preserve"><defs/><style type="text/css"/><style type="text/css"/><g type="LAYER" name="workspace" id="workspace" locked="true"/><g transform="matrix(1 0 0 1 -66.75824175824187 -66.77884615384605)"><path transform="matrix(1 0 0 1 -4.547473508864641e-13 0)" width="30.000000000000227" height="30.000000000000057" stroke-width="0.08241758241758246" stroke-miterlimit="3" stroke="none" fill="#4C75A3" d="M66.75824175824187,66.77884615384622 L66.75824175824187,96.77884615384627 L96.7582417582421,96.77884615384627 L96.7582417582421,66.77884615384622 L66.75824175824187,66.77884615384622 Z M89.24826923076967,83.37634615384624 C89.93686813186855,84.04821428571441 90.66510989011022,84.68052197802209 91.28324175824218,85.42359890109901 C91.55629120879121,85.75162087912099 91.81475274725312,86.09035714285724 92.01148351648385,86.47054945054956 C92.29096153846194,87.01524725274734 92.03785714285755,87.61244505494517 91.5510989010993,87.64532967032977 L88.52645604395639,87.6440109890111 C87.74538461538509,87.70804945054954 87.12346153846192,87.39321428571438 86.59862637362676,86.85914835164843 C86.18134615384656,86.43387362637372 85.79151098901139,85.97859890109899 85.38873626373652,85.53914835164844 C85.22489010989057,85.35791208791215 85.05131868131866,85.18854395604404 84.84527472527475,85.05362637362646 C84.43219780219806,84.78576923076932 84.0739285714285,84.8671978021979 83.83755494505499,85.29733516483526 C83.59739010989051,85.73579670329678 83.54101648351661,86.22263736263744 83.51884615384643,86.71063186813197 C83.48604395604434,87.42337912087922 83.27093406593417,87.6094780219781 82.55554945054996,87.64392857142866 C81.0253021978026,87.71472527472534 79.57434065934058,87.48230769230776 78.22631868131907,86.71186813186821 C77.0361263736263,86.03225274725281 76.1150274725278,85.07159340659348 75.3131043956048,83.98532967032975 C73.75038461538475,81.8672802197803 72.55368131868158,79.54178571428582 71.47870879120887,77.14953296703305 C71.23598901098921,76.61060439560447 71.41335164835209,76.3214835164836 72.00642857142907,76.31118131868138 C72.99478021978052,76.291565934066 73.98247252747296,76.29412087912095 74.96958791208795,76.30994505494513 C75.37104395604433,76.31670329670337 75.63725274725311,76.54590659340667 75.79087912087948,76.92510989010998 C76.32494505494515,78.23769230769238 76.97851648351661,79.48681318681327 77.79848901098899,80.64585164835174 C78.01804945054982,80.95425824175831 78.24082417582417,81.26109890109896 78.55697802197847,81.47901098901104 C78.9072527472531,81.72049450549457 79.17510989010998,81.64162087912095 79.3402747252751,81.24914835164842 C79.44552197802227,81.00000000000006 79.49159340659367,80.7346978021979 79.51384615384609,80.46848901098912 C79.5923901098904,79.55637362637373 79.60170329670336,78.64335164835171 79.46645604395644,77.73387362637371 C79.38247252747283,77.16560439560448 79.06079670329677,76.79793956043966 78.49417582417573,76.69046703296715 C78.20546703296736,76.63541208791219 78.24857142857172,76.52917582417592 78.3876098901103,76.36368131868142 C78.63197802197828,76.0790934065935 78.86184065934071,75.90164835164842 79.31678571428597,75.90164835164842 L82.73546703296711,75.90164835164842 C83.27439560439575,76.00697802197811 83.39546703296696,76.24969780219789 83.46881868131914,76.7915109890111 L83.47137362637409,80.5907967032968 C83.46494505494525,80.80071428571438 83.57662087912126,81.42239010989022 83.95302197802243,81.5601923076924 C84.25467032967026,81.66000000000011 84.45560439560472,81.4168681318682 84.63684065934103,81.22565934065946 C85.45557692307693,80.35673076923086 86.03958791208788,79.32939560439567 86.56145604395647,78.26670329670341 C86.79263736263738,77.79923076923083 86.9922527472529,77.31403846153856 87.18634615384622,76.82826923076931 C87.3295879120883,76.468598901099 87.55269230769272,76.29156593406603 87.95802197802232,76.29799450549461 L91.24928571428563,76.30186813186822 C91.34620879120894,76.30186813186822 91.44601648351659,76.30186813186822 91.54195054945058,76.31760989010999 C92.095384615385,76.41354395604404 92.24769230769243,76.65247252747264 92.07576923076931,77.1942857142858 C91.80692307692357,78.04326923076934 91.28060439560431,78.75181318681328 90.76771978021975,79.46175824175833 C90.21750000000043,80.22148351648363 89.63258241758285,80.95491758241769 89.08656593406613,81.71884615384624 C88.58826923076936,82.41857142857154 88.62758241758252,82.77008241758253 89.24826923076967,83.37634615384624 L89.24826923076967,83.37634615384624 Z M89.24826923076967,83.37634615384624 "/></g></svg>