<?xml version="1.0" encoding="utf-8"?><svg xmlns="http://www.w3.org/2000/svg" xmlns:xlink="http://www.w3.org/1999/xlink" version="1.1" class="page" pageAlignment="none" x="0px" y="0px" width="22px" height="13px" viewBox="0 0 22 13" enable-background="new 0 0 22 13" xml:space="preserve"><defs/><style type="text/css"/><style type="text/css"/><g type="LAYER" name="workspace" id="workspace" locked="true"/><g transform="matrix(1 0 0 1 1.4210854715202004e-14 -4.40434111187367)"><path width="22.000000000000004" height="13.000000000000007" stroke-width="0.04480747107282753" stroke-miterlimit="3" stroke="none" fill="#000" d="M11,4.404341111873713 C6.796665643858034,4.404341111873713 2.984862432238927,6.6840253946465396 0.1721386928505808,10.386839396019226 C-0.0573795642835222,10.69020247083047 -0.0573795642835222,11.114018531228552 0.1721386928505808,11.417381606039811 C2.984862432238927,15.124656829100893 6.796665643858034,17.40434111187372 11,17.40434111187372 C15.203334356141966,17.40434111187372 19.015137567761087,15.124656829100893 21.82786130714942,11.421842827728213 C22.057379564283536,11.118479752916954 22.057379564283536,10.69466369251888 21.82786130714942,10.391300617707621 C19.015137567761087,6.6840253946465396 15.203334356141966,4.404341111873713 11,4.404341111873713 Z M11.301523984862428,15.48155456417296 C8.511302035389178,15.655542210020592 6.207118748082223,13.375857927247779 6.382632709420051,10.605439258750856 C6.526644164876743,8.321293754289641 8.394292727830631,6.469886753603298 10.698476015137558,6.327127659574472 C13.488697964610822,6.153140013726841 15.792881251917748,8.43282429649966 15.61736729057992,11.20324296499657 C15.468855477140224,13.482927247769396 13.601206914186363,15.33433424845574 11.301523984862428,15.48155456417296 Z M11.16201288738877,13.366935483870975 C9.658893321059622,13.460621139327394 8.416794517745728,12.233785175017161 8.515802393372212,10.743737131091287 C8.592308479083556,9.512439945092659 9.600388667280342,8.517587508579275 10.842487470594264,8.437285518188062 C12.345607036923383,8.343599862731644 13.587705840237277,9.570435827041862 13.488697964610822,11.060483870967744 C13.407691520916444,12.296242278654773 12.39961133271963,13.291094715168164 11.16201288738877,13.366935483870975 Z "/></g><g/><g/><g/><g/><g/><g/><g/><g/><g/><g/><g/><g/><g/><g/><g/></svg>