<?xml version="1.0" encoding="utf-8"?><svg xmlns="http://www.w3.org/2000/svg" xmlns:xlink="http://www.w3.org/1999/xlink" version="1.1" class="page" pageAlignment="none" x="0px" y="0px" width="30px" height="30px" viewBox="0 0 30 30" enable-background="new 0 0 30 30" xml:space="preserve"><defs/><style type="text/css"/><style type="text/css"/><g type="LAYER" name="workspace" id="workspace" locked="true"/><g transform="matrix(1 0 0 1 -66.75824175824187 -66.77884615384593)"><path transform="matrix(1 0 0 1 -4.547473508864641e-13 0)" width="30.000000000000227" height="30.000000000000057" stroke-width="0.08241758241758246" stroke-miterlimit="3" stroke="none" fill="#D72523" d="M66.75824175824187,66.77884615384622 L66.75824175824187,96.77884615384627 L96.7582417582421,96.77884615384627 L96.7582417582421,66.77884615384622 L66.75824175824187,66.77884615384622 Z M91.77972527472525,86.68846153846167 C91.52505494505499,87.79269230769239 90.62167582417601,88.60821428571441 89.53417582417615,88.72961538461547 C86.95994505494514,89.01675824175834 84.35348901098905,89.01873626373637 81.75725274725278,89.01675824175834 C79.16208791208783,89.01865384615391 76.5556318681322,89.01675824175834 73.9804120879121,88.72961538461547 C72.89258241758239,88.60821428571441 71.98920329670341,87.79277472527482 71.73609890109924,86.68846153846167 C71.37362637362685,85.11609890109901 71.37362637362685,83.39818681318692 71.37362637362685,81.77884615384625 C71.37362637362685,80.15917582417592 71.37782967032967,78.44225274725284 71.73997252747267,76.86989010989018 C71.99340659340692,75.76458791208802 72.89670329670344,74.95013736263743 73.9832967032969,74.82873626373635 C76.55851648351677,74.54093406593418 79.16629120879134,74.53994505494515 81.76145604395651,74.54093406593418 C84.35629120879162,74.53994505494515 86.96307692307732,74.54093406593418 89.53829670329719,74.82873626373635 C90.62612637362645,74.95013736263743 91.52950549450566,75.76458791208802 91.7838461538463,76.86989010989018 C92.14607142857176,78.44225274725284 92.14277472527488,80.15917582417592 92.14277472527488,81.77884615384625 C92.14285714285734,83.39818681318692 92.14186813186825,85.11609890109901 91.77972527472525,86.68846153846167 L91.77972527472525,86.68846153846167 Z M91.77972527472525,86.68846153846167 "/><path transform="matrix(1 0 0 1 -4.547473508864641e-13 0)" width="6.602472527472855" height="6.86835164835162" stroke-width="0.08241758241758246" stroke-miterlimit="3" stroke="none" fill="#D72523" d="M79.07835164835183,85.00310439560448 C81.28500000000031,83.85857142857154 83.47195054945064,82.72409340659351 85.68082417582468,81.57890109890118 C83.4658516483521,80.42315934065942 81.27890109890109,79.28315934065944 79.07835164835183,78.13475274725286 L79.07835164835183,85.00310439560448 Z M79.07835164835183,85.00310439560448 "/></g></svg>